M48
; DRILL file KiCad 10.0.1 date 2026-06-06T13:43:56
; FORMAT={-:-/ absolute / metric / decimal}
; #@! TF.CreationDate,2026-06-06T13:43:56-04:00
; #@! TF.GenerationSoftware,Kicad,Pcbnew,10.0.1
; #@! TF.FileFunction,Plated,1,2,PTH
FMAT,2
METRIC
; #@! TA.AperFunction,Plated,PTH,ViaDrill
T1C0.300
; #@! TA.AperFunction,Plated,PTH,ComponentDrill
T2C0.600
; #@! TA.AperFunction,Plated,PTH,ComponentDrill
T3C0.700
; #@! TA.AperFunction,Plated,PTH,ComponentDrill
T4C0.800
; #@! TA.AperFunction,Plated,PTH,ComponentDrill
T5C0.900
; #@! TA.AperFunction,Plated,PTH,ComponentDrill
T6C1.000
; #@! TA.AperFunction,Plated,PTH,ComponentDrill
T7C1.100
; #@! TA.AperFunction,Plated,PTH,ComponentDrill
T8C1.200
; #@! TA.AperFunction,Plated,PTH,ComponentDrill
T9C1.600
%
G90
G05
T1
X148.75Y-81.5
X157.25Y-79.5
X161.75Y-79.0
X162.75Y-83.75
X179.0Y-89.0
X181.5Y-76.5
X183.0Y-85.0
T2
X147.0Y-104.0
X147.0Y-106.0
T3
X136.71Y-65.649
X137.98Y-63.45
X139.25Y-61.25
T4
X142.09Y-96.75
X144.09Y-80.5
X145.75Y-113.5
X147.25Y-88.5
X148.25Y-113.5
X149.75Y-88.5
X152.25Y-96.75
X154.25Y-80.5
X156.75Y-88.5
X159.25Y-88.5
X160.0Y-112.95
X160.0Y-116.75
X160.3Y-69.13
X160.3Y-76.75
X160.3Y-98.5
X160.3Y-106.12
X162.84Y-69.13
X162.84Y-76.75
X162.84Y-98.5
X162.84Y-106.12
X165.38Y-69.13
X165.38Y-76.75
X165.38Y-98.5
X165.38Y-106.12
X167.92Y-69.13
X167.92Y-76.75
X167.92Y-98.5
X167.92Y-106.12
X170.46Y-69.13
X170.46Y-76.75
X170.46Y-98.5
X170.46Y-106.12
X173.0Y-69.13
X173.0Y-76.75
X173.0Y-98.5
X173.0Y-106.12
X175.54Y-69.13
X175.54Y-76.75
X175.54Y-98.5
X175.54Y-106.12
X176.25Y-118.75
X178.75Y-118.75
X179.5Y-84.5
X179.5Y-94.66
X179.75Y-56.5
X179.75Y-60.3
X184.25Y-90.25
X186.75Y-90.25
X191.75Y-75.947
X191.75Y-79.747
T5
X168.0Y-87.48
X168.0Y-90.02
T7
X144.34Y-69.25
X154.5Y-69.25
X167.118Y-52.497
X167.559Y-54.999
X168.0Y-57.5
T8
X129.264Y-109.152
X130.132Y-114.076
X130.29Y-86.948
X131.0Y-119.0
X132.0Y-82.25
X133.71Y-77.552
X183.822Y-110.91
X187.036Y-107.08
X190.25Y-103.25
X196.92Y-92.214
X200.75Y-89.0
X204.58Y-85.786
T9
X144.355Y-127.425
X152.655Y-127.425
X155.755Y-127.425
X180.877Y-47.45
X183.562Y-45.9
X190.75Y-41.75
T6
G00X193.68Y-55.382
M15
G01X192.68Y-57.114
M16
G05
G00X196.616Y-61.696
M15
G01X194.884Y-60.696
M16
G05
G00X199.616Y-56.5
M15
G01X197.884Y-55.5
M16
G05
G00X207.697Y-60.685
M15
G01X206.165Y-61.971
M16
G05
G00X208.297Y-67.623
M15
G01X207.011Y-66.091
M16
G05
G00X212.893Y-63.766
M15
G01X211.607Y-62.234
M16
G05
M30
