%TF.GenerationSoftware,KiCad,Pcbnew,10.0.1*%
%TF.CreationDate,2026-06-06T13:43:59-04:00*%
%TF.ProjectId,g-06-perc-01-rev-a,672d3036-2d70-4657-9263-2d30312d7265,rev?*%
%TF.SameCoordinates,Original*%
%TF.FileFunction,Legend,Bot*%
%TF.FilePolarity,Positive*%
%FSLAX46Y46*%
G04 Gerber Fmt 4.6, Leading zero omitted, Abs format (unit mm)*
G04 Created by KiCad (PCBNEW 10.0.1) date 2026-06-06 13:43:59*
%MOMM*%
%LPD*%
G01*
G04 APERTURE LIST*
%ADD10C,0.000000*%
%ADD11C,0.150000*%
%ADD12C,0.120000*%
G04 APERTURE END LIST*
D10*
G36*
X187250000Y-36250000D02*
G01*
X187425887Y-36261855D01*
X187601425Y-36281475D01*
X187776394Y-36308823D01*
X188123756Y-36386545D01*
X188466232Y-36494715D01*
X188802076Y-36633024D01*
X189129547Y-36801167D01*
X189446900Y-36998834D01*
X189601238Y-37108644D01*
X189752393Y-37225720D01*
X189900147Y-37350024D01*
X190044282Y-37481516D01*
X190184581Y-37620160D01*
X190320825Y-37765916D01*
X190702076Y-38204964D01*
X191069109Y-38656210D01*
X191421570Y-39119035D01*
X191759108Y-39592818D01*
X192081369Y-40076941D01*
X192388001Y-40570782D01*
X192678651Y-41073723D01*
X192952966Y-41585143D01*
X193210593Y-42104424D01*
X193451181Y-42630944D01*
X193674376Y-43164086D01*
X193879826Y-43703228D01*
X194067177Y-44247751D01*
X194236078Y-44797035D01*
X194386175Y-45350461D01*
X194517116Y-45907409D01*
X194560382Y-46153565D01*
X194583671Y-46396394D01*
X194587804Y-46635395D01*
X194573601Y-46870063D01*
X194541885Y-47099893D01*
X194493476Y-47324383D01*
X194429197Y-47543028D01*
X194349867Y-47755325D01*
X194256309Y-47960770D01*
X194149344Y-48158858D01*
X194029792Y-48349087D01*
X193898476Y-48530951D01*
X193756216Y-48703948D01*
X193603834Y-48867574D01*
X193442151Y-49021324D01*
X193271989Y-49164694D01*
X191524682Y-50547407D01*
X187521007Y-53385063D01*
X188053148Y-53584726D01*
X188583031Y-53736706D01*
X189108964Y-53841849D01*
X189629255Y-53901001D01*
X190142209Y-53915008D01*
X190646135Y-53884716D01*
X191139339Y-53810973D01*
X191620128Y-53694626D01*
X192086809Y-53536519D01*
X192537690Y-53337500D01*
X192971077Y-53098415D01*
X193385278Y-52820111D01*
X193778600Y-52503435D01*
X194149349Y-52149231D01*
X194495833Y-51758348D01*
X194816359Y-51331632D01*
X195261429Y-50692030D01*
X195709523Y-50059846D01*
X196616553Y-48813856D01*
X197540995Y-47585925D01*
X198486395Y-46368313D01*
X198579823Y-46254645D01*
X198676846Y-46145848D01*
X198777311Y-46041977D01*
X198881066Y-45943088D01*
X198987958Y-45849234D01*
X199097833Y-45760471D01*
X199210538Y-45676854D01*
X199325921Y-45598437D01*
X199443828Y-45525276D01*
X199564106Y-45457424D01*
X199686602Y-45394936D01*
X199811164Y-45337869D01*
X199937637Y-45286275D01*
X200065870Y-45240211D01*
X200195709Y-45199730D01*
X200327000Y-45164889D01*
X200459592Y-45135740D01*
X200593330Y-45112340D01*
X200728062Y-45094743D01*
X200863635Y-45083004D01*
X200999896Y-45077177D01*
X201136692Y-45077318D01*
X201273869Y-45083481D01*
X201411274Y-45095721D01*
X201548756Y-45114093D01*
X201686159Y-45138651D01*
X201823333Y-45169451D01*
X201960122Y-45206547D01*
X202096376Y-45249994D01*
X202231939Y-45299846D01*
X202366660Y-45356160D01*
X202500385Y-45418988D01*
X203051096Y-45715211D01*
X203581664Y-46047485D01*
X204087180Y-46413163D01*
X204329011Y-46607702D01*
X204562738Y-46809601D01*
X204787749Y-47018528D01*
X205003430Y-47234154D01*
X205209167Y-47456146D01*
X205404348Y-47684175D01*
X205588359Y-47917911D01*
X205760585Y-48157022D01*
X205920415Y-48401177D01*
X206067234Y-48650047D01*
X206200429Y-48903300D01*
X206319387Y-49160606D01*
X206423494Y-49421634D01*
X206512136Y-49686053D01*
X206584701Y-49953533D01*
X206640575Y-50223744D01*
X206679144Y-50496354D01*
X206699795Y-50771033D01*
X206701915Y-51047451D01*
X206684890Y-51325276D01*
X206648107Y-51604178D01*
X206590951Y-51883826D01*
X206512811Y-52163890D01*
X206413072Y-52444039D01*
X206291121Y-52723942D01*
X206146345Y-53003270D01*
X203002569Y-58602910D01*
X203061714Y-58633904D01*
X203119251Y-58661816D01*
X203175263Y-58686749D01*
X203229836Y-58708805D01*
X203283053Y-58728088D01*
X203335000Y-58744700D01*
X203385760Y-58758743D01*
X203435418Y-58770321D01*
X203484058Y-58779536D01*
X203531765Y-58786490D01*
X203578623Y-58791287D01*
X203624716Y-58794029D01*
X203714946Y-58793758D01*
X203803131Y-58786498D01*
X203889945Y-58773071D01*
X203976064Y-58754299D01*
X204062163Y-58731002D01*
X204148917Y-58704001D01*
X204515984Y-58575392D01*
X213090864Y-55631109D01*
X213213963Y-55592249D01*
X213343828Y-55557400D01*
X213479246Y-55527266D01*
X213619002Y-55502555D01*
X213761881Y-55483970D01*
X213906671Y-55472217D01*
X214052155Y-55468001D01*
X214197121Y-55472029D01*
X214340353Y-55485004D01*
X214480637Y-55507634D01*
X214616760Y-55540622D01*
X214747506Y-55584675D01*
X214810484Y-55611071D01*
X214871662Y-55640498D01*
X214930889Y-55673043D01*
X214988013Y-55708796D01*
X215042883Y-55747843D01*
X215095346Y-55790274D01*
X215145250Y-55836176D01*
X215192444Y-55885639D01*
X215487894Y-56225678D01*
X215773467Y-56571063D01*
X216049609Y-56921577D01*
X216316761Y-57277004D01*
X216575368Y-57637127D01*
X216825874Y-58001728D01*
X217068720Y-58370593D01*
X217304352Y-58743503D01*
X217755743Y-59500594D01*
X218183594Y-60271269D01*
X218591454Y-61053794D01*
X218982868Y-61846436D01*
X219034982Y-61960897D01*
X219080471Y-62074635D01*
X219119438Y-62187571D01*
X219151990Y-62299629D01*
X219178231Y-62410729D01*
X219198267Y-62520793D01*
X219212202Y-62629744D01*
X219220143Y-62737504D01*
X219222193Y-62843994D01*
X219218459Y-62949136D01*
X219209045Y-63052852D01*
X219194057Y-63155064D01*
X219173599Y-63255694D01*
X219147778Y-63354664D01*
X219116697Y-63451896D01*
X219080463Y-63547311D01*
X219039180Y-63640832D01*
X218992955Y-63732380D01*
X218941890Y-63821877D01*
X218886093Y-63909246D01*
X218825668Y-63994408D01*
X218760721Y-64077285D01*
X218691356Y-64157799D01*
X218617678Y-64235872D01*
X218539793Y-64311425D01*
X218457807Y-64384382D01*
X218281949Y-64522190D01*
X218090944Y-64648671D01*
X217885636Y-64763202D01*
X216315629Y-65543342D01*
X214749167Y-66311874D01*
X213963135Y-66709522D01*
X213173031Y-67125550D01*
X212377205Y-67567053D01*
X211574003Y-68041124D01*
X211886170Y-68099664D01*
X212199377Y-68140989D01*
X212827104Y-68178835D01*
X213453572Y-68168343D01*
X214075168Y-68123191D01*
X215289293Y-67983625D01*
X215874598Y-67916571D01*
X216440580Y-67869575D01*
X216983626Y-67856316D01*
X217245420Y-67866613D01*
X217500126Y-67890474D01*
X217747291Y-67929609D01*
X217986465Y-67985728D01*
X218217195Y-68060541D01*
X218439031Y-68155758D01*
X218651520Y-68273089D01*
X218854212Y-68414243D01*
X219046654Y-68580931D01*
X219228394Y-68774863D01*
X219398983Y-68997748D01*
X219557967Y-69251296D01*
X219704895Y-69537218D01*
X219839316Y-69857223D01*
X219953045Y-70170102D01*
X220058286Y-70485626D01*
X220155172Y-70803619D01*
X220243841Y-71123904D01*
X220324429Y-71446306D01*
X220397071Y-71770647D01*
X220461903Y-72096751D01*
X220519061Y-72424443D01*
X220568683Y-72753545D01*
X220610902Y-73083882D01*
X220645856Y-73415277D01*
X220673681Y-73747554D01*
X220708485Y-74414047D01*
X220716403Y-75081952D01*
X220712525Y-75210296D01*
X220703517Y-75337258D01*
X220689450Y-75462686D01*
X220670392Y-75586428D01*
X220646415Y-75708331D01*
X220617587Y-75828242D01*
X220583979Y-75946009D01*
X220545661Y-76061480D01*
X220502703Y-76174502D01*
X220455173Y-76284923D01*
X220403144Y-76392591D01*
X220346683Y-76497353D01*
X220285862Y-76599056D01*
X220220750Y-76697549D01*
X220151417Y-76792679D01*
X220077933Y-76884293D01*
X220000368Y-76972239D01*
X219918791Y-77056364D01*
X219833273Y-77136517D01*
X219743884Y-77212544D01*
X219650693Y-77284294D01*
X219553771Y-77351614D01*
X219453187Y-77414351D01*
X219349011Y-77472354D01*
X219241313Y-77525469D01*
X219130163Y-77573544D01*
X219015631Y-77616428D01*
X218897788Y-77653966D01*
X218776701Y-77686008D01*
X218652443Y-77712401D01*
X218525082Y-77732991D01*
X218394688Y-77747627D01*
X214538913Y-78077827D01*
X214371103Y-78088313D01*
X214206292Y-78104878D01*
X214044540Y-78127435D01*
X213885904Y-78155897D01*
X213730442Y-78190175D01*
X213578213Y-78230183D01*
X213429273Y-78275833D01*
X213283682Y-78327036D01*
X213141497Y-78383707D01*
X213002775Y-78445757D01*
X212867576Y-78513098D01*
X212735956Y-78585643D01*
X212607974Y-78663305D01*
X212483687Y-78745996D01*
X212246434Y-78926115D01*
X212024658Y-79125299D01*
X211818824Y-79342848D01*
X211629396Y-79578062D01*
X211456835Y-79830241D01*
X211301608Y-80098684D01*
X211164176Y-80382691D01*
X211045003Y-80681561D01*
X210944553Y-80994595D01*
X210814791Y-81415421D01*
X210668105Y-81826492D01*
X210504660Y-82227647D01*
X210324624Y-82618726D01*
X210128162Y-82999566D01*
X209915442Y-83370006D01*
X209686628Y-83729886D01*
X209441888Y-84079044D01*
X209181388Y-84417319D01*
X208905293Y-84744549D01*
X208613771Y-85060574D01*
X208306987Y-85365233D01*
X207985108Y-85658363D01*
X207648300Y-85939804D01*
X207296730Y-86209395D01*
X206930563Y-86466974D01*
X211501768Y-93401174D01*
X211587056Y-93537324D01*
X211664993Y-93675438D01*
X211735682Y-93815344D01*
X211799231Y-93956868D01*
X211855743Y-94099838D01*
X211905325Y-94244082D01*
X211948080Y-94389426D01*
X211984115Y-94535699D01*
X212013534Y-94682728D01*
X212036444Y-94830340D01*
X212063152Y-95126623D01*
X212065081Y-95423168D01*
X212043072Y-95718594D01*
X211997967Y-96011522D01*
X211930607Y-96300569D01*
X211841833Y-96584357D01*
X211732488Y-96861504D01*
X211603411Y-97130629D01*
X211455445Y-97390353D01*
X211289431Y-97639294D01*
X211106210Y-97876073D01*
X210162718Y-98796906D01*
X209674395Y-99250155D01*
X209176177Y-99688032D01*
X208668930Y-100102592D01*
X208153520Y-100485887D01*
X207630814Y-100829974D01*
X207366996Y-100984831D01*
X207101680Y-101126906D01*
X206834972Y-101255206D01*
X206566982Y-101368737D01*
X206297819Y-101466507D01*
X206027589Y-101547522D01*
X205756403Y-101610790D01*
X205484367Y-101655316D01*
X205211591Y-101680108D01*
X204938182Y-101684172D01*
X204664250Y-101666515D01*
X204389901Y-101626145D01*
X204115246Y-101562067D01*
X203840391Y-101473289D01*
X203565446Y-101358817D01*
X203290519Y-101217659D01*
X203015717Y-101048820D01*
X202741150Y-100851308D01*
X202380109Y-100565236D01*
X202026691Y-100273384D01*
X201680378Y-99975940D01*
X201340650Y-99673089D01*
X201006988Y-99365019D01*
X200678873Y-99051915D01*
X200037210Y-98411353D01*
X199411508Y-97752894D01*
X198797617Y-97078030D01*
X198191384Y-96388252D01*
X197588658Y-95685050D01*
X196426075Y-94525914D01*
X196250661Y-97452997D01*
X196165717Y-98469747D01*
X196033840Y-99469910D01*
X195855659Y-100452700D01*
X195631805Y-101417332D01*
X195362906Y-102363019D01*
X195049594Y-103288976D01*
X194692498Y-104194416D01*
X194292247Y-105078553D01*
X193849472Y-105940602D01*
X193364802Y-106779776D01*
X192838867Y-107595290D01*
X192272297Y-108386357D01*
X191665722Y-109152192D01*
X191019771Y-109892008D01*
X190335075Y-110605019D01*
X189612262Y-111290441D01*
X189075831Y-111747896D01*
X188550580Y-112143868D01*
X188039306Y-112484184D01*
X187544805Y-112774675D01*
X187069873Y-113021171D01*
X186617306Y-113229500D01*
X186189902Y-113405493D01*
X185790456Y-113554978D01*
X185086624Y-113797744D01*
X184528182Y-114004436D01*
X184310474Y-114108827D01*
X184137501Y-114221688D01*
X184068665Y-114283116D01*
X184012062Y-114348848D01*
X183968041Y-114419611D01*
X183936952Y-114496136D01*
X183725292Y-115144007D01*
X183496797Y-115773541D01*
X183251744Y-116385141D01*
X182990407Y-116979213D01*
X182419988Y-118116392D01*
X181787748Y-119188318D01*
X181095893Y-120198231D01*
X180346630Y-121149370D01*
X179542165Y-122044975D01*
X178684707Y-122888286D01*
X177776460Y-123682543D01*
X176819633Y-124430985D01*
X175816432Y-125136852D01*
X174769064Y-125803384D01*
X173679735Y-126433820D01*
X172550654Y-127031401D01*
X171384025Y-127599366D01*
X170182057Y-128140954D01*
X168821926Y-128714055D01*
X167452821Y-129255595D01*
X166074798Y-129765373D01*
X164687913Y-130243186D01*
X163292220Y-130688834D01*
X161887776Y-131102115D01*
X160474636Y-131482827D01*
X159052854Y-131830770D01*
X157622487Y-132145740D01*
X156183590Y-132427537D01*
X154736219Y-132675960D01*
X153280428Y-132890807D01*
X151816273Y-133071876D01*
X150343810Y-133218965D01*
X148863095Y-133331874D01*
X147374182Y-133410401D01*
X147374194Y-133400076D01*
X146080785Y-133423794D01*
X144806458Y-133387463D01*
X143553765Y-133288513D01*
X142325262Y-133124376D01*
X141123503Y-132892482D01*
X139951042Y-132590261D01*
X138810435Y-132215143D01*
X137704235Y-131764559D01*
X136634998Y-131235940D01*
X135605277Y-130626716D01*
X134617627Y-129934316D01*
X133674603Y-129156173D01*
X132778758Y-128289715D01*
X131932649Y-127332374D01*
X131138828Y-126281580D01*
X130399851Y-125134763D01*
X130094726Y-124608528D01*
X129802197Y-124078388D01*
X129522042Y-123544228D01*
X129254040Y-123005930D01*
X128997969Y-122463381D01*
X128753608Y-121916462D01*
X128520734Y-121365060D01*
X128299126Y-120809058D01*
X128088563Y-120248339D01*
X127888822Y-119682789D01*
X127520920Y-118536729D01*
X127193650Y-117369951D01*
X126905235Y-116181528D01*
X126471750Y-114112906D01*
X126091371Y-111999411D01*
X125766656Y-109848329D01*
X125500165Y-107666946D01*
X125294459Y-105462547D01*
X125152096Y-103242419D01*
X125075636Y-101013846D01*
X125073207Y-100336712D01*
X128774526Y-100336712D01*
X128810393Y-102282294D01*
X128897935Y-104220943D01*
X129037352Y-106155158D01*
X129228847Y-108087438D01*
X129472621Y-110020283D01*
X129768875Y-111956191D01*
X130117811Y-113897661D01*
X130336816Y-114947271D01*
X130586454Y-115982048D01*
X130867049Y-117003927D01*
X131178922Y-118014843D01*
X131522397Y-119016730D01*
X131897795Y-120011523D01*
X132305440Y-121001156D01*
X132745653Y-121987566D01*
X133005121Y-122519380D01*
X133280845Y-123030208D01*
X133572393Y-123520266D01*
X133879331Y-123989771D01*
X134201229Y-124438938D01*
X134537654Y-124867983D01*
X134888174Y-125277123D01*
X135252357Y-125666573D01*
X135629770Y-126036550D01*
X136019983Y-126387269D01*
X136422563Y-126718946D01*
X136837077Y-127031798D01*
X137263095Y-127326041D01*
X137700183Y-127601890D01*
X138147909Y-127859561D01*
X138605843Y-128099271D01*
X139073551Y-128321236D01*
X139550601Y-128525671D01*
X140036562Y-128712793D01*
X140531001Y-128882818D01*
X141033487Y-129035961D01*
X141543587Y-129172439D01*
X142060870Y-129292468D01*
X142584903Y-129396263D01*
X143115254Y-129484041D01*
X143651491Y-129556018D01*
X144739895Y-129653432D01*
X145846660Y-129690233D01*
X146968328Y-129668150D01*
X148357816Y-129591108D01*
X149741358Y-129485033D01*
X151118733Y-129349837D01*
X152489719Y-129185427D01*
X153854095Y-128991714D01*
X155211638Y-128768607D01*
X156562128Y-128516015D01*
X157905343Y-128233847D01*
X159241060Y-127922012D01*
X160569058Y-127580421D01*
X161889116Y-127208981D01*
X163201012Y-126807603D01*
X164504523Y-126376196D01*
X165799429Y-125914669D01*
X167085507Y-125422931D01*
X168362536Y-124900892D01*
X169207400Y-124528822D01*
X170054461Y-124123670D01*
X170899224Y-123685968D01*
X171737196Y-123216252D01*
X172563881Y-122715056D01*
X173374786Y-122182913D01*
X174165417Y-121620358D01*
X174931278Y-121027925D01*
X175667877Y-120406148D01*
X176370717Y-119755561D01*
X177035306Y-119076699D01*
X177657149Y-118370094D01*
X178231751Y-117636282D01*
X178754618Y-116875797D01*
X179221256Y-116089172D01*
X179627171Y-115276942D01*
X179786332Y-114902836D01*
X179926145Y-114527288D01*
X180047014Y-114150229D01*
X180149342Y-113771588D01*
X180233531Y-113391293D01*
X180299984Y-113009276D01*
X180349106Y-112625465D01*
X180381298Y-112239790D01*
X180396964Y-111852180D01*
X180396507Y-111462565D01*
X180380331Y-111070874D01*
X180348837Y-110677036D01*
X180302430Y-110280982D01*
X180241512Y-109882640D01*
X180166486Y-109481941D01*
X180077755Y-109078813D01*
X178206620Y-101126494D01*
X177636292Y-101781679D01*
X177048051Y-102396219D01*
X176442771Y-102973162D01*
X175821323Y-103515555D01*
X175184578Y-104026449D01*
X174533408Y-104508890D01*
X173868684Y-104965927D01*
X173191279Y-105400608D01*
X172502063Y-105815982D01*
X171801909Y-106215097D01*
X170372272Y-106976743D01*
X168909341Y-107709931D01*
X167420088Y-108439049D01*
X167455461Y-108828975D01*
X167478486Y-109216744D01*
X167488340Y-109601812D01*
X167484202Y-109983636D01*
X167465251Y-110361671D01*
X167430666Y-110735373D01*
X167379626Y-111104197D01*
X167311309Y-111467601D01*
X167224894Y-111825038D01*
X167119559Y-112175966D01*
X166994484Y-112519841D01*
X166848847Y-112856117D01*
X166681826Y-113184251D01*
X166492601Y-113503699D01*
X166280351Y-113813916D01*
X166044253Y-114114359D01*
X166040811Y-114114340D01*
X163842918Y-116731865D01*
X163826145Y-116749911D01*
X163806884Y-116767276D01*
X163785288Y-116783948D01*
X163761510Y-116799911D01*
X163708013Y-116829654D01*
X163647614Y-116856389D01*
X163581531Y-116880000D01*
X163510985Y-116900371D01*
X163437193Y-116917386D01*
X163361376Y-116930930D01*
X163284753Y-116940887D01*
X163208543Y-116947140D01*
X163133966Y-116949575D01*
X163062240Y-116948074D01*
X162994585Y-116942523D01*
X162932221Y-116932805D01*
X162876366Y-116918804D01*
X162851261Y-116910162D01*
X162828240Y-116900405D01*
X162809109Y-116890767D01*
X162789180Y-116879328D01*
X162747289Y-116851418D01*
X162703282Y-116817422D01*
X162657874Y-116778085D01*
X162611780Y-116734153D01*
X162565717Y-116686372D01*
X162520400Y-116635487D01*
X162476544Y-116582244D01*
X162434864Y-116527389D01*
X162396076Y-116471668D01*
X162360896Y-116415825D01*
X162330039Y-116360608D01*
X162304220Y-116306760D01*
X162293424Y-116280584D01*
X162284155Y-116255029D01*
X162276504Y-116230190D01*
X162270560Y-116206160D01*
X162266412Y-116183032D01*
X162264149Y-116160898D01*
X162262777Y-116055858D01*
X162268650Y-115948732D01*
X162281275Y-115840014D01*
X162300157Y-115730197D01*
X162324804Y-115619776D01*
X162354720Y-115509244D01*
X162389414Y-115399095D01*
X162428390Y-115289823D01*
X162471154Y-115181921D01*
X162517215Y-115075883D01*
X162566076Y-114972203D01*
X162617245Y-114871375D01*
X162670228Y-114773893D01*
X162724530Y-114680249D01*
X162779659Y-114590939D01*
X162835121Y-114506456D01*
X164001141Y-112779785D01*
X164127243Y-112585431D01*
X164246211Y-112386779D01*
X164357924Y-112183885D01*
X164462260Y-111976804D01*
X164559099Y-111765592D01*
X164648320Y-111550303D01*
X164729802Y-111330994D01*
X164803423Y-111107719D01*
X164869064Y-110880534D01*
X164926603Y-110649495D01*
X164975920Y-110414657D01*
X165016893Y-110176076D01*
X165049401Y-109933807D01*
X165073323Y-109687904D01*
X165088540Y-109438425D01*
X165094929Y-109185424D01*
X164626924Y-109196636D01*
X164166617Y-109224178D01*
X163713324Y-109266644D01*
X163266360Y-109322628D01*
X162825038Y-109390725D01*
X162388675Y-109469529D01*
X161528080Y-109653634D01*
X160679094Y-109863697D01*
X159836234Y-110088473D01*
X158146968Y-110537177D01*
X157655169Y-110672233D01*
X157180673Y-110827271D01*
X156723448Y-111002442D01*
X156283465Y-111197899D01*
X155860694Y-111413791D01*
X155455104Y-111650270D01*
X155066664Y-111907488D01*
X154695346Y-112185596D01*
X154341117Y-112484743D01*
X154003949Y-112805083D01*
X153683811Y-113146765D01*
X153380673Y-113509942D01*
X153094504Y-113894764D01*
X152825275Y-114301382D01*
X152572955Y-114729948D01*
X152337513Y-115180612D01*
X152157028Y-115536839D01*
X151968234Y-115888643D01*
X151771933Y-116236435D01*
X151568926Y-116580630D01*
X151145999Y-117259881D01*
X150705860Y-117929699D01*
X149799584Y-119254261D01*
X149346265Y-119915614D01*
X148901371Y-120580756D01*
X148855947Y-120646447D01*
X148808120Y-120708725D01*
X148758030Y-120767587D01*
X148705811Y-120823025D01*
X148651603Y-120875035D01*
X148595541Y-120923610D01*
X148537764Y-120968746D01*
X148478409Y-121010435D01*
X148417612Y-121048674D01*
X148355512Y-121083455D01*
X148292246Y-121114774D01*
X148227950Y-121142624D01*
X148162763Y-121167001D01*
X148096821Y-121187897D01*
X148030262Y-121205309D01*
X147963223Y-121219229D01*
X147895842Y-121229653D01*
X147828255Y-121236574D01*
X147760600Y-121239987D01*
X147693015Y-121239887D01*
X147625636Y-121236267D01*
X147558601Y-121229122D01*
X147492047Y-121218446D01*
X147426111Y-121204234D01*
X147360932Y-121186480D01*
X147296645Y-121165178D01*
X147233389Y-121140323D01*
X147171300Y-121111909D01*
X147110517Y-121079930D01*
X147051175Y-121044381D01*
X146993414Y-121005255D01*
X146937369Y-120962548D01*
X146874560Y-120909965D01*
X146815123Y-120856080D01*
X146759063Y-120800941D01*
X146706386Y-120744598D01*
X146657097Y-120687098D01*
X146611202Y-120628491D01*
X146568706Y-120568824D01*
X146529616Y-120508147D01*
X146493937Y-120446507D01*
X146461675Y-120383953D01*
X146432835Y-120320534D01*
X146407424Y-120256298D01*
X146385446Y-120191294D01*
X146366907Y-120125570D01*
X146351813Y-120059174D01*
X146340170Y-119992156D01*
X146331984Y-119924563D01*
X146327259Y-119856444D01*
X146326002Y-119787848D01*
X146328219Y-119718823D01*
X146333914Y-119649418D01*
X146343095Y-119579680D01*
X146355765Y-119509660D01*
X146371932Y-119439404D01*
X146391600Y-119368962D01*
X146414776Y-119298381D01*
X146441465Y-119227712D01*
X146471673Y-119157001D01*
X146505405Y-119086298D01*
X146542667Y-119015651D01*
X146583465Y-118945109D01*
X146627804Y-118874720D01*
X150287520Y-113281963D01*
X151209329Y-111555287D01*
X147116226Y-111765102D01*
X146698086Y-111829308D01*
X146299645Y-111903450D01*
X145920185Y-111986841D01*
X145558988Y-112078796D01*
X145215338Y-112178628D01*
X144888517Y-112285652D01*
X144282493Y-112518532D01*
X143735177Y-112771948D01*
X143240830Y-113040415D01*
X142793713Y-113318444D01*
X142388088Y-113600549D01*
X142018216Y-113881244D01*
X141678359Y-114155041D01*
X141065730Y-114659995D01*
X140781481Y-114880179D01*
X140504292Y-115071517D01*
X140228422Y-115228523D01*
X139948134Y-115345710D01*
X139890337Y-115362891D01*
X139832446Y-115375212D01*
X139774547Y-115382850D01*
X139716728Y-115385985D01*
X139659075Y-115384794D01*
X139601675Y-115379456D01*
X139544615Y-115370149D01*
X139487982Y-115357051D01*
X139431863Y-115340340D01*
X139376345Y-115320195D01*
X139321514Y-115296795D01*
X139267459Y-115270316D01*
X139214265Y-115240937D01*
X139162019Y-115208838D01*
X139110809Y-115174195D01*
X139060721Y-115137187D01*
X138964260Y-115056789D01*
X138873331Y-114969071D01*
X138788630Y-114875457D01*
X138710851Y-114777375D01*
X138640691Y-114676249D01*
X138578844Y-114573506D01*
X138526006Y-114470571D01*
X138482872Y-114368871D01*
X138463698Y-114314681D01*
X138447420Y-114260469D01*
X138433991Y-114206255D01*
X138423364Y-114152057D01*
X138415494Y-114097895D01*
X138410333Y-114043787D01*
X138407835Y-113989751D01*
X138407954Y-113935808D01*
X138410641Y-113881975D01*
X138415852Y-113828272D01*
X138423539Y-113774718D01*
X138433656Y-113721331D01*
X138460993Y-113615136D01*
X138497490Y-113509837D01*
X138542774Y-113405586D01*
X138596472Y-113302534D01*
X138658212Y-113200833D01*
X138727620Y-113100633D01*
X138804324Y-113002085D01*
X138887950Y-112905341D01*
X138978127Y-112810553D01*
X139074481Y-112717870D01*
X139819682Y-112043665D01*
X140202427Y-111711331D01*
X140592573Y-111385301D01*
X140990600Y-111067916D01*
X141396985Y-110761521D01*
X141812208Y-110468457D01*
X142236747Y-110191068D01*
X142671081Y-109931696D01*
X143115688Y-109692685D01*
X143571047Y-109476377D01*
X144037637Y-109285115D01*
X144515937Y-109121241D01*
X145006424Y-108987100D01*
X145256388Y-108931911D01*
X145509578Y-108885033D01*
X145766055Y-108846760D01*
X146025877Y-108817384D01*
X147585782Y-108661938D01*
X149130531Y-108487024D01*
X150663027Y-108288650D01*
X152186171Y-108062827D01*
X153702866Y-107805563D01*
X155216014Y-107512869D01*
X156728517Y-107180754D01*
X158243276Y-106805227D01*
X163722533Y-105367482D01*
X163927450Y-105309641D01*
X164126200Y-105245915D01*
X164224157Y-105211316D01*
X164321645Y-105174610D01*
X164419022Y-105135587D01*
X164516646Y-105094035D01*
X164614875Y-105049741D01*
X164714066Y-105002496D01*
X164814578Y-104952086D01*
X164916767Y-104898300D01*
X165020992Y-104840927D01*
X165127610Y-104779755D01*
X165349457Y-104645169D01*
X162985603Y-103422827D01*
X162408949Y-103136286D01*
X161827216Y-102857927D01*
X161235004Y-102588033D01*
X160626910Y-102326886D01*
X160228036Y-102170906D01*
X159832042Y-102033773D01*
X159050385Y-101811949D01*
X158285315Y-101653217D01*
X157540207Y-101549379D01*
X156818437Y-101492237D01*
X156123380Y-101473594D01*
X155458414Y-101485253D01*
X154826913Y-101519015D01*
X152703078Y-101711149D01*
X152289540Y-101732466D01*
X151929723Y-101726701D01*
X151627001Y-101685657D01*
X151498105Y-101649343D01*
X151384750Y-101601135D01*
X151356715Y-101585257D01*
X151328752Y-101566735D01*
X151300916Y-101545706D01*
X151273259Y-101522308D01*
X151245833Y-101496678D01*
X151218692Y-101468953D01*
X151165476Y-101407768D01*
X151114033Y-101339851D01*
X151064787Y-101266302D01*
X151018161Y-101188217D01*
X150974578Y-101106697D01*
X150934462Y-101022839D01*
X150898236Y-100937741D01*
X150866322Y-100852502D01*
X150839145Y-100768220D01*
X150817127Y-100685994D01*
X150800692Y-100606922D01*
X150790263Y-100532102D01*
X150787433Y-100496630D01*
X150786263Y-100462634D01*
X151059550Y-100302352D01*
X151337529Y-100154052D01*
X151619972Y-100017381D01*
X151906652Y-99891985D01*
X152197343Y-99777513D01*
X152491818Y-99673612D01*
X152789850Y-99579929D01*
X153091212Y-99496111D01*
X153395678Y-99421805D01*
X153703021Y-99356660D01*
X154013015Y-99300321D01*
X154325431Y-99252437D01*
X154640045Y-99212655D01*
X154956628Y-99180623D01*
X155274955Y-99155986D01*
X155594798Y-99138393D01*
X156306277Y-99124594D01*
X156995441Y-99146423D01*
X157663254Y-99201015D01*
X158310678Y-99285503D01*
X158938676Y-99397023D01*
X159548211Y-99532709D01*
X160715746Y-99865114D01*
X161820985Y-100259794D01*
X162871632Y-100693825D01*
X164839967Y-101588237D01*
X165773063Y-102002768D01*
X166682382Y-102364951D01*
X167575628Y-102651858D01*
X168018632Y-102759921D01*
X168460506Y-102840567D01*
X168902214Y-102890932D01*
X169344719Y-102908151D01*
X169788983Y-102889358D01*
X170235971Y-102831686D01*
X170686643Y-102732271D01*
X171141965Y-102588247D01*
X171602898Y-102396748D01*
X172070405Y-102154909D01*
X172456205Y-101922930D01*
X172825898Y-101675026D01*
X173180061Y-101411875D01*
X173519276Y-101134157D01*
X173844121Y-100842554D01*
X174155175Y-100537745D01*
X174453019Y-100220410D01*
X174738232Y-99891230D01*
X175011392Y-99550885D01*
X175273080Y-99200055D01*
X175523875Y-98839420D01*
X175745690Y-98498362D01*
X181492650Y-98498362D01*
X181500080Y-98739801D01*
X181517180Y-98983159D01*
X181544097Y-99228338D01*
X181580975Y-99475241D01*
X181627958Y-99723769D01*
X181685193Y-99973823D01*
X181752823Y-100225306D01*
X184545363Y-109909793D01*
X184962148Y-109720946D01*
X185359751Y-109519446D01*
X185736696Y-109307083D01*
X186094546Y-109084271D01*
X186434861Y-108851422D01*
X186759205Y-108608950D01*
X187069138Y-108357267D01*
X187366224Y-108096787D01*
X187652023Y-107827924D01*
X187928098Y-107551089D01*
X188196012Y-107266697D01*
X188457325Y-106975161D01*
X188966398Y-106372307D01*
X189467814Y-105745833D01*
X189946064Y-105014663D01*
X190382642Y-104264045D01*
X190777793Y-103495249D01*
X191131765Y-102709543D01*
X191444805Y-101908198D01*
X191717159Y-101092483D01*
X191949074Y-100263668D01*
X192140798Y-99423023D01*
X192292577Y-98571817D01*
X192404658Y-97711320D01*
X192477288Y-96842801D01*
X192510714Y-95967531D01*
X192505183Y-95086779D01*
X192460942Y-94201815D01*
X192378237Y-93313908D01*
X192257316Y-92424329D01*
X192234134Y-92295979D01*
X192205687Y-92171761D01*
X192171708Y-92052098D01*
X192131930Y-91937413D01*
X192086086Y-91828129D01*
X192033909Y-91724669D01*
X191975131Y-91627457D01*
X191909486Y-91536916D01*
X191874005Y-91494280D01*
X191836707Y-91453470D01*
X191797558Y-91414539D01*
X191756526Y-91377540D01*
X191713576Y-91342527D01*
X191668676Y-91309552D01*
X191621792Y-91278667D01*
X191572891Y-91249927D01*
X191521939Y-91223383D01*
X191468903Y-91199089D01*
X191413750Y-91177097D01*
X191356446Y-91157461D01*
X191296957Y-91140234D01*
X191235251Y-91125467D01*
X191171294Y-91113215D01*
X191105053Y-91103530D01*
X190606596Y-91055602D01*
X190114835Y-91036439D01*
X189629936Y-91045299D01*
X189152066Y-91081442D01*
X188681392Y-91144128D01*
X188218078Y-91232617D01*
X187762292Y-91346166D01*
X187314200Y-91484036D01*
X186873967Y-91645485D01*
X186441761Y-91829774D01*
X186017748Y-92036162D01*
X185602093Y-92263907D01*
X185194964Y-92512270D01*
X184796526Y-92780510D01*
X184406946Y-93067885D01*
X184026389Y-93373655D01*
X183657889Y-93701065D01*
X183314168Y-94045585D01*
X182996385Y-94406429D01*
X182705698Y-94782812D01*
X182443267Y-95173948D01*
X182210250Y-95579049D01*
X182105134Y-95786592D01*
X182007807Y-95997332D01*
X181918412Y-96211170D01*
X181837095Y-96428009D01*
X181764001Y-96647749D01*
X181699275Y-96870294D01*
X181643061Y-97095544D01*
X181595504Y-97323402D01*
X181556750Y-97553769D01*
X181526942Y-97786546D01*
X181506226Y-98021637D01*
X181494748Y-98258941D01*
X181492650Y-98498362D01*
X175745690Y-98498362D01*
X175764356Y-98469661D01*
X175995103Y-98091457D01*
X176216695Y-97705488D01*
X176429712Y-97312436D01*
X176634732Y-96912980D01*
X176710981Y-96751670D01*
X176775863Y-96593757D01*
X176829297Y-96438766D01*
X176871204Y-96286223D01*
X176901502Y-96135656D01*
X176920110Y-95986590D01*
X176926949Y-95838552D01*
X176921938Y-95691068D01*
X176904995Y-95543665D01*
X176876041Y-95395869D01*
X176834994Y-95247206D01*
X176781775Y-95097204D01*
X176716302Y-94945387D01*
X176638495Y-94791283D01*
X176548274Y-94634419D01*
X176445557Y-94474319D01*
X172593224Y-88740536D01*
X172160411Y-88067705D01*
X171758292Y-87383330D01*
X171386686Y-86688043D01*
X171045411Y-85982472D01*
X170734287Y-85267248D01*
X170453131Y-84542999D01*
X170201763Y-83810357D01*
X169980001Y-83069951D01*
X169787663Y-82322410D01*
X169624568Y-81568364D01*
X169490535Y-80808444D01*
X169385383Y-80043278D01*
X169308929Y-79273498D01*
X169260993Y-78499732D01*
X169241393Y-77722610D01*
X169246004Y-77302349D01*
X172947962Y-77302349D01*
X173007662Y-78477358D01*
X173138329Y-79625532D01*
X173337660Y-80748514D01*
X173603352Y-81847947D01*
X173933102Y-82925472D01*
X174324609Y-83982733D01*
X174775570Y-85021371D01*
X175283682Y-86043030D01*
X175846642Y-87049352D01*
X176462149Y-88041979D01*
X177127899Y-89022555D01*
X177841590Y-89992720D01*
X178600920Y-90954119D01*
X179403585Y-91908393D01*
X180817252Y-90611666D01*
X181341921Y-90150249D01*
X181874640Y-89721710D01*
X182414834Y-89325954D01*
X182961926Y-88962889D01*
X183515342Y-88632420D01*
X184074505Y-88334454D01*
X184638841Y-88068896D01*
X185207772Y-87835653D01*
X185780725Y-87634631D01*
X186357122Y-87465736D01*
X186936389Y-87328874D01*
X187517949Y-87223952D01*
X188101228Y-87150875D01*
X188685649Y-87109550D01*
X189270637Y-87099883D01*
X189855616Y-87121779D01*
X190440010Y-87175146D01*
X191023245Y-87259890D01*
X191604744Y-87375915D01*
X192183931Y-87523130D01*
X192760231Y-87701439D01*
X193333069Y-87910749D01*
X193901868Y-88150967D01*
X194466054Y-88421997D01*
X195025050Y-88723747D01*
X195578280Y-89056123D01*
X196125170Y-89419030D01*
X196665143Y-89812375D01*
X197197624Y-90236065D01*
X197722037Y-90690004D01*
X198237807Y-91174100D01*
X198744358Y-91688258D01*
X198747804Y-91684817D01*
X204368084Y-97611217D01*
X204756276Y-97426602D01*
X205136427Y-97227925D01*
X205504365Y-97015876D01*
X205855918Y-96791145D01*
X206186914Y-96554423D01*
X206493182Y-96306399D01*
X206770549Y-96047764D01*
X206897091Y-95914684D01*
X207014843Y-95779209D01*
X207123285Y-95641427D01*
X207221893Y-95501423D01*
X207310148Y-95359284D01*
X207387528Y-95215097D01*
X207453510Y-95068947D01*
X207507574Y-94920921D01*
X207549198Y-94771105D01*
X207577861Y-94619585D01*
X207593040Y-94466449D01*
X207594216Y-94311781D01*
X207580865Y-94155668D01*
X207552467Y-93998196D01*
X207508501Y-93839453D01*
X207448444Y-93679524D01*
X207371775Y-93518495D01*
X207277973Y-93356452D01*
X206067237Y-91444047D01*
X197568028Y-80629997D01*
X197341641Y-80335725D01*
X197122227Y-80041614D01*
X196692224Y-79457099D01*
X196475591Y-79168308D01*
X196253838Y-78882903D01*
X196023943Y-78601690D01*
X195904998Y-78462907D01*
X195782884Y-78325475D01*
X195372941Y-77876066D01*
X194958565Y-77433065D01*
X194536289Y-76999979D01*
X194321104Y-76788251D01*
X194102645Y-76580316D01*
X193880478Y-76376614D01*
X193654169Y-76177583D01*
X193423285Y-75983660D01*
X193187393Y-75795285D01*
X192946059Y-75612896D01*
X192698851Y-75436930D01*
X192445334Y-75267828D01*
X192185077Y-75106026D01*
X191573178Y-74768424D01*
X190947559Y-74477670D01*
X190310463Y-74233371D01*
X189664131Y-74035133D01*
X189010806Y-73882564D01*
X188352730Y-73775270D01*
X187692144Y-73712859D01*
X187031291Y-73694937D01*
X186372413Y-73721112D01*
X185717753Y-73790990D01*
X185069551Y-73904179D01*
X184430051Y-74060285D01*
X183801495Y-74258916D01*
X183186124Y-74499678D01*
X182586181Y-74782179D01*
X182003907Y-75106026D01*
X181900383Y-75207663D01*
X181795562Y-75302457D01*
X181689480Y-75390597D01*
X181582169Y-75472275D01*
X181473664Y-75547679D01*
X181363999Y-75617001D01*
X181253208Y-75680430D01*
X181141325Y-75738157D01*
X181028383Y-75790372D01*
X180914418Y-75837265D01*
X180799463Y-75879027D01*
X180683552Y-75915847D01*
X180448997Y-75975423D01*
X180211026Y-76017516D01*
X179969911Y-76043647D01*
X179725924Y-76055338D01*
X179479337Y-76054110D01*
X179230422Y-76041485D01*
X178979452Y-76018985D01*
X178726697Y-75988131D01*
X178472431Y-75950446D01*
X178216925Y-75907449D01*
X175644118Y-75461164D01*
X175003334Y-75336493D01*
X174359004Y-75198359D01*
X173708868Y-75042650D01*
X173050672Y-74865256D01*
X172961531Y-76098862D01*
X172947962Y-77302349D01*
X169246004Y-77302349D01*
X169249948Y-76942762D01*
X169255772Y-76388418D01*
X169241725Y-75837097D01*
X169206959Y-75288598D01*
X169150629Y-74742718D01*
X169071888Y-74199257D01*
X169023848Y-73928371D01*
X168969889Y-73658013D01*
X168909904Y-73388160D01*
X168843786Y-73118786D01*
X168771431Y-72849864D01*
X168692733Y-72581372D01*
X167700232Y-72921581D01*
X167207672Y-73074540D01*
X166716962Y-73214792D01*
X166227642Y-73341380D01*
X165739254Y-73453346D01*
X165251339Y-73549733D01*
X164763440Y-73629583D01*
X164275097Y-73691941D01*
X163785853Y-73735847D01*
X163295248Y-73760346D01*
X162802824Y-73764479D01*
X162308123Y-73747289D01*
X161810686Y-73707820D01*
X161310055Y-73645113D01*
X160805770Y-73558212D01*
X159460890Y-73293363D01*
X159053854Y-73128526D01*
X158644661Y-72992514D01*
X158234219Y-72885211D01*
X157823434Y-72806502D01*
X157413214Y-72756269D01*
X157004464Y-72734398D01*
X156598093Y-72740772D01*
X156195007Y-72775277D01*
X155796113Y-72837794D01*
X155402317Y-72928210D01*
X155014528Y-73046408D01*
X154633651Y-73192272D01*
X154260594Y-73365686D01*
X153896264Y-73566534D01*
X153541566Y-73794701D01*
X153197410Y-74050071D01*
X153114414Y-74084891D01*
X153033823Y-74122860D01*
X152955744Y-74163882D01*
X152880283Y-74207862D01*
X152807549Y-74254704D01*
X152737647Y-74304312D01*
X152670685Y-74356590D01*
X152606770Y-74411443D01*
X152546009Y-74468774D01*
X152488509Y-74528489D01*
X152434377Y-74590492D01*
X152383721Y-74654686D01*
X152336647Y-74720976D01*
X152293262Y-74789266D01*
X152253674Y-74859461D01*
X152217989Y-74931465D01*
X152186315Y-75005182D01*
X152158759Y-75080516D01*
X152135427Y-75157372D01*
X152116427Y-75235653D01*
X152101866Y-75315265D01*
X152091851Y-75396111D01*
X152086489Y-75478096D01*
X152085888Y-75561124D01*
X152090153Y-75645099D01*
X152099392Y-75729926D01*
X152113713Y-75815508D01*
X152133222Y-75901750D01*
X152158027Y-75988557D01*
X152188234Y-76075832D01*
X152223951Y-76163480D01*
X152265284Y-76251406D01*
X154580125Y-80905162D01*
X154761736Y-81291589D01*
X154921813Y-81676946D01*
X155059781Y-82061216D01*
X155175066Y-82444377D01*
X155267093Y-82826409D01*
X155335288Y-83207292D01*
X155379077Y-83587006D01*
X155397886Y-83965532D01*
X155391140Y-84342848D01*
X155358264Y-84718935D01*
X155298684Y-85093772D01*
X155211826Y-85467340D01*
X155097116Y-85839618D01*
X154953978Y-86210587D01*
X154781840Y-86580225D01*
X154580125Y-86948513D01*
X154560323Y-86980591D01*
X154538399Y-87012906D01*
X154488647Y-87077827D01*
X154431790Y-87142437D01*
X154368752Y-87205892D01*
X154300453Y-87267351D01*
X154227816Y-87325974D01*
X154151763Y-87380919D01*
X154073217Y-87431345D01*
X153993098Y-87476409D01*
X153912329Y-87515272D01*
X153871989Y-87532114D01*
X153831832Y-87547090D01*
X153791974Y-87560095D01*
X153752530Y-87571024D01*
X153713614Y-87579771D01*
X153675343Y-87586231D01*
X153637831Y-87590299D01*
X153601195Y-87591870D01*
X153565548Y-87590839D01*
X153531006Y-87587100D01*
X153497685Y-87580549D01*
X153465700Y-87571079D01*
X153337297Y-87517290D01*
X153224918Y-87451700D01*
X153127636Y-87374801D01*
X153044526Y-87287086D01*
X152974663Y-87189046D01*
X152917119Y-87081176D01*
X152870970Y-86963967D01*
X152835290Y-86837911D01*
X152809152Y-86703502D01*
X152791632Y-86561231D01*
X152781802Y-86411592D01*
X152778738Y-86255076D01*
X152789203Y-85923386D01*
X152815620Y-85570102D01*
X152886682Y-84814508D01*
X152916515Y-84420079D01*
X152932673Y-84019816D01*
X152927750Y-83617658D01*
X152915069Y-83417099D01*
X152894340Y-83217545D01*
X152864638Y-83019487D01*
X152825036Y-82823419D01*
X152774609Y-82629831D01*
X152712432Y-82439217D01*
X152570810Y-82064645D01*
X152419953Y-81696315D01*
X152260702Y-81333537D01*
X152093898Y-80975622D01*
X151740998Y-80271616D01*
X151367984Y-79578775D01*
X150588542Y-78204500D01*
X150195577Y-77512022D01*
X149809423Y-76808621D01*
X149555722Y-77003020D01*
X149314244Y-77206827D01*
X149084717Y-77419773D01*
X148866869Y-77641592D01*
X148660429Y-77872016D01*
X148465123Y-78110780D01*
X148280680Y-78357614D01*
X148106828Y-78612254D01*
X147943295Y-78874431D01*
X147789809Y-79143878D01*
X147646097Y-79420329D01*
X147511887Y-79703516D01*
X147386909Y-79993173D01*
X147270888Y-80289032D01*
X147163554Y-80590826D01*
X147064634Y-80898289D01*
X145891736Y-84736866D01*
X145686689Y-85332206D01*
X145442689Y-85908662D01*
X145165043Y-86460893D01*
X144859056Y-86983558D01*
X144530032Y-87471318D01*
X144183278Y-87918829D01*
X143824100Y-88320753D01*
X143457802Y-88671749D01*
X143089690Y-88966475D01*
X142906612Y-89091067D01*
X142725070Y-89199590D01*
X142545728Y-89291375D01*
X142369247Y-89365755D01*
X142196293Y-89422061D01*
X142027527Y-89459628D01*
X141863613Y-89477786D01*
X141705215Y-89475868D01*
X141552995Y-89453207D01*
X141407616Y-89409135D01*
X141269743Y-89342985D01*
X141140037Y-89254088D01*
X141019162Y-89141778D01*
X140907782Y-89005387D01*
X140883013Y-88968365D01*
X140860296Y-88929611D01*
X140839631Y-88889247D01*
X140821013Y-88847396D01*
X140804441Y-88804179D01*
X140789912Y-88759719D01*
X140777424Y-88714138D01*
X140766974Y-88667558D01*
X140752177Y-88571889D01*
X140745503Y-88473692D01*
X140746930Y-88373942D01*
X140756440Y-88273618D01*
X140774010Y-88173697D01*
X140799622Y-88075156D01*
X140833256Y-87978974D01*
X140853074Y-87932072D01*
X140874890Y-87886127D01*
X140898702Y-87841259D01*
X140924506Y-87797593D01*
X140952300Y-87755248D01*
X140982082Y-87714349D01*
X141013849Y-87675016D01*
X141047599Y-87637373D01*
X141083329Y-87601541D01*
X141121036Y-87567643D01*
X141427406Y-87291964D01*
X141713652Y-87006763D01*
X141980450Y-86712190D01*
X142228474Y-86408397D01*
X142458401Y-86095534D01*
X142670904Y-85773753D01*
X142866660Y-85443206D01*
X143046343Y-85104042D01*
X143210628Y-84756414D01*
X143360191Y-84400473D01*
X143495707Y-84036370D01*
X143617851Y-83664255D01*
X143727298Y-83284281D01*
X143824723Y-82896598D01*
X143910801Y-82501357D01*
X143986208Y-82098710D01*
X144096419Y-81532776D01*
X144229585Y-80975619D01*
X144385525Y-80427874D01*
X144564058Y-79890175D01*
X144765001Y-79363158D01*
X144988174Y-78847457D01*
X145233396Y-78343708D01*
X145500484Y-77852545D01*
X145789258Y-77374602D01*
X146099536Y-76910515D01*
X146431137Y-76460919D01*
X146783879Y-76026448D01*
X147157581Y-75607738D01*
X147552062Y-75205423D01*
X147967140Y-74820137D01*
X148402633Y-74452517D01*
X148845615Y-74092073D01*
X149277793Y-73731387D01*
X149700621Y-73367961D01*
X150115547Y-72999294D01*
X150524025Y-72622888D01*
X150927504Y-72236244D01*
X151327436Y-71836863D01*
X151725272Y-71422245D01*
X151235664Y-71260946D01*
X150737363Y-71123017D01*
X149718040Y-70915142D01*
X148674018Y-70794361D01*
X147612014Y-70756417D01*
X146538744Y-70797054D01*
X145460924Y-70912012D01*
X144385271Y-71097035D01*
X143318501Y-71347865D01*
X142267329Y-71660245D01*
X141238473Y-72029918D01*
X140238649Y-72452625D01*
X139274572Y-72924109D01*
X138352960Y-73440113D01*
X137480528Y-73996379D01*
X136663992Y-74588650D01*
X135910069Y-75212669D01*
X135465603Y-75625389D01*
X135047211Y-76051960D01*
X134653718Y-76491964D01*
X134283952Y-76944982D01*
X133936738Y-77410596D01*
X133610903Y-77888388D01*
X133305271Y-78377940D01*
X133018669Y-78878833D01*
X132749924Y-79390650D01*
X132497862Y-79912972D01*
X132261307Y-80445381D01*
X132039087Y-80987459D01*
X131830027Y-81538787D01*
X131632954Y-82098948D01*
X131446694Y-82667524D01*
X131270072Y-83244095D01*
X130745361Y-85100180D01*
X130276999Y-86958845D01*
X129867488Y-88823959D01*
X129519324Y-90699392D01*
X129235007Y-92589013D01*
X129017037Y-94496691D01*
X128867912Y-96426297D01*
X128790132Y-98381698D01*
X128774526Y-100336712D01*
X125073207Y-100336712D01*
X125067638Y-98784114D01*
X125130662Y-96560509D01*
X125267268Y-94350317D01*
X125480015Y-92160823D01*
X125771463Y-89999312D01*
X126144170Y-87873071D01*
X126600698Y-85789384D01*
X127143604Y-83755538D01*
X127775450Y-81778818D01*
X128194857Y-80534448D01*
X128585203Y-79297858D01*
X128948703Y-78064251D01*
X129287576Y-76828830D01*
X129604038Y-75586798D01*
X129900306Y-74333360D01*
X130178596Y-73063717D01*
X130434830Y-71804029D01*
X134128356Y-71804029D01*
X134280723Y-71764100D01*
X134424892Y-71719349D01*
X134561615Y-71670114D01*
X134691641Y-71616732D01*
X134815722Y-71559542D01*
X134934609Y-71498879D01*
X135049051Y-71435083D01*
X135159801Y-71368491D01*
X135267608Y-71299440D01*
X135373223Y-71228268D01*
X135580881Y-71080910D01*
X136002928Y-70775595D01*
X136969056Y-70151433D01*
X137978761Y-69593789D01*
X139027655Y-69101464D01*
X140111349Y-68673258D01*
X141225456Y-68307972D01*
X142365586Y-68004406D01*
X143527352Y-67761363D01*
X144706364Y-67577643D01*
X145898234Y-67452046D01*
X147098574Y-67383374D01*
X148302995Y-67370426D01*
X149507109Y-67412005D01*
X150706527Y-67506911D01*
X151896860Y-67653945D01*
X153073721Y-67851907D01*
X154232720Y-68099599D01*
X154232720Y-68099597D01*
X156518108Y-68645738D01*
X157650242Y-68905790D01*
X158781570Y-69146090D01*
X159916767Y-69358337D01*
X161060509Y-69534225D01*
X161637045Y-69605941D01*
X162217472Y-69665453D01*
X162802372Y-69711724D01*
X163392331Y-69743717D01*
X163614550Y-69747651D01*
X163837354Y-69741977D01*
X164060520Y-69727566D01*
X164283828Y-69705291D01*
X164507055Y-69676021D01*
X164729979Y-69640631D01*
X165174035Y-69554970D01*
X165614221Y-69455283D01*
X166048765Y-69348541D01*
X166893827Y-69141790D01*
X167016703Y-69111237D01*
X167134527Y-69077015D01*
X167247409Y-69039184D01*
X167355456Y-68997805D01*
X167458778Y-68952936D01*
X167557481Y-68904638D01*
X167651675Y-68852970D01*
X167741468Y-68797993D01*
X167826969Y-68739766D01*
X167908285Y-68678350D01*
X167926285Y-68663307D01*
X172630022Y-68663307D01*
X172644804Y-70304366D01*
X173059262Y-70548870D01*
X173494609Y-70776113D01*
X173948034Y-70985116D01*
X174416726Y-71174903D01*
X174897873Y-71344495D01*
X175388664Y-71492916D01*
X175886286Y-71619188D01*
X176387930Y-71722334D01*
X176890783Y-71801376D01*
X177392033Y-71855336D01*
X177888870Y-71883237D01*
X178378482Y-71884102D01*
X178858057Y-71856953D01*
X179324784Y-71800813D01*
X179775851Y-71714704D01*
X180208448Y-71597649D01*
X180208453Y-71594212D01*
X181811999Y-71100578D01*
X182611132Y-70869702D01*
X183411997Y-70655635D01*
X184217216Y-70463012D01*
X185029407Y-70296467D01*
X185438937Y-70224423D01*
X185851192Y-70160637D01*
X186266500Y-70105689D01*
X186685190Y-70060157D01*
X187339142Y-70013143D01*
X187990847Y-69998768D01*
X188638864Y-70017426D01*
X189281752Y-70069508D01*
X189918070Y-70155409D01*
X190546376Y-70275521D01*
X191165231Y-70430236D01*
X191773192Y-70619949D01*
X192368820Y-70845052D01*
X192950672Y-71105939D01*
X193517309Y-71403001D01*
X194067288Y-71736632D01*
X194599170Y-72107225D01*
X195111512Y-72515174D01*
X195602875Y-72960870D01*
X196071816Y-73444708D01*
X198101167Y-75676995D01*
X204106674Y-83116815D01*
X204276469Y-83081857D01*
X204440892Y-83035947D01*
X204600055Y-82979503D01*
X204754069Y-82912938D01*
X204903045Y-82836670D01*
X205047093Y-82751113D01*
X205186323Y-82656684D01*
X205320849Y-82553797D01*
X205450778Y-82442869D01*
X205576224Y-82324315D01*
X205697296Y-82198552D01*
X205814106Y-82065994D01*
X205926764Y-81927057D01*
X206035381Y-81782157D01*
X206140069Y-81631710D01*
X206240937Y-81476132D01*
X206431659Y-81151242D01*
X206608434Y-80810814D01*
X206772150Y-80458172D01*
X206923694Y-80096643D01*
X207063951Y-79729551D01*
X207193809Y-79360222D01*
X207314154Y-78991981D01*
X207425874Y-78628154D01*
X207557144Y-78227601D01*
X207702408Y-77852746D01*
X207861289Y-77502646D01*
X208033412Y-77176355D01*
X208218400Y-76872928D01*
X208415879Y-76591421D01*
X208625471Y-76330889D01*
X208846800Y-76090387D01*
X209079491Y-75868971D01*
X209323168Y-75665696D01*
X209577455Y-75479617D01*
X209841975Y-75309790D01*
X210116353Y-75155269D01*
X210400213Y-75015111D01*
X210693179Y-74888370D01*
X210994874Y-74774101D01*
X211304923Y-74671361D01*
X211622949Y-74579204D01*
X212281432Y-74422861D01*
X212967314Y-74297514D01*
X213677587Y-74195606D01*
X216702433Y-73871211D01*
X216258722Y-71415349D01*
X212988968Y-71901190D01*
X212180699Y-72011364D01*
X211371019Y-72109929D01*
X210557388Y-72193339D01*
X209737269Y-72258045D01*
X209593215Y-72264184D01*
X209450078Y-72263982D01*
X209308009Y-72257569D01*
X209167159Y-72245074D01*
X209027680Y-72226626D01*
X208889722Y-72202354D01*
X208618977Y-72136855D01*
X208356131Y-72049610D01*
X208102395Y-71941652D01*
X207858978Y-71814014D01*
X207627088Y-71667729D01*
X207407936Y-71503829D01*
X207202730Y-71323348D01*
X207012680Y-71127317D01*
X206838995Y-70916771D01*
X206682884Y-70692743D01*
X206545556Y-70456264D01*
X206428221Y-70208368D01*
X206377429Y-70080461D01*
X206332088Y-69950087D01*
X206266066Y-69713242D01*
X206218918Y-69469479D01*
X206190654Y-69220506D01*
X206181284Y-68968032D01*
X206190818Y-68713763D01*
X206219267Y-68459410D01*
X206266640Y-68206678D01*
X206332948Y-67957277D01*
X206418200Y-67712915D01*
X206522407Y-67475299D01*
X206645579Y-67246137D01*
X206787725Y-67027138D01*
X206948857Y-66820010D01*
X207036545Y-66721431D01*
X207128983Y-66626460D01*
X207226173Y-66535311D01*
X207328114Y-66448197D01*
X207434810Y-66365332D01*
X207546261Y-66286929D01*
X208464926Y-65687494D01*
X209389233Y-65111398D01*
X210319022Y-64553923D01*
X211254131Y-64010355D01*
X215044544Y-61880825D01*
X213280034Y-59232347D01*
X203931256Y-62400202D01*
X203780958Y-62447715D01*
X203630677Y-62488399D01*
X203480529Y-62522316D01*
X203330632Y-62549529D01*
X203181102Y-62570102D01*
X203032058Y-62584096D01*
X202735892Y-62592605D01*
X202443073Y-62575558D01*
X202154536Y-62533460D01*
X201871218Y-62466815D01*
X201594058Y-62376126D01*
X201323992Y-62261897D01*
X201061957Y-62124633D01*
X200808890Y-61964837D01*
X200565729Y-61783013D01*
X200333411Y-61579664D01*
X200112872Y-61355296D01*
X199905050Y-61110410D01*
X199710883Y-60845512D01*
X199588124Y-60650152D01*
X199481594Y-60448972D01*
X199391157Y-60242764D01*
X199316676Y-60032319D01*
X199258016Y-59818427D01*
X199215041Y-59601881D01*
X199187614Y-59383470D01*
X199175600Y-59163986D01*
X199178862Y-58944219D01*
X199197265Y-58724962D01*
X199230672Y-58507004D01*
X199278948Y-58291138D01*
X199341956Y-58078153D01*
X199419560Y-57868841D01*
X199511625Y-57663994D01*
X199618013Y-57464401D01*
X202682682Y-52143365D01*
X202731079Y-52054956D01*
X202780126Y-51957023D01*
X202828780Y-51850929D01*
X202875998Y-51738032D01*
X202920737Y-51619694D01*
X202961955Y-51497275D01*
X202998607Y-51372135D01*
X203029651Y-51245634D01*
X203054045Y-51119134D01*
X203070745Y-50993994D01*
X203078708Y-50871575D01*
X203076891Y-50753236D01*
X203071990Y-50696023D01*
X203064252Y-50640340D01*
X203053548Y-50586357D01*
X203039748Y-50534245D01*
X203022720Y-50484173D01*
X203002334Y-50436312D01*
X202978461Y-50390832D01*
X202950969Y-50347902D01*
X202858394Y-50222572D01*
X202762579Y-50104169D01*
X202663589Y-49992125D01*
X202561491Y-49885870D01*
X202456349Y-49784835D01*
X202348230Y-49688450D01*
X202237199Y-49596146D01*
X202123321Y-49507355D01*
X202006661Y-49421505D01*
X201887286Y-49338029D01*
X201765261Y-49256357D01*
X201640650Y-49175919D01*
X201383938Y-49016468D01*
X201117672Y-48855123D01*
X197485474Y-54213993D01*
X197333325Y-54430069D01*
X197174320Y-54639698D01*
X197008655Y-54842801D01*
X196836527Y-55039298D01*
X196658135Y-55229113D01*
X196473674Y-55412165D01*
X196283342Y-55588376D01*
X196087336Y-55757667D01*
X195885853Y-55919961D01*
X195679091Y-56075176D01*
X195250516Y-56364062D01*
X194803188Y-56623694D01*
X194338684Y-56853443D01*
X193858581Y-57052680D01*
X193364456Y-57220773D01*
X192857886Y-57357094D01*
X192340448Y-57461013D01*
X191813719Y-57531900D01*
X191279277Y-57569125D01*
X190738698Y-57572058D01*
X190193559Y-57540070D01*
X189191214Y-57468457D01*
X188195470Y-57435707D01*
X187206961Y-57442145D01*
X186226322Y-57488100D01*
X185254187Y-57573899D01*
X184291193Y-57699869D01*
X183337973Y-57866339D01*
X182395163Y-58073635D01*
X181463397Y-58322085D01*
X180543309Y-58612017D01*
X179635536Y-58943758D01*
X178740712Y-59317635D01*
X177859471Y-59733977D01*
X176992449Y-60193110D01*
X176140280Y-60695362D01*
X175303599Y-61241061D01*
X174951970Y-61485607D01*
X174773883Y-61614758D01*
X174596229Y-61748937D01*
X174420469Y-61888477D01*
X174248065Y-62033711D01*
X174080478Y-62184970D01*
X173919168Y-62342588D01*
X173765598Y-62506897D01*
X173621227Y-62678230D01*
X173487519Y-62856919D01*
X173365932Y-63043296D01*
X173310142Y-63139472D01*
X173257930Y-63237695D01*
X173209479Y-63338006D01*
X173164972Y-63440447D01*
X173124592Y-63545060D01*
X173088521Y-63651885D01*
X173056942Y-63760966D01*
X173030037Y-63872343D01*
X172949491Y-64266648D01*
X172880166Y-64661533D01*
X172821271Y-65057093D01*
X172772014Y-65453423D01*
X172699251Y-66248780D01*
X172655551Y-67048369D01*
X172634584Y-67852956D01*
X172630022Y-68663307D01*
X167926285Y-68663307D01*
X167985524Y-68613802D01*
X168058796Y-68546185D01*
X168128209Y-68475557D01*
X168193870Y-68401979D01*
X168255889Y-68325510D01*
X168314373Y-68246210D01*
X168369431Y-68164138D01*
X168421171Y-68079356D01*
X168469702Y-67991921D01*
X168515132Y-67901896D01*
X168557568Y-67809338D01*
X168597120Y-67714308D01*
X168668005Y-67517072D01*
X168728651Y-67310667D01*
X168779925Y-67095569D01*
X168822695Y-66872259D01*
X168857827Y-66641215D01*
X169340657Y-63409726D01*
X169451187Y-62602862D01*
X169546118Y-61791725D01*
X169619686Y-60973978D01*
X169666126Y-60147283D01*
X169666035Y-59959758D01*
X169651690Y-59771992D01*
X169623267Y-59585112D01*
X169580944Y-59400248D01*
X169524895Y-59218528D01*
X169455298Y-59041080D01*
X169372329Y-58869034D01*
X169276164Y-58703517D01*
X169166980Y-58545659D01*
X169044953Y-58396588D01*
X168910259Y-58257432D01*
X168838217Y-58191926D01*
X168763075Y-58129321D01*
X168684854Y-58069760D01*
X168603577Y-58013383D01*
X168519265Y-57960331D01*
X168431941Y-57910746D01*
X168341627Y-57864769D01*
X168248345Y-57822540D01*
X168152116Y-57784200D01*
X168052964Y-57749892D01*
X165291409Y-56869090D01*
X163901683Y-56448339D01*
X162504057Y-56053748D01*
X161097079Y-55695111D01*
X159679299Y-55382223D01*
X158965904Y-55245996D01*
X158249265Y-55124879D01*
X157529200Y-55020097D01*
X156805527Y-54932874D01*
X155854000Y-54857186D01*
X154906676Y-54834114D01*
X153964854Y-54862021D01*
X153029833Y-54939269D01*
X152102914Y-55064222D01*
X151185397Y-55235242D01*
X150278582Y-55450690D01*
X149383768Y-55708930D01*
X148502255Y-56008324D01*
X147635344Y-56347235D01*
X146784334Y-56724025D01*
X145950526Y-57137056D01*
X145135218Y-57584692D01*
X144339712Y-58065294D01*
X143565307Y-58577225D01*
X142813303Y-59118848D01*
X142118937Y-59667156D01*
X141422959Y-60269415D01*
X140730044Y-60921051D01*
X140044868Y-61617489D01*
X139372107Y-62354154D01*
X138716437Y-63126472D01*
X138082533Y-63929866D01*
X137475070Y-64759763D01*
X136898725Y-65611587D01*
X136358173Y-66480764D01*
X135858090Y-67362718D01*
X135403151Y-68252875D01*
X134998033Y-69146659D01*
X134647410Y-70039496D01*
X134355959Y-70926811D01*
X134128356Y-71804029D01*
X130434830Y-71804029D01*
X130441127Y-71773075D01*
X130609841Y-70999740D01*
X130808141Y-70240156D01*
X131034737Y-69493883D01*
X131288339Y-68760483D01*
X131567657Y-68039519D01*
X131871402Y-67330551D01*
X132198283Y-66633141D01*
X132547011Y-65946850D01*
X132916296Y-65271242D01*
X133304848Y-64605876D01*
X133711377Y-63950316D01*
X134134593Y-63304122D01*
X134573207Y-62666855D01*
X135025929Y-62038079D01*
X135968536Y-60804243D01*
X136749227Y-59862236D01*
X137564825Y-58964946D01*
X138414442Y-58112992D01*
X139297192Y-57306993D01*
X140212189Y-56547570D01*
X141158544Y-55835343D01*
X142135373Y-55170929D01*
X143141787Y-54554951D01*
X144176900Y-53988027D01*
X145239825Y-53470777D01*
X146329676Y-53003821D01*
X146543353Y-52924154D01*
X164836958Y-52924154D01*
X165971027Y-53360699D01*
X167080427Y-53774914D01*
X168158226Y-54197351D01*
X168683108Y-54421201D01*
X169197490Y-54658565D01*
X169700506Y-54913260D01*
X170191287Y-55189107D01*
X170668969Y-55489925D01*
X171132685Y-55819532D01*
X171581567Y-56181748D01*
X172014749Y-56580392D01*
X172431364Y-57019284D01*
X172830547Y-57502242D01*
X174284081Y-56821976D01*
X175710447Y-56112166D01*
X177111823Y-55372608D01*
X178490385Y-54603102D01*
X179848308Y-53803446D01*
X181187770Y-52973438D01*
X182510948Y-52112877D01*
X183820016Y-51221562D01*
X189969993Y-46939282D01*
X190053814Y-46876177D01*
X190134623Y-46805924D01*
X190211824Y-46729110D01*
X190284822Y-46646325D01*
X190353025Y-46558160D01*
X190415836Y-46465203D01*
X190472661Y-46368044D01*
X190522906Y-46267273D01*
X190545375Y-46215716D01*
X190565977Y-46163478D01*
X190584636Y-46110631D01*
X190601278Y-46057250D01*
X190615829Y-46003407D01*
X190628215Y-45949177D01*
X190638361Y-45894634D01*
X190646194Y-45839851D01*
X190651638Y-45784901D01*
X190654620Y-45729859D01*
X190655065Y-45674798D01*
X190652898Y-45619791D01*
X190648047Y-45564913D01*
X190640435Y-45510238D01*
X190629989Y-45455838D01*
X190616635Y-45401788D01*
X190492766Y-44988244D01*
X190354764Y-44581064D01*
X190202846Y-44180565D01*
X190037228Y-43787064D01*
X189858127Y-43400880D01*
X189665760Y-43022328D01*
X189460343Y-42651727D01*
X189242094Y-42289395D01*
X189011228Y-41935647D01*
X188767962Y-41590803D01*
X188512513Y-41255179D01*
X188245098Y-40929093D01*
X187965933Y-40612863D01*
X187675236Y-40306804D01*
X187373222Y-40011236D01*
X187060108Y-39726476D01*
X186306171Y-40490081D01*
X185525006Y-41226060D01*
X184718407Y-41935486D01*
X183888168Y-42619434D01*
X183036082Y-43278974D01*
X182163943Y-43915182D01*
X181273545Y-44529130D01*
X180366680Y-45121891D01*
X179445144Y-45694539D01*
X178510730Y-46248147D01*
X177565231Y-46783787D01*
X176610440Y-47302533D01*
X174680161Y-48293637D01*
X172734241Y-49230043D01*
X164836958Y-52924154D01*
X146543353Y-52924154D01*
X147445566Y-52587778D01*
X148586607Y-52223269D01*
X149751914Y-51910913D01*
X150940598Y-51651329D01*
X152151775Y-51445138D01*
X152753621Y-51361312D01*
X153348534Y-51287240D01*
X153939255Y-51222036D01*
X154528525Y-51164813D01*
X155119085Y-51114684D01*
X155713676Y-51070762D01*
X156925914Y-50997993D01*
X157160008Y-50983341D01*
X157399181Y-50963973D01*
X157641416Y-50938076D01*
X157884700Y-50903834D01*
X158006105Y-50883018D01*
X158127016Y-50859435D01*
X158247181Y-50832860D01*
X158366349Y-50803065D01*
X158484267Y-50769823D01*
X158600683Y-50732909D01*
X158715346Y-50692095D01*
X158828004Y-50647155D01*
X175981201Y-43338041D01*
X176655628Y-43025225D01*
X177315545Y-42672408D01*
X177960950Y-42285460D01*
X178591845Y-41870253D01*
X179208230Y-41432654D01*
X179810103Y-40978534D01*
X180970318Y-40044210D01*
X183116618Y-38235581D01*
X183616917Y-37830167D01*
X184102704Y-37455191D01*
X184573981Y-37116523D01*
X185030747Y-36820031D01*
X185191357Y-36727438D01*
X185354449Y-36643110D01*
X185519806Y-36567008D01*
X185687210Y-36499095D01*
X185856443Y-36439331D01*
X186027287Y-36387679D01*
X186199524Y-36344099D01*
X186372937Y-36308554D01*
X186547306Y-36281005D01*
X186722415Y-36261413D01*
X186898046Y-36249741D01*
X187073980Y-36245949D01*
X187250000Y-36250000D01*
G37*
D11*
X144109580Y-104357142D02*
X144157200Y-104309523D01*
X144157200Y-104309523D02*
X144204819Y-104166666D01*
X144204819Y-104166666D02*
X144204819Y-104071428D01*
X144204819Y-104071428D02*
X144157200Y-103928571D01*
X144157200Y-103928571D02*
X144061961Y-103833333D01*
X144061961Y-103833333D02*
X143966723Y-103785714D01*
X143966723Y-103785714D02*
X143776247Y-103738095D01*
X143776247Y-103738095D02*
X143633390Y-103738095D01*
X143633390Y-103738095D02*
X143442914Y-103785714D01*
X143442914Y-103785714D02*
X143347676Y-103833333D01*
X143347676Y-103833333D02*
X143252438Y-103928571D01*
X143252438Y-103928571D02*
X143204819Y-104071428D01*
X143204819Y-104071428D02*
X143204819Y-104166666D01*
X143204819Y-104166666D02*
X143252438Y-104309523D01*
X143252438Y-104309523D02*
X143300057Y-104357142D01*
X144204819Y-105309523D02*
X144204819Y-104738095D01*
X144204819Y-105023809D02*
X143204819Y-105023809D01*
X143204819Y-105023809D02*
X143347676Y-104928571D01*
X143347676Y-104928571D02*
X143442914Y-104833333D01*
X143442914Y-104833333D02*
X143490533Y-104738095D01*
X143204819Y-105928571D02*
X143204819Y-106023809D01*
X143204819Y-106023809D02*
X143252438Y-106119047D01*
X143252438Y-106119047D02*
X143300057Y-106166666D01*
X143300057Y-106166666D02*
X143395295Y-106214285D01*
X143395295Y-106214285D02*
X143585771Y-106261904D01*
X143585771Y-106261904D02*
X143823866Y-106261904D01*
X143823866Y-106261904D02*
X144014342Y-106214285D01*
X144014342Y-106214285D02*
X144109580Y-106166666D01*
X144109580Y-106166666D02*
X144157200Y-106119047D01*
X144157200Y-106119047D02*
X144204819Y-106023809D01*
X144204819Y-106023809D02*
X144204819Y-105928571D01*
X144204819Y-105928571D02*
X144157200Y-105833333D01*
X144157200Y-105833333D02*
X144109580Y-105785714D01*
X144109580Y-105785714D02*
X144014342Y-105738095D01*
X144014342Y-105738095D02*
X143823866Y-105690476D01*
X143823866Y-105690476D02*
X143585771Y-105690476D01*
X143585771Y-105690476D02*
X143395295Y-105738095D01*
X143395295Y-105738095D02*
X143300057Y-105785714D01*
X143300057Y-105785714D02*
X143252438Y-105833333D01*
X143252438Y-105833333D02*
X143204819Y-105928571D01*
X177666666Y-116559580D02*
X177714285Y-116607200D01*
X177714285Y-116607200D02*
X177857142Y-116654819D01*
X177857142Y-116654819D02*
X177952380Y-116654819D01*
X177952380Y-116654819D02*
X178095237Y-116607200D01*
X178095237Y-116607200D02*
X178190475Y-116511961D01*
X178190475Y-116511961D02*
X178238094Y-116416723D01*
X178238094Y-116416723D02*
X178285713Y-116226247D01*
X178285713Y-116226247D02*
X178285713Y-116083390D01*
X178285713Y-116083390D02*
X178238094Y-115892914D01*
X178238094Y-115892914D02*
X178190475Y-115797676D01*
X178190475Y-115797676D02*
X178095237Y-115702438D01*
X178095237Y-115702438D02*
X177952380Y-115654819D01*
X177952380Y-115654819D02*
X177857142Y-115654819D01*
X177857142Y-115654819D02*
X177714285Y-115702438D01*
X177714285Y-115702438D02*
X177666666Y-115750057D01*
X177285713Y-115750057D02*
X177238094Y-115702438D01*
X177238094Y-115702438D02*
X177142856Y-115654819D01*
X177142856Y-115654819D02*
X176904761Y-115654819D01*
X176904761Y-115654819D02*
X176809523Y-115702438D01*
X176809523Y-115702438D02*
X176761904Y-115750057D01*
X176761904Y-115750057D02*
X176714285Y-115845295D01*
X176714285Y-115845295D02*
X176714285Y-115940533D01*
X176714285Y-115940533D02*
X176761904Y-116083390D01*
X176761904Y-116083390D02*
X177333332Y-116654819D01*
X177333332Y-116654819D02*
X176714285Y-116654819D01*
X148128208Y-59198408D02*
X147330983Y-59338980D01*
X147330983Y-59338980D02*
X147228923Y-59308622D01*
X147228923Y-59308622D02*
X147173758Y-59269996D01*
X147173758Y-59269996D02*
X147110325Y-59184473D01*
X147110325Y-59184473D02*
X147077249Y-58996891D01*
X147077249Y-58996891D02*
X147107607Y-58894831D01*
X147107607Y-58894831D02*
X147146233Y-58839666D01*
X147146233Y-58839666D02*
X147231755Y-58776233D01*
X147231755Y-58776233D02*
X148028981Y-58635660D01*
X147499424Y-58100438D02*
X147562857Y-58185960D01*
X147562857Y-58185960D02*
X147618022Y-58224587D01*
X147618022Y-58224587D02*
X147720082Y-58254945D01*
X147720082Y-58254945D02*
X147766978Y-58246676D01*
X147766978Y-58246676D02*
X147852500Y-58183242D01*
X147852500Y-58183242D02*
X147891127Y-58128078D01*
X147891127Y-58128078D02*
X147921484Y-58026017D01*
X147921484Y-58026017D02*
X147888408Y-57838435D01*
X147888408Y-57838435D02*
X147824975Y-57752913D01*
X147824975Y-57752913D02*
X147769810Y-57714286D01*
X147769810Y-57714286D02*
X147667750Y-57683928D01*
X147667750Y-57683928D02*
X147620855Y-57692197D01*
X147620855Y-57692197D02*
X147535332Y-57755631D01*
X147535332Y-57755631D02*
X147496706Y-57810795D01*
X147496706Y-57810795D02*
X147466348Y-57912856D01*
X147466348Y-57912856D02*
X147499424Y-58100438D01*
X147499424Y-58100438D02*
X147469066Y-58202498D01*
X147469066Y-58202498D02*
X147430439Y-58257663D01*
X147430439Y-58257663D02*
X147344917Y-58321096D01*
X147344917Y-58321096D02*
X147157335Y-58354172D01*
X147157335Y-58354172D02*
X147055275Y-58323814D01*
X147055275Y-58323814D02*
X147000110Y-58285188D01*
X147000110Y-58285188D02*
X146936677Y-58199666D01*
X146936677Y-58199666D02*
X146903601Y-58012083D01*
X146903601Y-58012083D02*
X146933958Y-57910023D01*
X146933958Y-57910023D02*
X146972585Y-57854858D01*
X146972585Y-57854858D02*
X147058107Y-57791425D01*
X147058107Y-57791425D02*
X147245690Y-57758349D01*
X147245690Y-57758349D02*
X147347750Y-57788707D01*
X147347750Y-57788707D02*
X147402914Y-57827333D01*
X147402914Y-57827333D02*
X147466348Y-57912856D01*
X147336666Y-94834819D02*
X147669999Y-94358628D01*
X147908094Y-94834819D02*
X147908094Y-93834819D01*
X147908094Y-93834819D02*
X147527142Y-93834819D01*
X147527142Y-93834819D02*
X147431904Y-93882438D01*
X147431904Y-93882438D02*
X147384285Y-93930057D01*
X147384285Y-93930057D02*
X147336666Y-94025295D01*
X147336666Y-94025295D02*
X147336666Y-94168152D01*
X147336666Y-94168152D02*
X147384285Y-94263390D01*
X147384285Y-94263390D02*
X147431904Y-94311009D01*
X147431904Y-94311009D02*
X147527142Y-94358628D01*
X147527142Y-94358628D02*
X147908094Y-94358628D01*
X146384285Y-94834819D02*
X146955713Y-94834819D01*
X146669999Y-94834819D02*
X146669999Y-93834819D01*
X146669999Y-93834819D02*
X146765237Y-93977676D01*
X146765237Y-93977676D02*
X146860475Y-94072914D01*
X146860475Y-94072914D02*
X146955713Y-94120533D01*
X185666666Y-88059580D02*
X185714285Y-88107200D01*
X185714285Y-88107200D02*
X185857142Y-88154819D01*
X185857142Y-88154819D02*
X185952380Y-88154819D01*
X185952380Y-88154819D02*
X186095237Y-88107200D01*
X186095237Y-88107200D02*
X186190475Y-88011961D01*
X186190475Y-88011961D02*
X186238094Y-87916723D01*
X186238094Y-87916723D02*
X186285713Y-87726247D01*
X186285713Y-87726247D02*
X186285713Y-87583390D01*
X186285713Y-87583390D02*
X186238094Y-87392914D01*
X186238094Y-87392914D02*
X186190475Y-87297676D01*
X186190475Y-87297676D02*
X186095237Y-87202438D01*
X186095237Y-87202438D02*
X185952380Y-87154819D01*
X185952380Y-87154819D02*
X185857142Y-87154819D01*
X185857142Y-87154819D02*
X185714285Y-87202438D01*
X185714285Y-87202438D02*
X185666666Y-87250057D01*
X185333332Y-87154819D02*
X184714285Y-87154819D01*
X184714285Y-87154819D02*
X185047618Y-87535771D01*
X185047618Y-87535771D02*
X184904761Y-87535771D01*
X184904761Y-87535771D02*
X184809523Y-87583390D01*
X184809523Y-87583390D02*
X184761904Y-87631009D01*
X184761904Y-87631009D02*
X184714285Y-87726247D01*
X184714285Y-87726247D02*
X184714285Y-87964342D01*
X184714285Y-87964342D02*
X184761904Y-88059580D01*
X184761904Y-88059580D02*
X184809523Y-88107200D01*
X184809523Y-88107200D02*
X184904761Y-88154819D01*
X184904761Y-88154819D02*
X185190475Y-88154819D01*
X185190475Y-88154819D02*
X185285713Y-88107200D01*
X185285713Y-88107200D02*
X185333332Y-88059580D01*
X149336666Y-78584819D02*
X149669999Y-78108628D01*
X149908094Y-78584819D02*
X149908094Y-77584819D01*
X149908094Y-77584819D02*
X149527142Y-77584819D01*
X149527142Y-77584819D02*
X149431904Y-77632438D01*
X149431904Y-77632438D02*
X149384285Y-77680057D01*
X149384285Y-77680057D02*
X149336666Y-77775295D01*
X149336666Y-77775295D02*
X149336666Y-77918152D01*
X149336666Y-77918152D02*
X149384285Y-78013390D01*
X149384285Y-78013390D02*
X149431904Y-78061009D01*
X149431904Y-78061009D02*
X149527142Y-78108628D01*
X149527142Y-78108628D02*
X149908094Y-78108628D01*
X148955713Y-77680057D02*
X148908094Y-77632438D01*
X148908094Y-77632438D02*
X148812856Y-77584819D01*
X148812856Y-77584819D02*
X148574761Y-77584819D01*
X148574761Y-77584819D02*
X148479523Y-77632438D01*
X148479523Y-77632438D02*
X148431904Y-77680057D01*
X148431904Y-77680057D02*
X148384285Y-77775295D01*
X148384285Y-77775295D02*
X148384285Y-77870533D01*
X148384285Y-77870533D02*
X148431904Y-78013390D01*
X148431904Y-78013390D02*
X149003332Y-78584819D01*
X149003332Y-78584819D02*
X148384285Y-78584819D01*
X158166666Y-86309580D02*
X158214285Y-86357200D01*
X158214285Y-86357200D02*
X158357142Y-86404819D01*
X158357142Y-86404819D02*
X158452380Y-86404819D01*
X158452380Y-86404819D02*
X158595237Y-86357200D01*
X158595237Y-86357200D02*
X158690475Y-86261961D01*
X158690475Y-86261961D02*
X158738094Y-86166723D01*
X158738094Y-86166723D02*
X158785713Y-85976247D01*
X158785713Y-85976247D02*
X158785713Y-85833390D01*
X158785713Y-85833390D02*
X158738094Y-85642914D01*
X158738094Y-85642914D02*
X158690475Y-85547676D01*
X158690475Y-85547676D02*
X158595237Y-85452438D01*
X158595237Y-85452438D02*
X158452380Y-85404819D01*
X158452380Y-85404819D02*
X158357142Y-85404819D01*
X158357142Y-85404819D02*
X158214285Y-85452438D01*
X158214285Y-85452438D02*
X158166666Y-85500057D01*
X157309523Y-85738152D02*
X157309523Y-86404819D01*
X157547618Y-85357200D02*
X157785713Y-86071485D01*
X157785713Y-86071485D02*
X157166666Y-86071485D01*
X177584819Y-89413333D02*
X177108628Y-89080000D01*
X177584819Y-88841905D02*
X176584819Y-88841905D01*
X176584819Y-88841905D02*
X176584819Y-89222857D01*
X176584819Y-89222857D02*
X176632438Y-89318095D01*
X176632438Y-89318095D02*
X176680057Y-89365714D01*
X176680057Y-89365714D02*
X176775295Y-89413333D01*
X176775295Y-89413333D02*
X176918152Y-89413333D01*
X176918152Y-89413333D02*
X177013390Y-89365714D01*
X177013390Y-89365714D02*
X177061009Y-89318095D01*
X177061009Y-89318095D02*
X177108628Y-89222857D01*
X177108628Y-89222857D02*
X177108628Y-88841905D01*
X176918152Y-90270476D02*
X177584819Y-90270476D01*
X176537200Y-90032381D02*
X177251485Y-89794286D01*
X177251485Y-89794286D02*
X177251485Y-90413333D01*
X147642857Y-111359580D02*
X147690476Y-111407200D01*
X147690476Y-111407200D02*
X147833333Y-111454819D01*
X147833333Y-111454819D02*
X147928571Y-111454819D01*
X147928571Y-111454819D02*
X148071428Y-111407200D01*
X148071428Y-111407200D02*
X148166666Y-111311961D01*
X148166666Y-111311961D02*
X148214285Y-111216723D01*
X148214285Y-111216723D02*
X148261904Y-111026247D01*
X148261904Y-111026247D02*
X148261904Y-110883390D01*
X148261904Y-110883390D02*
X148214285Y-110692914D01*
X148214285Y-110692914D02*
X148166666Y-110597676D01*
X148166666Y-110597676D02*
X148071428Y-110502438D01*
X148071428Y-110502438D02*
X147928571Y-110454819D01*
X147928571Y-110454819D02*
X147833333Y-110454819D01*
X147833333Y-110454819D02*
X147690476Y-110502438D01*
X147690476Y-110502438D02*
X147642857Y-110550057D01*
X146690476Y-111454819D02*
X147261904Y-111454819D01*
X146976190Y-111454819D02*
X146976190Y-110454819D01*
X146976190Y-110454819D02*
X147071428Y-110597676D01*
X147071428Y-110597676D02*
X147166666Y-110692914D01*
X147166666Y-110692914D02*
X147261904Y-110740533D01*
X145738095Y-111454819D02*
X146309523Y-111454819D01*
X146023809Y-111454819D02*
X146023809Y-110454819D01*
X146023809Y-110454819D02*
X146119047Y-110597676D01*
X146119047Y-110597676D02*
X146214285Y-110692914D01*
X146214285Y-110692914D02*
X146309523Y-110740533D01*
X155109580Y-114207142D02*
X155157200Y-114159523D01*
X155157200Y-114159523D02*
X155204819Y-114016666D01*
X155204819Y-114016666D02*
X155204819Y-113921428D01*
X155204819Y-113921428D02*
X155157200Y-113778571D01*
X155157200Y-113778571D02*
X155061961Y-113683333D01*
X155061961Y-113683333D02*
X154966723Y-113635714D01*
X154966723Y-113635714D02*
X154776247Y-113588095D01*
X154776247Y-113588095D02*
X154633390Y-113588095D01*
X154633390Y-113588095D02*
X154442914Y-113635714D01*
X154442914Y-113635714D02*
X154347676Y-113683333D01*
X154347676Y-113683333D02*
X154252438Y-113778571D01*
X154252438Y-113778571D02*
X154204819Y-113921428D01*
X154204819Y-113921428D02*
X154204819Y-114016666D01*
X154204819Y-114016666D02*
X154252438Y-114159523D01*
X154252438Y-114159523D02*
X154300057Y-114207142D01*
X155204819Y-115159523D02*
X155204819Y-114588095D01*
X155204819Y-114873809D02*
X154204819Y-114873809D01*
X154204819Y-114873809D02*
X154347676Y-114778571D01*
X154347676Y-114778571D02*
X154442914Y-114683333D01*
X154442914Y-114683333D02*
X154490533Y-114588095D01*
X154538152Y-116016666D02*
X155204819Y-116016666D01*
X154157200Y-115778571D02*
X154871485Y-115540476D01*
X154871485Y-115540476D02*
X154871485Y-116159523D01*
X174859580Y-58233333D02*
X174907200Y-58185714D01*
X174907200Y-58185714D02*
X174954819Y-58042857D01*
X174954819Y-58042857D02*
X174954819Y-57947619D01*
X174954819Y-57947619D02*
X174907200Y-57804762D01*
X174907200Y-57804762D02*
X174811961Y-57709524D01*
X174811961Y-57709524D02*
X174716723Y-57661905D01*
X174716723Y-57661905D02*
X174526247Y-57614286D01*
X174526247Y-57614286D02*
X174383390Y-57614286D01*
X174383390Y-57614286D02*
X174192914Y-57661905D01*
X174192914Y-57661905D02*
X174097676Y-57709524D01*
X174097676Y-57709524D02*
X174002438Y-57804762D01*
X174002438Y-57804762D02*
X173954819Y-57947619D01*
X173954819Y-57947619D02*
X173954819Y-58042857D01*
X173954819Y-58042857D02*
X174002438Y-58185714D01*
X174002438Y-58185714D02*
X174050057Y-58233333D01*
X174954819Y-58709524D02*
X174954819Y-58900000D01*
X174954819Y-58900000D02*
X174907200Y-58995238D01*
X174907200Y-58995238D02*
X174859580Y-59042857D01*
X174859580Y-59042857D02*
X174716723Y-59138095D01*
X174716723Y-59138095D02*
X174526247Y-59185714D01*
X174526247Y-59185714D02*
X174145295Y-59185714D01*
X174145295Y-59185714D02*
X174050057Y-59138095D01*
X174050057Y-59138095D02*
X174002438Y-59090476D01*
X174002438Y-59090476D02*
X173954819Y-58995238D01*
X173954819Y-58995238D02*
X173954819Y-58804762D01*
X173954819Y-58804762D02*
X174002438Y-58709524D01*
X174002438Y-58709524D02*
X174050057Y-58661905D01*
X174050057Y-58661905D02*
X174145295Y-58614286D01*
X174145295Y-58614286D02*
X174383390Y-58614286D01*
X174383390Y-58614286D02*
X174478628Y-58661905D01*
X174478628Y-58661905D02*
X174526247Y-58709524D01*
X174526247Y-58709524D02*
X174573866Y-58804762D01*
X174573866Y-58804762D02*
X174573866Y-58995238D01*
X174573866Y-58995238D02*
X174526247Y-59090476D01*
X174526247Y-59090476D02*
X174478628Y-59138095D01*
X174478628Y-59138095D02*
X174383390Y-59185714D01*
X186859580Y-77204491D02*
X186907200Y-77156872D01*
X186907200Y-77156872D02*
X186954819Y-77014015D01*
X186954819Y-77014015D02*
X186954819Y-76918777D01*
X186954819Y-76918777D02*
X186907200Y-76775920D01*
X186907200Y-76775920D02*
X186811961Y-76680682D01*
X186811961Y-76680682D02*
X186716723Y-76633063D01*
X186716723Y-76633063D02*
X186526247Y-76585444D01*
X186526247Y-76585444D02*
X186383390Y-76585444D01*
X186383390Y-76585444D02*
X186192914Y-76633063D01*
X186192914Y-76633063D02*
X186097676Y-76680682D01*
X186097676Y-76680682D02*
X186002438Y-76775920D01*
X186002438Y-76775920D02*
X185954819Y-76918777D01*
X185954819Y-76918777D02*
X185954819Y-77014015D01*
X185954819Y-77014015D02*
X186002438Y-77156872D01*
X186002438Y-77156872D02*
X186050057Y-77204491D01*
X186954819Y-78156872D02*
X186954819Y-77585444D01*
X186954819Y-77871158D02*
X185954819Y-77871158D01*
X185954819Y-77871158D02*
X186097676Y-77775920D01*
X186097676Y-77775920D02*
X186192914Y-77680682D01*
X186192914Y-77680682D02*
X186240533Y-77585444D01*
X186050057Y-78537825D02*
X186002438Y-78585444D01*
X186002438Y-78585444D02*
X185954819Y-78680682D01*
X185954819Y-78680682D02*
X185954819Y-78918777D01*
X185954819Y-78918777D02*
X186002438Y-79014015D01*
X186002438Y-79014015D02*
X186050057Y-79061634D01*
X186050057Y-79061634D02*
X186145295Y-79109253D01*
X186145295Y-79109253D02*
X186240533Y-79109253D01*
X186240533Y-79109253D02*
X186383390Y-79061634D01*
X186383390Y-79061634D02*
X186954819Y-78490206D01*
X186954819Y-78490206D02*
X186954819Y-79109253D01*
X148666666Y-86309580D02*
X148714285Y-86357200D01*
X148714285Y-86357200D02*
X148857142Y-86404819D01*
X148857142Y-86404819D02*
X148952380Y-86404819D01*
X148952380Y-86404819D02*
X149095237Y-86357200D01*
X149095237Y-86357200D02*
X149190475Y-86261961D01*
X149190475Y-86261961D02*
X149238094Y-86166723D01*
X149238094Y-86166723D02*
X149285713Y-85976247D01*
X149285713Y-85976247D02*
X149285713Y-85833390D01*
X149285713Y-85833390D02*
X149238094Y-85642914D01*
X149238094Y-85642914D02*
X149190475Y-85547676D01*
X149190475Y-85547676D02*
X149095237Y-85452438D01*
X149095237Y-85452438D02*
X148952380Y-85404819D01*
X148952380Y-85404819D02*
X148857142Y-85404819D01*
X148857142Y-85404819D02*
X148714285Y-85452438D01*
X148714285Y-85452438D02*
X148666666Y-85500057D01*
X147809523Y-85404819D02*
X147999999Y-85404819D01*
X147999999Y-85404819D02*
X148095237Y-85452438D01*
X148095237Y-85452438D02*
X148142856Y-85500057D01*
X148142856Y-85500057D02*
X148238094Y-85642914D01*
X148238094Y-85642914D02*
X148285713Y-85833390D01*
X148285713Y-85833390D02*
X148285713Y-86214342D01*
X148285713Y-86214342D02*
X148238094Y-86309580D01*
X148238094Y-86309580D02*
X148190475Y-86357200D01*
X148190475Y-86357200D02*
X148095237Y-86404819D01*
X148095237Y-86404819D02*
X147904761Y-86404819D01*
X147904761Y-86404819D02*
X147809523Y-86357200D01*
X147809523Y-86357200D02*
X147761904Y-86309580D01*
X147761904Y-86309580D02*
X147714285Y-86214342D01*
X147714285Y-86214342D02*
X147714285Y-85976247D01*
X147714285Y-85976247D02*
X147761904Y-85881009D01*
X147761904Y-85881009D02*
X147809523Y-85833390D01*
X147809523Y-85833390D02*
X147904761Y-85785771D01*
X147904761Y-85785771D02*
X148095237Y-85785771D01*
X148095237Y-85785771D02*
X148190475Y-85833390D01*
X148190475Y-85833390D02*
X148238094Y-85881009D01*
X148238094Y-85881009D02*
X148285713Y-85976247D01*
X150158094Y-67234819D02*
X150158094Y-66234819D01*
X150158094Y-66234819D02*
X149919999Y-66234819D01*
X149919999Y-66234819D02*
X149777142Y-66282438D01*
X149777142Y-66282438D02*
X149681904Y-66377676D01*
X149681904Y-66377676D02*
X149634285Y-66472914D01*
X149634285Y-66472914D02*
X149586666Y-66663390D01*
X149586666Y-66663390D02*
X149586666Y-66806247D01*
X149586666Y-66806247D02*
X149634285Y-66996723D01*
X149634285Y-66996723D02*
X149681904Y-67091961D01*
X149681904Y-67091961D02*
X149777142Y-67187200D01*
X149777142Y-67187200D02*
X149919999Y-67234819D01*
X149919999Y-67234819D02*
X150158094Y-67234819D01*
X148634285Y-67234819D02*
X149205713Y-67234819D01*
X148919999Y-67234819D02*
X148919999Y-66234819D01*
X148919999Y-66234819D02*
X149015237Y-66377676D01*
X149015237Y-66377676D02*
X149110475Y-66472914D01*
X149110475Y-66472914D02*
X149205713Y-66520533D01*
X154761904Y-67604819D02*
X154761904Y-66604819D01*
X154190476Y-67604819D02*
X154619047Y-67033390D01*
X154190476Y-66604819D02*
X154761904Y-67176247D01*
%TO.C,C10*%
D12*
X144920000Y-105000000D02*
X149080000Y-105000000D01*
X144920000Y-105040000D02*
X149080000Y-105040000D01*
X144922000Y-105080000D02*
X149078000Y-105080000D01*
X144923000Y-105120000D02*
X149077000Y-105120000D01*
X144926000Y-105160000D02*
X149074000Y-105160000D01*
X144929000Y-105200000D02*
X146160000Y-105200000D01*
X144934000Y-105240000D02*
X146160000Y-105240000D01*
X144939000Y-105280000D02*
X146160000Y-105280000D01*
X144944000Y-105320000D02*
X146160000Y-105320000D01*
X144951000Y-105360000D02*
X146160000Y-105360000D01*
X144958000Y-105400000D02*
X146160000Y-105400000D01*
X144966000Y-105440000D02*
X146160000Y-105440000D01*
X144975000Y-105480000D02*
X146160000Y-105480000D01*
X144985000Y-105520000D02*
X146160000Y-105520000D01*
X144995000Y-105560000D02*
X146160000Y-105560000D01*
X145007000Y-105600000D02*
X146160000Y-105600000D01*
X145019000Y-105640000D02*
X146160000Y-105640000D01*
X145032000Y-105680000D02*
X146160000Y-105680000D01*
X145046000Y-105720000D02*
X146160000Y-105720000D01*
X145061000Y-105760000D02*
X146160000Y-105760000D01*
X145077000Y-105800000D02*
X146160000Y-105800000D01*
X145094000Y-105840000D02*
X146160000Y-105840000D01*
X145111000Y-105880000D02*
X146160000Y-105880000D01*
X145130000Y-105920000D02*
X146160000Y-105920000D01*
X145150000Y-105960000D02*
X146160000Y-105960000D01*
X145171000Y-106000000D02*
X146160000Y-106000000D01*
X145193000Y-106040000D02*
X146160000Y-106040000D01*
X145216000Y-106080000D02*
X146160000Y-106080000D01*
X145240000Y-106120000D02*
X146160000Y-106120000D01*
X145266000Y-106160000D02*
X146160000Y-106160000D01*
X145292000Y-106200000D02*
X146160000Y-106200000D01*
X145320000Y-106240000D02*
X146160000Y-106240000D01*
X145350000Y-106280000D02*
X146160000Y-106280000D01*
X145381000Y-106320000D02*
X146160000Y-106320000D01*
X145414000Y-106360000D02*
X146160000Y-106360000D01*
X145448000Y-106400000D02*
X146160000Y-106400000D01*
X145484000Y-106440000D02*
X146160000Y-106440000D01*
X145522000Y-106480000D02*
X146160000Y-106480000D01*
X145562000Y-106520000D02*
X146160000Y-106520000D01*
X145604000Y-106560000D02*
X146160000Y-106560000D01*
X145605000Y-102930199D02*
X146005000Y-102930199D01*
X145649000Y-106600000D02*
X146160000Y-106600000D01*
X145697000Y-106640000D02*
X146160000Y-106640000D01*
X145747000Y-106680000D02*
X146160000Y-106680000D01*
X145801000Y-106720000D02*
X146160000Y-106720000D01*
X145805000Y-102730199D02*
X145805000Y-103130199D01*
X145858000Y-106760000D02*
X146160000Y-106760000D01*
X145920000Y-106800000D02*
X146160000Y-106800000D01*
X145987000Y-106840000D02*
X148013000Y-106840000D01*
X146060000Y-106880000D02*
X147940000Y-106880000D01*
X146141000Y-106920000D02*
X147859000Y-106920000D01*
X146232000Y-106960000D02*
X147768000Y-106960000D01*
X146337000Y-107000000D02*
X147663000Y-107000000D01*
X146463000Y-107040000D02*
X147537000Y-107040000D01*
X146630000Y-107080000D02*
X147370000Y-107080000D01*
X147840000Y-105200000D02*
X149071000Y-105200000D01*
X147840000Y-105240000D02*
X149066000Y-105240000D01*
X147840000Y-105280000D02*
X149061000Y-105280000D01*
X147840000Y-105320000D02*
X149056000Y-105320000D01*
X147840000Y-105360000D02*
X149049000Y-105360000D01*
X147840000Y-105400000D02*
X149042000Y-105400000D01*
X147840000Y-105440000D02*
X149034000Y-105440000D01*
X147840000Y-105480000D02*
X149025000Y-105480000D01*
X147840000Y-105520000D02*
X149015000Y-105520000D01*
X147840000Y-105560000D02*
X149005000Y-105560000D01*
X147840000Y-105600000D02*
X148993000Y-105600000D01*
X147840000Y-105640000D02*
X148981000Y-105640000D01*
X147840000Y-105680000D02*
X148968000Y-105680000D01*
X147840000Y-105720000D02*
X148954000Y-105720000D01*
X147840000Y-105760000D02*
X148939000Y-105760000D01*
X147840000Y-105800000D02*
X148923000Y-105800000D01*
X147840000Y-105840000D02*
X148906000Y-105840000D01*
X147840000Y-105880000D02*
X148889000Y-105880000D01*
X147840000Y-105920000D02*
X148870000Y-105920000D01*
X147840000Y-105960000D02*
X148850000Y-105960000D01*
X147840000Y-106000000D02*
X148829000Y-106000000D01*
X147840000Y-106040000D02*
X148807000Y-106040000D01*
X147840000Y-106080000D02*
X148784000Y-106080000D01*
X147840000Y-106120000D02*
X148760000Y-106120000D01*
X147840000Y-106160000D02*
X148734000Y-106160000D01*
X147840000Y-106200000D02*
X148708000Y-106200000D01*
X147840000Y-106240000D02*
X148680000Y-106240000D01*
X147840000Y-106280000D02*
X148650000Y-106280000D01*
X147840000Y-106320000D02*
X148619000Y-106320000D01*
X147840000Y-106360000D02*
X148586000Y-106360000D01*
X147840000Y-106400000D02*
X148552000Y-106400000D01*
X147840000Y-106440000D02*
X148516000Y-106440000D01*
X147840000Y-106480000D02*
X148478000Y-106480000D01*
X147840000Y-106520000D02*
X148438000Y-106520000D01*
X147840000Y-106560000D02*
X148396000Y-106560000D01*
X147840000Y-106600000D02*
X148351000Y-106600000D01*
X147840000Y-106640000D02*
X148303000Y-106640000D01*
X147840000Y-106680000D02*
X148253000Y-106680000D01*
X147840000Y-106720000D02*
X148199000Y-106720000D01*
X147840000Y-106760000D02*
X148142000Y-106760000D01*
X147840000Y-106800000D02*
X148080000Y-106800000D01*
X149120000Y-105000000D02*
G75*
G02*
X144880000Y-105000000I-2120000J0D01*
G01*
X144880000Y-105000000D02*
G75*
G02*
X149120000Y-105000000I2120000J0D01*
G01*
%TO.C,C2*%
X175480000Y-117330000D02*
X175480000Y-118051000D01*
X175480000Y-119449000D02*
X175480000Y-120170000D01*
X175480000Y-120170000D02*
X179520000Y-120170000D01*
X179520000Y-117330000D02*
X175480000Y-117330000D01*
X179520000Y-118051000D02*
X179520000Y-117330000D01*
X179520000Y-120170000D02*
X179520000Y-119449000D01*
%TO.C,U8*%
X147398903Y-53364516D02*
X149173588Y-63429251D01*
X163027802Y-50608719D02*
X147398903Y-53364516D01*
X163027802Y-50608719D02*
X164802487Y-60673455D01*
X163389859Y-52662043D02*
X165792790Y-52238342D01*
X163558298Y-53617307D02*
X165961229Y-53193605D01*
X163830925Y-55163455D02*
X166233856Y-54739754D01*
X163999364Y-56118719D02*
X166402295Y-55695017D01*
X164271992Y-57664867D02*
X166674923Y-57241165D01*
X164440430Y-58620130D02*
X166843361Y-58196429D01*
X164802487Y-60673455D02*
X149173588Y-63429251D01*
%TO.C,R1*%
X143130000Y-96750000D02*
X143900000Y-96750000D01*
X151210000Y-96750000D02*
X150440000Y-96750000D01*
X143900000Y-95380000D02*
X150440000Y-95380000D01*
X150440000Y-98120000D01*
X143900000Y-98120000D01*
X143900000Y-95380000D01*
%TO.C,C3*%
X183480000Y-88830000D02*
X183480000Y-89551000D01*
X183480000Y-90949000D02*
X183480000Y-91670000D01*
X183480000Y-91670000D02*
X187520000Y-91670000D01*
X187520000Y-88830000D02*
X183480000Y-88830000D01*
X187520000Y-89551000D02*
X187520000Y-88830000D01*
X187520000Y-91670000D02*
X187520000Y-90949000D01*
%TO.C,R2*%
X145130000Y-80500000D02*
X145900000Y-80500000D01*
X153210000Y-80500000D02*
X152440000Y-80500000D01*
X145900000Y-79130000D02*
X152440000Y-79130000D01*
X152440000Y-81870000D01*
X145900000Y-81870000D01*
X145900000Y-79130000D01*
%TO.C,C4*%
X155980000Y-87080000D02*
X155980000Y-87801000D01*
X155980000Y-89199000D02*
X155980000Y-89920000D01*
X155980000Y-89920000D02*
X160020000Y-89920000D01*
X160020000Y-87080000D02*
X155980000Y-87080000D01*
X160020000Y-87801000D02*
X160020000Y-87080000D01*
X160020000Y-89920000D02*
X160020000Y-89199000D01*
%TO.C,R4*%
X179500000Y-85540000D02*
X179500000Y-86310000D01*
X179500000Y-93620000D02*
X179500000Y-92850000D01*
X178130000Y-86310000D02*
X180870000Y-86310000D01*
X180870000Y-92850000D01*
X178130000Y-92850000D01*
X178130000Y-86310000D01*
%TO.C,C11*%
X144380000Y-112130000D02*
X144380000Y-114870000D01*
X144380000Y-114870000D02*
X149620000Y-114870000D01*
X149620000Y-112130000D02*
X144380000Y-112130000D01*
X149620000Y-114870000D02*
X149620000Y-112130000D01*
%TO.C,C14*%
X155920000Y-114850000D02*
X164080000Y-114850000D01*
X155920000Y-114890000D02*
X164080000Y-114890000D01*
X155921000Y-114930000D02*
X164079000Y-114930000D01*
X155922000Y-114970000D02*
X164078000Y-114970000D01*
X155923000Y-115010000D02*
X164077000Y-115010000D01*
X155925000Y-115050000D02*
X164075000Y-115050000D01*
X155927000Y-115090000D02*
X164073000Y-115090000D01*
X155930000Y-115130000D02*
X164070000Y-115130000D01*
X155932000Y-115170000D02*
X164068000Y-115170000D01*
X155936000Y-115210000D02*
X164064000Y-115210000D01*
X155939000Y-115250000D02*
X164061000Y-115250000D01*
X155944000Y-115290000D02*
X164056000Y-115290000D01*
X155948000Y-115330000D02*
X164052000Y-115330000D01*
X155953000Y-115370000D02*
X164047000Y-115370000D01*
X155958000Y-115410000D02*
X164042000Y-115410000D01*
X155964000Y-115450000D02*
X164036000Y-115450000D01*
X155970000Y-115490000D02*
X164030000Y-115490000D01*
X155977000Y-115530000D02*
X164023000Y-115530000D01*
X155983000Y-115570000D02*
X164017000Y-115570000D01*
X155991000Y-115610000D02*
X164009000Y-115610000D01*
X155998000Y-115650000D02*
X164002000Y-115650000D01*
X156007000Y-115690000D02*
X163993000Y-115690000D01*
X156015000Y-115730000D02*
X158960000Y-115730000D01*
X156024000Y-115770000D02*
X158960000Y-115770000D01*
X156033000Y-115810000D02*
X158960000Y-115810000D01*
X156043000Y-115850000D02*
X158960000Y-115850000D01*
X156053000Y-115890000D02*
X158960000Y-115890000D01*
X156064000Y-115930000D02*
X158960000Y-115930000D01*
X156075000Y-115970000D02*
X158960000Y-115970000D01*
X156087000Y-116010000D02*
X158960000Y-116010000D01*
X156099000Y-116050000D02*
X158960000Y-116050000D01*
X156111000Y-116090000D02*
X158960000Y-116090000D01*
X156124000Y-116130000D02*
X158960000Y-116130000D01*
X156137000Y-116170000D02*
X158960000Y-116170000D01*
X156151000Y-116210000D02*
X158960000Y-116210000D01*
X156165000Y-116250000D02*
X158960000Y-116250000D01*
X156180000Y-116290000D02*
X158960000Y-116290000D01*
X156195000Y-116330000D02*
X158960000Y-116330000D01*
X156211000Y-116370000D02*
X158960000Y-116370000D01*
X156227000Y-116410000D02*
X158960000Y-116410000D01*
X156243000Y-116450000D02*
X158960000Y-116450000D01*
X156260000Y-116490000D02*
X158960000Y-116490000D01*
X156278000Y-116530000D02*
X158960000Y-116530000D01*
X156296000Y-116570000D02*
X158960000Y-116570000D01*
X156315000Y-116610000D02*
X158960000Y-116610000D01*
X156334000Y-116650000D02*
X158960000Y-116650000D01*
X156354000Y-116690000D02*
X158960000Y-116690000D01*
X156374000Y-116730000D02*
X158960000Y-116730000D01*
X156395000Y-116770000D02*
X158960000Y-116770000D01*
X156416000Y-116810000D02*
X158960000Y-116810000D01*
X156438000Y-116850000D02*
X158960000Y-116850000D01*
X156461000Y-116890000D02*
X158960000Y-116890000D01*
X156484000Y-116930000D02*
X158960000Y-116930000D01*
X156507000Y-116970000D02*
X158960000Y-116970000D01*
X156532000Y-117010000D02*
X158960000Y-117010000D01*
X156557000Y-117050000D02*
X158960000Y-117050000D01*
X156582000Y-117090000D02*
X158960000Y-117090000D01*
X156608000Y-117130000D02*
X158960000Y-117130000D01*
X156635000Y-117170000D02*
X158960000Y-117170000D01*
X156663000Y-117210000D02*
X158960000Y-117210000D01*
X156691000Y-117250000D02*
X158960000Y-117250000D01*
X156720000Y-117290000D02*
X158960000Y-117290000D01*
X156750000Y-117330000D02*
X158960000Y-117330000D01*
X156781000Y-117370000D02*
X158960000Y-117370000D01*
X156812000Y-117410000D02*
X158960000Y-117410000D01*
X156844000Y-117450000D02*
X158960000Y-117450000D01*
X156877000Y-117490000D02*
X158960000Y-117490000D01*
X156911000Y-117530000D02*
X158960000Y-117530000D01*
X156945000Y-117570000D02*
X158960000Y-117570000D01*
X156981000Y-117610000D02*
X158960000Y-117610000D01*
X157018000Y-117650000D02*
X158960000Y-117650000D01*
X157055000Y-117690000D02*
X158960000Y-117690000D01*
X157094000Y-117730000D02*
X158960000Y-117730000D01*
X157133000Y-117770000D02*
X158960000Y-117770000D01*
X157174000Y-117810000D02*
X162826000Y-117810000D01*
X157216000Y-117850000D02*
X162784000Y-117850000D01*
X157259000Y-117890000D02*
X162741000Y-117890000D01*
X157285000Y-110840302D02*
X158085000Y-110840302D01*
X157304000Y-117930000D02*
X162696000Y-117930000D01*
X157349000Y-117970000D02*
X162651000Y-117970000D01*
X157396000Y-118010000D02*
X162604000Y-118010000D01*
X157445000Y-118050000D02*
X162555000Y-118050000D01*
X157495000Y-118090000D02*
X162505000Y-118090000D01*
X157547000Y-118130000D02*
X162453000Y-118130000D01*
X157600000Y-118170000D02*
X162400000Y-118170000D01*
X157656000Y-118210000D02*
X162344000Y-118210000D01*
X157685000Y-110440302D02*
X157685000Y-111240302D01*
X157713000Y-118250000D02*
X162287000Y-118250000D01*
X157773000Y-118290000D02*
X162227000Y-118290000D01*
X157835000Y-118330000D02*
X162165000Y-118330000D01*
X157899000Y-118370000D02*
X162101000Y-118370000D01*
X157966000Y-118410000D02*
X162034000Y-118410000D01*
X158036000Y-118450000D02*
X161964000Y-118450000D01*
X158110000Y-118490000D02*
X161890000Y-118490000D01*
X158187000Y-118530000D02*
X161813000Y-118530000D01*
X158269000Y-118570000D02*
X161731000Y-118570000D01*
X158356000Y-118610000D02*
X161644000Y-118610000D01*
X158448000Y-118650000D02*
X161552000Y-118650000D01*
X158547000Y-118690000D02*
X161453000Y-118690000D01*
X158654000Y-118730000D02*
X161346000Y-118730000D01*
X158772000Y-118770000D02*
X161228000Y-118770000D01*
X158903000Y-118810000D02*
X161097000Y-118810000D01*
X159053000Y-118850000D02*
X160947000Y-118850000D01*
X159232000Y-118890000D02*
X160768000Y-118890000D01*
X159467000Y-118930000D02*
X160533000Y-118930000D01*
X161040000Y-115730000D02*
X163985000Y-115730000D01*
X161040000Y-115770000D02*
X163976000Y-115770000D01*
X161040000Y-115810000D02*
X163967000Y-115810000D01*
X161040000Y-115850000D02*
X163957000Y-115850000D01*
X161040000Y-115890000D02*
X163947000Y-115890000D01*
X161040000Y-115930000D02*
X163936000Y-115930000D01*
X161040000Y-115970000D02*
X163925000Y-115970000D01*
X161040000Y-116010000D02*
X163913000Y-116010000D01*
X161040000Y-116050000D02*
X163901000Y-116050000D01*
X161040000Y-116090000D02*
X163889000Y-116090000D01*
X161040000Y-116130000D02*
X163876000Y-116130000D01*
X161040000Y-116170000D02*
X163863000Y-116170000D01*
X161040000Y-116210000D02*
X163849000Y-116210000D01*
X161040000Y-116250000D02*
X163835000Y-116250000D01*
X161040000Y-116290000D02*
X163820000Y-116290000D01*
X161040000Y-116330000D02*
X163805000Y-116330000D01*
X161040000Y-116370000D02*
X163789000Y-116370000D01*
X161040000Y-116410000D02*
X163773000Y-116410000D01*
X161040000Y-116450000D02*
X163757000Y-116450000D01*
X161040000Y-116490000D02*
X163740000Y-116490000D01*
X161040000Y-116530000D02*
X163722000Y-116530000D01*
X161040000Y-116570000D02*
X163704000Y-116570000D01*
X161040000Y-116610000D02*
X163685000Y-116610000D01*
X161040000Y-116650000D02*
X163666000Y-116650000D01*
X161040000Y-116690000D02*
X163646000Y-116690000D01*
X161040000Y-116730000D02*
X163626000Y-116730000D01*
X161040000Y-116770000D02*
X163605000Y-116770000D01*
X161040000Y-116810000D02*
X163584000Y-116810000D01*
X161040000Y-116850000D02*
X163562000Y-116850000D01*
X161040000Y-116890000D02*
X163539000Y-116890000D01*
X161040000Y-116930000D02*
X163516000Y-116930000D01*
X161040000Y-116970000D02*
X163493000Y-116970000D01*
X161040000Y-117010000D02*
X163468000Y-117010000D01*
X161040000Y-117050000D02*
X163443000Y-117050000D01*
X161040000Y-117090000D02*
X163418000Y-117090000D01*
X161040000Y-117130000D02*
X163392000Y-117130000D01*
X161040000Y-117170000D02*
X163365000Y-117170000D01*
X161040000Y-117210000D02*
X163337000Y-117210000D01*
X161040000Y-117250000D02*
X163309000Y-117250000D01*
X161040000Y-117290000D02*
X163280000Y-117290000D01*
X161040000Y-117330000D02*
X163250000Y-117330000D01*
X161040000Y-117370000D02*
X163219000Y-117370000D01*
X161040000Y-117410000D02*
X163188000Y-117410000D01*
X161040000Y-117450000D02*
X163156000Y-117450000D01*
X161040000Y-117490000D02*
X163123000Y-117490000D01*
X161040000Y-117530000D02*
X163089000Y-117530000D01*
X161040000Y-117570000D02*
X163055000Y-117570000D01*
X161040000Y-117610000D02*
X163019000Y-117610000D01*
X161040000Y-117650000D02*
X162982000Y-117650000D01*
X161040000Y-117690000D02*
X162945000Y-117690000D01*
X161040000Y-117730000D02*
X162906000Y-117730000D01*
X161040000Y-117770000D02*
X162867000Y-117770000D01*
X164120000Y-114850000D02*
G75*
G02*
X155880000Y-114850000I-4120000J0D01*
G01*
X155880000Y-114850000D02*
G75*
G02*
X164120000Y-114850000I4120000J0D01*
G01*
%TO.C,C9*%
X175670000Y-58400000D02*
X183830000Y-58400000D01*
X175670000Y-58440000D02*
X183830000Y-58440000D01*
X175671000Y-58480000D02*
X183829000Y-58480000D01*
X175672000Y-58520000D02*
X183828000Y-58520000D01*
X175673000Y-58560000D02*
X183827000Y-58560000D01*
X175675000Y-58600000D02*
X183825000Y-58600000D01*
X175677000Y-58640000D02*
X183823000Y-58640000D01*
X175680000Y-58680000D02*
X183820000Y-58680000D01*
X175682000Y-58720000D02*
X183818000Y-58720000D01*
X175686000Y-58760000D02*
X183814000Y-58760000D01*
X175689000Y-58800000D02*
X183811000Y-58800000D01*
X175694000Y-58840000D02*
X183806000Y-58840000D01*
X175698000Y-58880000D02*
X183802000Y-58880000D01*
X175703000Y-58920000D02*
X183797000Y-58920000D01*
X175708000Y-58960000D02*
X183792000Y-58960000D01*
X175714000Y-59000000D02*
X183786000Y-59000000D01*
X175720000Y-59040000D02*
X183780000Y-59040000D01*
X175727000Y-59080000D02*
X183773000Y-59080000D01*
X175733000Y-59120000D02*
X183767000Y-59120000D01*
X175741000Y-59160000D02*
X183759000Y-59160000D01*
X175748000Y-59200000D02*
X183752000Y-59200000D01*
X175757000Y-59240000D02*
X183743000Y-59240000D01*
X175765000Y-59280000D02*
X178710000Y-59280000D01*
X175774000Y-59320000D02*
X178710000Y-59320000D01*
X175783000Y-59360000D02*
X178710000Y-59360000D01*
X175793000Y-59400000D02*
X178710000Y-59400000D01*
X175803000Y-59440000D02*
X178710000Y-59440000D01*
X175814000Y-59480000D02*
X178710000Y-59480000D01*
X175825000Y-59520000D02*
X178710000Y-59520000D01*
X175837000Y-59560000D02*
X178710000Y-59560000D01*
X175849000Y-59600000D02*
X178710000Y-59600000D01*
X175861000Y-59640000D02*
X178710000Y-59640000D01*
X175874000Y-59680000D02*
X178710000Y-59680000D01*
X175887000Y-59720000D02*
X178710000Y-59720000D01*
X175901000Y-59760000D02*
X178710000Y-59760000D01*
X175915000Y-59800000D02*
X178710000Y-59800000D01*
X175930000Y-59840000D02*
X178710000Y-59840000D01*
X175945000Y-59880000D02*
X178710000Y-59880000D01*
X175961000Y-59920000D02*
X178710000Y-59920000D01*
X175977000Y-59960000D02*
X178710000Y-59960000D01*
X175993000Y-60000000D02*
X178710000Y-60000000D01*
X176010000Y-60040000D02*
X178710000Y-60040000D01*
X176028000Y-60080000D02*
X178710000Y-60080000D01*
X176046000Y-60120000D02*
X178710000Y-60120000D01*
X176065000Y-60160000D02*
X178710000Y-60160000D01*
X176084000Y-60200000D02*
X178710000Y-60200000D01*
X176104000Y-60240000D02*
X178710000Y-60240000D01*
X176124000Y-60280000D02*
X178710000Y-60280000D01*
X176145000Y-60320000D02*
X178710000Y-60320000D01*
X176166000Y-60360000D02*
X178710000Y-60360000D01*
X176188000Y-60400000D02*
X178710000Y-60400000D01*
X176211000Y-60440000D02*
X178710000Y-60440000D01*
X176234000Y-60480000D02*
X178710000Y-60480000D01*
X176257000Y-60520000D02*
X178710000Y-60520000D01*
X176282000Y-60560000D02*
X178710000Y-60560000D01*
X176307000Y-60600000D02*
X178710000Y-60600000D01*
X176332000Y-60640000D02*
X178710000Y-60640000D01*
X176358000Y-60680000D02*
X178710000Y-60680000D01*
X176385000Y-60720000D02*
X178710000Y-60720000D01*
X176413000Y-60760000D02*
X178710000Y-60760000D01*
X176441000Y-60800000D02*
X178710000Y-60800000D01*
X176470000Y-60840000D02*
X178710000Y-60840000D01*
X176500000Y-60880000D02*
X178710000Y-60880000D01*
X176531000Y-60920000D02*
X178710000Y-60920000D01*
X176562000Y-60960000D02*
X178710000Y-60960000D01*
X176594000Y-61000000D02*
X178710000Y-61000000D01*
X176627000Y-61040000D02*
X178710000Y-61040000D01*
X176661000Y-61080000D02*
X178710000Y-61080000D01*
X176695000Y-61120000D02*
X178710000Y-61120000D01*
X176731000Y-61160000D02*
X178710000Y-61160000D01*
X176768000Y-61200000D02*
X178710000Y-61200000D01*
X176805000Y-61240000D02*
X178710000Y-61240000D01*
X176844000Y-61280000D02*
X178710000Y-61280000D01*
X176883000Y-61320000D02*
X178710000Y-61320000D01*
X176924000Y-61360000D02*
X182576000Y-61360000D01*
X176966000Y-61400000D02*
X182534000Y-61400000D01*
X177009000Y-61440000D02*
X182491000Y-61440000D01*
X177035000Y-54390302D02*
X177835000Y-54390302D01*
X177054000Y-61480000D02*
X182446000Y-61480000D01*
X177099000Y-61520000D02*
X182401000Y-61520000D01*
X177146000Y-61560000D02*
X182354000Y-61560000D01*
X177195000Y-61600000D02*
X182305000Y-61600000D01*
X177245000Y-61640000D02*
X182255000Y-61640000D01*
X177297000Y-61680000D02*
X182203000Y-61680000D01*
X177350000Y-61720000D02*
X182150000Y-61720000D01*
X177406000Y-61760000D02*
X182094000Y-61760000D01*
X177435000Y-53990302D02*
X177435000Y-54790302D01*
X177463000Y-61800000D02*
X182037000Y-61800000D01*
X177523000Y-61840000D02*
X181977000Y-61840000D01*
X177585000Y-61880000D02*
X181915000Y-61880000D01*
X177649000Y-61920000D02*
X181851000Y-61920000D01*
X177716000Y-61960000D02*
X181784000Y-61960000D01*
X177786000Y-62000000D02*
X181714000Y-62000000D01*
X177860000Y-62040000D02*
X181640000Y-62040000D01*
X177937000Y-62080000D02*
X181563000Y-62080000D01*
X178019000Y-62120000D02*
X181481000Y-62120000D01*
X178106000Y-62160000D02*
X181394000Y-62160000D01*
X178198000Y-62200000D02*
X181302000Y-62200000D01*
X178297000Y-62240000D02*
X181203000Y-62240000D01*
X178404000Y-62280000D02*
X181096000Y-62280000D01*
X178522000Y-62320000D02*
X180978000Y-62320000D01*
X178653000Y-62360000D02*
X180847000Y-62360000D01*
X178803000Y-62400000D02*
X180697000Y-62400000D01*
X178982000Y-62440000D02*
X180518000Y-62440000D01*
X179217000Y-62480000D02*
X180283000Y-62480000D01*
X180790000Y-59280000D02*
X183735000Y-59280000D01*
X180790000Y-59320000D02*
X183726000Y-59320000D01*
X180790000Y-59360000D02*
X183717000Y-59360000D01*
X180790000Y-59400000D02*
X183707000Y-59400000D01*
X180790000Y-59440000D02*
X183697000Y-59440000D01*
X180790000Y-59480000D02*
X183686000Y-59480000D01*
X180790000Y-59520000D02*
X183675000Y-59520000D01*
X180790000Y-59560000D02*
X183663000Y-59560000D01*
X180790000Y-59600000D02*
X183651000Y-59600000D01*
X180790000Y-59640000D02*
X183639000Y-59640000D01*
X180790000Y-59680000D02*
X183626000Y-59680000D01*
X180790000Y-59720000D02*
X183613000Y-59720000D01*
X180790000Y-59760000D02*
X183599000Y-59760000D01*
X180790000Y-59800000D02*
X183585000Y-59800000D01*
X180790000Y-59840000D02*
X183570000Y-59840000D01*
X180790000Y-59880000D02*
X183555000Y-59880000D01*
X180790000Y-59920000D02*
X183539000Y-59920000D01*
X180790000Y-59960000D02*
X183523000Y-59960000D01*
X180790000Y-60000000D02*
X183507000Y-60000000D01*
X180790000Y-60040000D02*
X183490000Y-60040000D01*
X180790000Y-60080000D02*
X183472000Y-60080000D01*
X180790000Y-60120000D02*
X183454000Y-60120000D01*
X180790000Y-60160000D02*
X183435000Y-60160000D01*
X180790000Y-60200000D02*
X183416000Y-60200000D01*
X180790000Y-60240000D02*
X183396000Y-60240000D01*
X180790000Y-60280000D02*
X183376000Y-60280000D01*
X180790000Y-60320000D02*
X183355000Y-60320000D01*
X180790000Y-60360000D02*
X183334000Y-60360000D01*
X180790000Y-60400000D02*
X183312000Y-60400000D01*
X180790000Y-60440000D02*
X183289000Y-60440000D01*
X180790000Y-60480000D02*
X183266000Y-60480000D01*
X180790000Y-60520000D02*
X183243000Y-60520000D01*
X180790000Y-60560000D02*
X183218000Y-60560000D01*
X180790000Y-60600000D02*
X183193000Y-60600000D01*
X180790000Y-60640000D02*
X183168000Y-60640000D01*
X180790000Y-60680000D02*
X183142000Y-60680000D01*
X180790000Y-60720000D02*
X183115000Y-60720000D01*
X180790000Y-60760000D02*
X183087000Y-60760000D01*
X180790000Y-60800000D02*
X183059000Y-60800000D01*
X180790000Y-60840000D02*
X183030000Y-60840000D01*
X180790000Y-60880000D02*
X183000000Y-60880000D01*
X180790000Y-60920000D02*
X182969000Y-60920000D01*
X180790000Y-60960000D02*
X182938000Y-60960000D01*
X180790000Y-61000000D02*
X182906000Y-61000000D01*
X180790000Y-61040000D02*
X182873000Y-61040000D01*
X180790000Y-61080000D02*
X182839000Y-61080000D01*
X180790000Y-61120000D02*
X182805000Y-61120000D01*
X180790000Y-61160000D02*
X182769000Y-61160000D01*
X180790000Y-61200000D02*
X182732000Y-61200000D01*
X180790000Y-61240000D02*
X182695000Y-61240000D01*
X180790000Y-61280000D02*
X182656000Y-61280000D01*
X180790000Y-61320000D02*
X182617000Y-61320000D01*
X183870000Y-58400000D02*
G75*
G02*
X175630000Y-58400000I-4120000J0D01*
G01*
X175630000Y-58400000D02*
G75*
G02*
X183870000Y-58400000I4120000J0D01*
G01*
%TO.C,C12*%
X187670000Y-77847349D02*
X195830000Y-77847349D01*
X187670000Y-77887349D02*
X195830000Y-77887349D01*
X187671000Y-77927349D02*
X195829000Y-77927349D01*
X187672000Y-77967349D02*
X195828000Y-77967349D01*
X187673000Y-78007349D02*
X195827000Y-78007349D01*
X187675000Y-78047349D02*
X195825000Y-78047349D01*
X187677000Y-78087349D02*
X195823000Y-78087349D01*
X187680000Y-78127349D02*
X195820000Y-78127349D01*
X187682000Y-78167349D02*
X195818000Y-78167349D01*
X187686000Y-78207349D02*
X195814000Y-78207349D01*
X187689000Y-78247349D02*
X195811000Y-78247349D01*
X187694000Y-78287349D02*
X195806000Y-78287349D01*
X187698000Y-78327349D02*
X195802000Y-78327349D01*
X187703000Y-78367349D02*
X195797000Y-78367349D01*
X187708000Y-78407349D02*
X195792000Y-78407349D01*
X187714000Y-78447349D02*
X195786000Y-78447349D01*
X187720000Y-78487349D02*
X195780000Y-78487349D01*
X187727000Y-78527349D02*
X195773000Y-78527349D01*
X187733000Y-78567349D02*
X195767000Y-78567349D01*
X187741000Y-78607349D02*
X195759000Y-78607349D01*
X187748000Y-78647349D02*
X195752000Y-78647349D01*
X187757000Y-78687349D02*
X195743000Y-78687349D01*
X187765000Y-78727349D02*
X190710000Y-78727349D01*
X187774000Y-78767349D02*
X190710000Y-78767349D01*
X187783000Y-78807349D02*
X190710000Y-78807349D01*
X187793000Y-78847349D02*
X190710000Y-78847349D01*
X187803000Y-78887349D02*
X190710000Y-78887349D01*
X187814000Y-78927349D02*
X190710000Y-78927349D01*
X187825000Y-78967349D02*
X190710000Y-78967349D01*
X187837000Y-79007349D02*
X190710000Y-79007349D01*
X187849000Y-79047349D02*
X190710000Y-79047349D01*
X187861000Y-79087349D02*
X190710000Y-79087349D01*
X187874000Y-79127349D02*
X190710000Y-79127349D01*
X187887000Y-79167349D02*
X190710000Y-79167349D01*
X187901000Y-79207349D02*
X190710000Y-79207349D01*
X187915000Y-79247349D02*
X190710000Y-79247349D01*
X187930000Y-79287349D02*
X190710000Y-79287349D01*
X187945000Y-79327349D02*
X190710000Y-79327349D01*
X187961000Y-79367349D02*
X190710000Y-79367349D01*
X187977000Y-79407349D02*
X190710000Y-79407349D01*
X187993000Y-79447349D02*
X190710000Y-79447349D01*
X188010000Y-79487349D02*
X190710000Y-79487349D01*
X188028000Y-79527349D02*
X190710000Y-79527349D01*
X188046000Y-79567349D02*
X190710000Y-79567349D01*
X188065000Y-79607349D02*
X190710000Y-79607349D01*
X188084000Y-79647349D02*
X190710000Y-79647349D01*
X188104000Y-79687349D02*
X190710000Y-79687349D01*
X188124000Y-79727349D02*
X190710000Y-79727349D01*
X188145000Y-79767349D02*
X190710000Y-79767349D01*
X188166000Y-79807349D02*
X190710000Y-79807349D01*
X188188000Y-79847349D02*
X190710000Y-79847349D01*
X188211000Y-79887349D02*
X190710000Y-79887349D01*
X188234000Y-79927349D02*
X190710000Y-79927349D01*
X188257000Y-79967349D02*
X190710000Y-79967349D01*
X188282000Y-80007349D02*
X190710000Y-80007349D01*
X188307000Y-80047349D02*
X190710000Y-80047349D01*
X188332000Y-80087349D02*
X190710000Y-80087349D01*
X188358000Y-80127349D02*
X190710000Y-80127349D01*
X188385000Y-80167349D02*
X190710000Y-80167349D01*
X188413000Y-80207349D02*
X190710000Y-80207349D01*
X188441000Y-80247349D02*
X190710000Y-80247349D01*
X188470000Y-80287349D02*
X190710000Y-80287349D01*
X188500000Y-80327349D02*
X190710000Y-80327349D01*
X188531000Y-80367349D02*
X190710000Y-80367349D01*
X188562000Y-80407349D02*
X190710000Y-80407349D01*
X188594000Y-80447349D02*
X190710000Y-80447349D01*
X188627000Y-80487349D02*
X190710000Y-80487349D01*
X188661000Y-80527349D02*
X190710000Y-80527349D01*
X188695000Y-80567349D02*
X190710000Y-80567349D01*
X188731000Y-80607349D02*
X190710000Y-80607349D01*
X188768000Y-80647349D02*
X190710000Y-80647349D01*
X188805000Y-80687349D02*
X190710000Y-80687349D01*
X188844000Y-80727349D02*
X190710000Y-80727349D01*
X188883000Y-80767349D02*
X190710000Y-80767349D01*
X188924000Y-80807349D02*
X194576000Y-80807349D01*
X188966000Y-80847349D02*
X194534000Y-80847349D01*
X189009000Y-80887349D02*
X194491000Y-80887349D01*
X189035000Y-73837651D02*
X189835000Y-73837651D01*
X189054000Y-80927349D02*
X194446000Y-80927349D01*
X189099000Y-80967349D02*
X194401000Y-80967349D01*
X189146000Y-81007349D02*
X194354000Y-81007349D01*
X189195000Y-81047349D02*
X194305000Y-81047349D01*
X189245000Y-81087349D02*
X194255000Y-81087349D01*
X189297000Y-81127349D02*
X194203000Y-81127349D01*
X189350000Y-81167349D02*
X194150000Y-81167349D01*
X189406000Y-81207349D02*
X194094000Y-81207349D01*
X189435000Y-73437651D02*
X189435000Y-74237651D01*
X189463000Y-81247349D02*
X194037000Y-81247349D01*
X189523000Y-81287349D02*
X193977000Y-81287349D01*
X189585000Y-81327349D02*
X193915000Y-81327349D01*
X189649000Y-81367349D02*
X193851000Y-81367349D01*
X189716000Y-81407349D02*
X193784000Y-81407349D01*
X189786000Y-81447349D02*
X193714000Y-81447349D01*
X189860000Y-81487349D02*
X193640000Y-81487349D01*
X189937000Y-81527349D02*
X193563000Y-81527349D01*
X190019000Y-81567349D02*
X193481000Y-81567349D01*
X190106000Y-81607349D02*
X193394000Y-81607349D01*
X190198000Y-81647349D02*
X193302000Y-81647349D01*
X190297000Y-81687349D02*
X193203000Y-81687349D01*
X190404000Y-81727349D02*
X193096000Y-81727349D01*
X190522000Y-81767349D02*
X192978000Y-81767349D01*
X190653000Y-81807349D02*
X192847000Y-81807349D01*
X190803000Y-81847349D02*
X192697000Y-81847349D01*
X190982000Y-81887349D02*
X192518000Y-81887349D01*
X191217000Y-81927349D02*
X192283000Y-81927349D01*
X192790000Y-78727349D02*
X195735000Y-78727349D01*
X192790000Y-78767349D02*
X195726000Y-78767349D01*
X192790000Y-78807349D02*
X195717000Y-78807349D01*
X192790000Y-78847349D02*
X195707000Y-78847349D01*
X192790000Y-78887349D02*
X195697000Y-78887349D01*
X192790000Y-78927349D02*
X195686000Y-78927349D01*
X192790000Y-78967349D02*
X195675000Y-78967349D01*
X192790000Y-79007349D02*
X195663000Y-79007349D01*
X192790000Y-79047349D02*
X195651000Y-79047349D01*
X192790000Y-79087349D02*
X195639000Y-79087349D01*
X192790000Y-79127349D02*
X195626000Y-79127349D01*
X192790000Y-79167349D02*
X195613000Y-79167349D01*
X192790000Y-79207349D02*
X195599000Y-79207349D01*
X192790000Y-79247349D02*
X195585000Y-79247349D01*
X192790000Y-79287349D02*
X195570000Y-79287349D01*
X192790000Y-79327349D02*
X195555000Y-79327349D01*
X192790000Y-79367349D02*
X195539000Y-79367349D01*
X192790000Y-79407349D02*
X195523000Y-79407349D01*
X192790000Y-79447349D02*
X195507000Y-79447349D01*
X192790000Y-79487349D02*
X195490000Y-79487349D01*
X192790000Y-79527349D02*
X195472000Y-79527349D01*
X192790000Y-79567349D02*
X195454000Y-79567349D01*
X192790000Y-79607349D02*
X195435000Y-79607349D01*
X192790000Y-79647349D02*
X195416000Y-79647349D01*
X192790000Y-79687349D02*
X195396000Y-79687349D01*
X192790000Y-79727349D02*
X195376000Y-79727349D01*
X192790000Y-79767349D02*
X195355000Y-79767349D01*
X192790000Y-79807349D02*
X195334000Y-79807349D01*
X192790000Y-79847349D02*
X195312000Y-79847349D01*
X192790000Y-79887349D02*
X195289000Y-79887349D01*
X192790000Y-79927349D02*
X195266000Y-79927349D01*
X192790000Y-79967349D02*
X195243000Y-79967349D01*
X192790000Y-80007349D02*
X195218000Y-80007349D01*
X192790000Y-80047349D02*
X195193000Y-80047349D01*
X192790000Y-80087349D02*
X195168000Y-80087349D01*
X192790000Y-80127349D02*
X195142000Y-80127349D01*
X192790000Y-80167349D02*
X195115000Y-80167349D01*
X192790000Y-80207349D02*
X195087000Y-80207349D01*
X192790000Y-80247349D02*
X195059000Y-80247349D01*
X192790000Y-80287349D02*
X195030000Y-80287349D01*
X192790000Y-80327349D02*
X195000000Y-80327349D01*
X192790000Y-80367349D02*
X194969000Y-80367349D01*
X192790000Y-80407349D02*
X194938000Y-80407349D01*
X192790000Y-80447349D02*
X194906000Y-80447349D01*
X192790000Y-80487349D02*
X194873000Y-80487349D01*
X192790000Y-80527349D02*
X194839000Y-80527349D01*
X192790000Y-80567349D02*
X194805000Y-80567349D01*
X192790000Y-80607349D02*
X194769000Y-80607349D01*
X192790000Y-80647349D02*
X194732000Y-80647349D01*
X192790000Y-80687349D02*
X194695000Y-80687349D01*
X192790000Y-80727349D02*
X194656000Y-80727349D01*
X192790000Y-80767349D02*
X194617000Y-80767349D01*
X195870000Y-77847349D02*
G75*
G02*
X187630000Y-77847349I-4120000J0D01*
G01*
X187630000Y-77847349D02*
G75*
G02*
X195870000Y-77847349I4120000J0D01*
G01*
%TO.C,C6*%
X146480000Y-87080000D02*
X146480000Y-87801000D01*
X146480000Y-89199000D02*
X146480000Y-89920000D01*
X146480000Y-89920000D02*
X150520000Y-89920000D01*
X150520000Y-87080000D02*
X146480000Y-87080000D01*
X150520000Y-87801000D02*
X150520000Y-87080000D01*
X150520000Y-89920000D02*
X150520000Y-89199000D01*
%TO.C,D1*%
X145680000Y-69250000D02*
X146700000Y-69250000D01*
X151120000Y-67780000D02*
X151120000Y-70720000D01*
X151240000Y-67780000D02*
X151240000Y-70720000D01*
X151360000Y-67780000D02*
X151360000Y-70720000D01*
X153160000Y-69250000D02*
X152140000Y-69250000D01*
X146700000Y-67780000D02*
X152140000Y-67780000D01*
X152140000Y-70720000D01*
X146700000Y-70720000D01*
X146700000Y-67780000D01*
%TD*%
M02*
