  0
SECTION
  2
HEADER
  9
$ACADVER
  1
AC1032
  9
$ACADMAINTVER
 90
      228
  9
$DWGCODEPAGE
  3
ANSI_1252
  9
$REQUIREDVERSIONS
160
                 0
  9
$INSBASE
 10
0.0
 20
0.0
 30
0.0
  9
$EXTMIN
 10
1.000000000000000E+20
 20
1.000000000000000E+20
 30
1.000000000000000E+20
  9
$EXTMAX
 10
-1.000000000000000E+20
 20
-1.000000000000000E+20
 30
-1.000000000000000E+20
  9
$LIMMIN
 10
0.0
 20
0.0
  9
$LIMMAX
 10
12.0
 20
9.0
  9
$ORTHOMODE
 70
     0
  9
$REGENMODE
 70
     1
  9
$FILLMODE
 70
     1
  9
$QTEXTMODE
 70
     0
  9
$MIRRTEXT
 70
     0
  9
$LTSCALE
 40
1.0
  9
$ATTMODE
 70
     1
  9
$TEXTSIZE
 40
0.2
  9
$TRACEWID
 40
0.05
  9
$TEXTSTYLE
  7
Standard
  9
$CLAYER
  8
0
  9
$CELTYPE
  6
ByLayer
  9
$CECOLOR
 62
   256
  9
$CELTSCALE
 40
1.0
  9
$DISPSILH
 70
     0
  9
$DIMSCALE
 40
1.0
  9
$DIMASZ
 40
0.18
  9
$DIMEXO
 40
0.0625
  9
$DIMDLI
 40
0.38
  9
$DIMRND
 40
0.0
  9
$DIMDLE
 40
0.0
  9
$DIMEXE
 40
0.18
  9
$DIMTP
 40
0.0
  9
$DIMTM
 40
0.0
  9
$DIMTXT
 40
0.18
  9
$DIMCEN
 40
0.09
  9
$DIMTSZ
 40
0.0
  9
$DIMTOL
 70
     0
  9
$DIMLIM
 70
     0
  9
$DIMTIH
 70
     1
  9
$DIMTOH
 70
     1
  9
$DIMSE1
 70
     0
  9
$DIMSE2
 70
     0
  9
$DIMTAD
 70
     0
  9
$DIMZIN
 70
     0
  9
$DIMBLK
  1

  9
$DIMASO
 70
     1
  9
$DIMSHO
 70
     1
  9
$DIMPOST
  1

  9
$DIMAPOST
  1

  9
$DIMALT
 70
     0
  9
$DIMALTD
 70
     2
  9
$DIMALTF
 40
25.4
  9
$DIMLFAC
 40
1.0
  9
$DIMTOFL
 70
     0
  9
$DIMTVP
 40
0.0
  9
$DIMTIX
 70
     0
  9
$DIMSOXD
 70
     0
  9
$DIMSAH
 70
     0
  9
$DIMBLK1
  1

  9
$DIMBLK2
  1

  9
$DIMSTYLE
  2
Standard
  9
$DIMCLRD
 70
     0
  9
$DIMCLRE
 70
     0
  9
$DIMCLRT
 70
     0
  9
$DIMTFAC
 40
1.0
  9
$DIMGAP
 40
0.09
  9
$DIMJUST
 70
     0
  9
$DIMSD1
 70
     0
  9
$DIMSD2
 70
     0
  9
$DIMTOLJ
 70
     1
  9
$DIMTZIN
 70
     0
  9
$DIMALTZ
 70
     0
  9
$DIMALTTZ
 70
     0
  9
$DIMUPT
 70
     0
  9
$DIMDEC
 70
     4
  9
$DIMTDEC
 70
     4
  9
$DIMALTU
 70
     2
  9
$DIMALTTD
 70
     2
  9
$DIMTXSTY
  7
Standard
  9
$DIMAUNIT
 70
     0
  9
$DIMADEC
 70
     0
  9
$DIMALTRND
 40
0.0
  9
$DIMAZIN
 70
     0
  9
$DIMDSEP
 70
    46
  9
$DIMATFIT
 70
     3
  9
$DIMFRAC
 70
     0
  9
$DIMLDRBLK
  1

  9
$DIMLUNIT
 70
     2
  9
$DIMLWD
 70
    -2
  9
$DIMLWE
 70
    -2
  9
$DIMTMOVE
 70
     0
  9
$DIMFXL
 40
1.0
  9
$DIMFXLON
 70
     0
  9
$DIMJOGANG
 40
0.7853981633974483
  9
$DIMTFILL
 70
     0
  9
$DIMTFILLCLR
 70
     0
  9
$DIMARCSYM
 70
     0
  9
$DIMLTYPE
  6

  9
$DIMLTEX1
  6

  9
$DIMLTEX2
  6

  9
$DIMTXTDIRECTION
 70
     0
  9
$LUNITS
 70
     2
  9
$LUPREC
 70
     4
  9
$SKETCHINC
 40
0.1
  9
$FILLETRAD
 40
0.0
  9
$AUNITS
 70
     0
  9
$AUPREC
 70
     0
  9
$MENU
  1
.
  9
$ELEVATION
 40
0.0
  9
$PELEVATION
 40
0.0
  9
$THICKNESS
 40
0.0
  9
$LIMCHECK
 70
     0
  9
$CHAMFERA
 40
0.0
  9
$CHAMFERB
 40
0.0
  9
$CHAMFERC
 40
0.0
  9
$CHAMFERD
 40
0.0
  9
$SKPOLY
 70
     0
  9
$TDCREATE
 40
2461194.535439815
  9
$TDUCREATE
 40
2461194.702106482
  9
$TDUPDATE
 40
2461194.535439815
  9
$TDUUPDATE
 40
2461194.702106482
  9
$TDINDWG
 40
0.0000000000
  9
$TDUSRTIMER
 40
0.0000000000
  9
$USRTIMER
 70
     1
  9
$ANGBASE
 50
0.0
  9
$ANGDIR
 70
     0
  9
$PDMODE
 70
     0
  9
$PDSIZE
 40
0.0
  9
$PLINEWID
 40
0.0
  9
$SPLFRAME
 70
     0
  9
$SPLINETYPE
 70
     6
  9
$SPLINESEGS
 70
     8
  9
$HANDSEED
  5
98
  9
$SURFTAB1
 70
     6
  9
$SURFTAB2
 70
     6
  9
$SURFTYPE
 70
     6
  9
$SURFU
 70
     6
  9
$SURFV
 70
     6
  9
$UCSBASE
  2

  9
$UCSNAME
  2

  9
$UCSORG
 10
0.0
 20
0.0
 30
0.0
  9
$UCSXDIR
 10
1.0
 20
0.0
 30
0.0
  9
$UCSYDIR
 10
0.0
 20
1.0
 30
0.0
  9
$UCSORTHOREF
  2

  9
$UCSORTHOVIEW
 70
     0
  9
$UCSORGTOP
 10
0.0
 20
0.0
 30
0.0
  9
$UCSORGBOTTOM
 10
0.0
 20
0.0
 30
0.0
  9
$UCSORGLEFT
 10
0.0
 20
0.0
 30
0.0
  9
$UCSORGRIGHT
 10
0.0
 20
0.0
 30
0.0
  9
$UCSORGFRONT
 10
0.0
 20
0.0
 30
0.0
  9
$UCSORGBACK
 10
0.0
 20
0.0
 30
0.0
  9
$PUCSBASE
  2

  9
$PUCSNAME
  2

  9
$PUCSORG
 10
0.0
 20
0.0
 30
0.0
  9
$PUCSXDIR
 10
1.0
 20
0.0
 30
0.0
  9
$PUCSYDIR
 10
0.0
 20
1.0
 30
0.0
  9
$PUCSORTHOREF
  2

  9
$PUCSORTHOVIEW
 70
     0
  9
$PUCSORGTOP
 10
0.0
 20
0.0
 30
0.0
  9
$PUCSORGBOTTOM
 10
0.0
 20
0.0
 30
0.0
  9
$PUCSORGLEFT
 10
0.0
 20
0.0
 30
0.0
  9
$PUCSORGRIGHT
 10
0.0
 20
0.0
 30
0.0
  9
$PUCSORGFRONT
 10
0.0
 20
0.0
 30
0.0
  9
$PUCSORGBACK
 10
0.0
 20
0.0
 30
0.0
  9
$USERI1
 70
     0
  9
$USERI2
 70
     0
  9
$USERI3
 70
     0
  9
$USERI4
 70
     0
  9
$USERI5
 70
     0
  9
$USERR1
 40
0.0
  9
$USERR2
 40
0.0
  9
$USERR3
 40
0.0
  9
$USERR4
 40
0.0
  9
$USERR5
 40
0.0
  9
$WORLDVIEW
 70
     1
  9
$SHADEDGE
 70
     3
  9
$SHADEDIF
 70
    70
  9
$TILEMODE
 70
     1
  9
$MAXACTVP
 70
    64
  9
$PINSBASE
 10
0.0
 20
0.0
 30
0.0
  9
$PLIMCHECK
 70
     0
  9
$PEXTMIN
 10
1.000000000000000E+20
 20
1.000000000000000E+20
 30
1.000000000000000E+20
  9
$PEXTMAX
 10
-1.000000000000000E+20
 20
-1.000000000000000E+20
 30
-1.000000000000000E+20
  9
$PLIMMIN
 10
0.0
 20
0.0
  9
$PLIMMAX
 10
12.0
 20
9.0
  9
$UNITMODE
 70
     0
  9
$VISRETAIN
 70
     1
  9
$PLINEGEN
 70
     0
  9
$PSLTSCALE
 70
     1
  9
$TREEDEPTH
 70
  3020
  9
$CMLSTYLE
  2
Standard
  9
$CMLJUST
 70
     0
  9
$CMLSCALE
 40
1.0
  9
$PROXYGRAPHICS
 70
     1
  9
$MEASUREMENT
 70
     0
  9
$CELWEIGHT
370
    -1
  9
$ENDCAPS
280
     0
  9
$JOINSTYLE
280
     0
  9
$LWDISPLAY
290
     1
  9
$INSUNITS
 70
     0
  9
$HYPERLINKBASE
  1

  9
$STYLESHEET
  1

  9
$XEDIT
290
     1
  9
$CEPSNTYPE
380
     0
  9
$PSTYLEMODE
290
     1
  9
$FINGERPRINTGUID
  2
{A879EC8C-580F-2045-B68C-7C4B2BCD249A}
  9
$VERSIONGUID
  2
{DC4A18E4-1EEA-9848-B5BB-553182CA5651}
  9
$EXTNAMES
290
     1
  9
$PSVPSCALE
 40
0.0
  9
$OLESTARTUP
290
     0
  9
$SORTENTS
280
   127
  9
$INDEXCTL
280
     0
  9
$HIDETEXT
280
     1
  9
$XCLIPFRAME
280
     2
  9
$HALOGAP
280
     0
  9
$OBSCOLOR
 70
   257
  9
$OBSLTYPE
280
     0
  9
$INTERSECTIONDISPLAY
280
     0
  9
$INTERSECTIONCOLOR
 70
   257
  9
$DIMASSOC
280
     2
  9
$PROJECTNAME
  1

  9
$CAMERADISPLAY
290
     0
  9
$LENSLENGTH
 40
50.0
  9
$CAMERAHEIGHT
 40
0.0
  9
$STEPSPERSEC
 40
2.0
  9
$STEPSIZE
 40
6.0
  9
$3DDWFPREC
 40
2.0
  9
$PSOLWIDTH
 40
0.25
  9
$PSOLHEIGHT
 40
4.0
  9
$LOFTANG1
 40
1.570796326794896
  9
$LOFTANG2
 40
1.570796326794896
  9
$LOFTMAG1
 40
0.0
  9
$LOFTMAG2
 40
0.0
  9
$LOFTPARAM
 70
     7
  9
$LOFTNORMALS
280
     1
  9
$LATITUDE
 40
37.795
  9
$LONGITUDE
 40
-122.394
  9
$NORTHDIRECTION
 40
0.0
  9
$TIMEZONE
 70
 -8000
  9
$LIGHTGLYPHDISPLAY
280
     1
  9
$TILEMODELIGHTSYNCH
280
     1
  9
$CMATERIAL
347
11
  9
$SOLIDHIST
280
     0
  9
$SHOWHIST
280
     1
  9
$DWFFRAME
280
     2
  9
$DGNFRAME
280
     0
  9
$REALWORLDSCALE
290
     1
  9
$INTERFERECOLOR
 62
     1
  9
$INTERFEREOBJVS
345
33
  9
$INTERFEREVPVS
346
30
  9
$CSHADOW
280
     0
  9
$SHADOWPLANELOCATION
 40
0.0
  0
ENDSEC
  0
SECTION
  2
CLASSES
  0
CLASS
  1
ACDBDICTIONARYWDFLT
  2
AcDbDictionaryWithDefault
  3
ObjectDBX Classes
 90
        0
 91
        1
280
     0
281
     0
  0
CLASS
  1
MATERIAL
  2
AcDbMaterial
  3
ObjectDBX Classes
 90
     1153
 91
        3
280
     0
281
     0
  0
CLASS
  1
VISUALSTYLE
  2
AcDbVisualStyle
  3
ObjectDBX Classes
 90
     4095
 91
       24
280
     0
281
     0
  0
CLASS
  1
SCALE
  2
AcDbScale
  3
ObjectDBX Classes
 90
     1153
 91
       17
280
     0
281
     0
  0
CLASS
  1
TABLESTYLE
  2
AcDbTableStyle
  3
ObjectDBX Classes
 90
     4095
 91
        1
280
     0
281
     0
  0
CLASS
  1
MLEADERSTYLE
  2
AcDbMLeaderStyle
  3
ACDB_MLEADERSTYLE_CLASS
 90
     4095
 91
        1
280
     0
281
     0
  0
CLASS
  1
ACDBSECTIONVIEWSTYLE
  2
AcDbSectionViewStyle
  3
ObjectDBX Classes
 90
     1025
 91
        1
280
     0
281
     0
  0
CLASS
  1
ACDBDETAILVIEWSTYLE
  2
AcDbDetailViewStyle
  3
ObjectDBX Classes
 90
     1025
 91
        1
280
     0
281
     0
  0
CLASS
  1
DICTIONARYVAR
  2
AcDbDictionaryVar
  3
ObjectDBX Classes
 90
        0
 91
        5
280
     0
281
     0
  0
CLASS
  1
CELLSTYLEMAP
  2
AcDbCellStyleMap
  3
ObjectDBX Classes
 90
     1152
 91
        1
280
     0
281
     0
  0
ENDSEC
  0
SECTION
  2
TABLES
  0
TABLE
  2
VPORT
  5
8
330
0
100
AcDbSymbolTable
 70
     1
  0
VPORT
  5
57
330
8
100
AcDbSymbolTableRecord
100
AcDbViewportTableRecord
  2
*Active
 70
     0
 10
0.0
 20
0.0
 11
1.0
 21
1.0
 12
0.0
 22
0.0
 13
0.0
 23
0.0
 14
1.0
 24
1.0
 15
0.0
 25
0.0
 16
0.0
 26
0.0
 36
1.0
 17
675.0
 27
-540.0
 37
0.0
 40
1101.6
 41
1.25
 42
50.0
 43
0.0
 44
0.0
 50
0.0
 51
0.0
 71
     0
 72
   100
 73
     1
 74
     1
 75
     0
 76
     0
 77
     0
 78
     0
281
     0
 65
     1
110
0.0
120
0.0
130
0.0
111
1.0
121
0.0
131
0.0
112
0.0
122
1.0
132
0.0
 79
     0
146
0.0
 60
     3
 61
     5
292
     1
282
     1
141
0.0
142
0.0
 63
   250
421
  3355443
  0
ENDTAB
  0
TABLE
  2
LTYPE
  5
5
330
0
100
AcDbSymbolTable
 70
     1
  0
LTYPE
  5
5B
330
5
100
AcDbSymbolTableRecord
100
AcDbLinetypeTableRecord
  2
ByBlock
 70
     0
  3

 72
    65
 73
     0
 40
0.0
  0
LTYPE
  5
5C
330
5
100
AcDbSymbolTableRecord
100
AcDbLinetypeTableRecord
  2
ByLayer
 70
     0
  3

 72
    65
 73
     0
 40
0.0
  0
LTYPE
  5
5D
330
5
100
AcDbSymbolTableRecord
100
AcDbLinetypeTableRecord
  2
Continuous
 70
     0
  3
Solid line
 72
    65
 73
     0
 40
0.0
  0
ENDTAB
  0
TABLE
  2
LAYER
  5
2
330
0
100
AcDbSymbolTable
 70
     2
  0
LAYER
  5
54
330
2
100
AcDbSymbolTableRecord
100
AcDbLayerTableRecord
  2
0
 70
     0
 62
     7
  6
Continuous
370
    -3
390
F
347
21
348
0
  0
LAYER
  5
78
330
2
100
AcDbSymbolTableRecord
100
AcDbLayerTableRecord
  2
Capa 1
 70
     0
 62
     7
  6
Continuous
370
     0
390
F
347
21
348
0
  0
ENDTAB
  0
TABLE
  2
STYLE
  5
3
330
0
100
AcDbSymbolTable
 70
     2
  0
STYLE
  5
55
330
3
100
AcDbSymbolTableRecord
100
AcDbTextStyleTableRecord
  2
Standard
 70
     0
 40
0.0
 41
1.0
 50
0.0
 71
     0
 42
0.2
  3
txt
  4

  0
STYLE
  5
5A
330
3
100
AcDbSymbolTableRecord
100
AcDbTextStyleTableRecord
  2
Annotative
 70
     0
 40
0.0
 41
1.0
 50
0.0
 71
     0
 42
0.2
  3
txt
  4

1001
AcadAnnotative
1000
AnnotativeData
1002
{
1070
     1
1070
     1
1002
}
  0
ENDTAB
  0
TABLE
  2
VIEW
  5
6
330
0
100
AcDbSymbolTable
 70
     0
  0
ENDTAB
  0
TABLE
  2
UCS
  5
7
330
0
100
AcDbSymbolTable
 70
     0
  0
ENDTAB
  0
TABLE
  2
APPID
  5
9
330
0
100
AcDbSymbolTable
 70
     2
  0
APPID
  5
56
330
9
100
AcDbSymbolTableRecord
100
AcDbRegAppTableRecord
  2
ACAD
 70
     0
  0
APPID
  5
5E
330
9
100
AcDbSymbolTableRecord
100
AcDbRegAppTableRecord
  2
AcadAnnotative
 70
     0
  0
ENDTAB
  0
TABLE
  2
DIMSTYLE
  5
A
330
0
100
AcDbSymbolTable
 70
     2
100
AcDbDimStyleTable
 71
     0
  0
DIMSTYLE
105
58
330
A
100
AcDbSymbolTableRecord
100
AcDbDimStyleTableRecord
  2
Standard
 70
     0
340
55
  0
DIMSTYLE
105
59
330
A
100
AcDbSymbolTableRecord
100
AcDbDimStyleTableRecord
  2
Annotative
 70
     0
340
55
1001
AcadAnnotative
1000
AnnotativeData
1002
{
1070
     1
1070
     1
1002
}
  0
ENDTAB
  0
TABLE
  2
BLOCK_RECORD
  5
1
330
0
100
AcDbSymbolTable
 70
     1
  0
BLOCK_RECORD
  5
70
330
1
100
AcDbSymbolTableRecord
100
AcDbBlockTableRecord
  2
*Model_Space
340
73
 70
     0
280
     1
281
     0
  0
BLOCK_RECORD
  5
6C
330
1
100
AcDbSymbolTableRecord
100
AcDbBlockTableRecord
  2
*Paper_Space
340
6F
 70
     0
280
     1
281
     0
  0
BLOCK_RECORD
  5
74
330
1
100
AcDbSymbolTableRecord
100
AcDbBlockTableRecord
  2
*Paper_Space0
340
77
 70
     0
280
     1
281
     0
  0
ENDTAB
  0
ENDSEC
  0
SECTION
  2
BLOCKS
  0
BLOCK
  5
71
330
70
100
AcDbEntity
  8
0
100
AcDbBlockBegin
  2
*Model_Space
 70
     0
 10
0.0
 20
0.0
 30
0.0
  3
*Model_Space
  1

  0
ENDBLK
  5
72
330
70
100
AcDbEntity
  8
0
100
AcDbBlockEnd
  0
BLOCK
  5
6D
330
6C
100
AcDbEntity
 67
     1
  8
0
100
AcDbBlockBegin
  2
*Paper_Space
 70
     0
 10
0.0
 20
0.0
 30
0.0
  3
*Paper_Space
  1

  0
ENDBLK
  5
6E
330
6C
100
AcDbEntity
 67
     1
  8
0
100
AcDbBlockEnd
  0
BLOCK
  5
75
330
74
100
AcDbEntity
 67
     1
  8
0
100
AcDbBlockBegin
  2
*Paper_Space0
 70
     0
 10
0.0
 20
0.0
 30
0.0
  3
*Paper_Space0
  1

  0
ENDBLK
  5
76
330
74
100
AcDbEntity
 67
     1
  8
0
100
AcDbBlockEnd
  0
ENDSEC
  0
SECTION
  2
ENTITIES
  0
SPLINE
  5
79
330
70
100
AcDbEntity
  8
Capa 1
100
AcDbSpline
210
0.0
220
0.0
230
1.0
 70
     9
 71
     3
 72
   122
 73
   118
 74
     0
 42
0.0000000001
 43
0.0000000001
 40
0.0
 40
0.0
 40
0.0
 40
0.0
 40
1.0
 40
1.0
 40
1.0
 40
2.0
 40
2.0
 40
2.0
 40
3.0
 40
3.0
 40
3.0
 40
4.0
 40
4.0
 40
4.0
 40
5.0
 40
5.0
 40
5.0
 40
6.0
 40
6.0
 40
6.0
 40
7.0
 40
7.0
 40
7.0
 40
8.0
 40
8.0
 40
8.0
 40
9.0
 40
9.0
 40
9.0
 40
10.0
 40
10.0
 40
10.0
 40
11.0
 40
11.0
 40
11.0
 40
12.0
 40
12.0
 40
12.0
 40
13.0
 40
13.0
 40
13.0
 40
14.0
 40
14.0
 40
14.0
 40
15.0
 40
15.0
 40
15.0
 40
16.0
 40
16.0
 40
16.0
 40
17.0
 40
17.0
 40
17.0
 40
18.0
 40
18.0
 40
18.0
 40
19.0
 40
19.0
 40
19.0
 40
20.0
 40
20.0
 40
20.0
 40
21.0
 40
21.0
 40
21.0
 40
22.0
 40
22.0
 40
22.0
 40
23.0
 40
23.0
 40
23.0
 40
24.0
 40
24.0
 40
24.0
 40
25.0
 40
25.0
 40
25.0
 40
26.0
 40
26.0
 40
26.0
 40
27.0
 40
27.0
 40
27.0
 40
28.0
 40
28.0
 40
28.0
 40
29.0
 40
29.0
 40
29.0
 40
30.0
 40
30.0
 40
30.0
 40
31.0
 40
31.0
 40
31.0
 40
32.0
 40
32.0
 40
32.0
 40
33.0
 40
33.0
 40
33.0
 40
34.0
 40
34.0
 40
34.0
 40
35.0
 40
35.0
 40
35.0
 40
36.0
 40
36.0
 40
36.0
 40
37.0
 40
37.0
 40
37.0
 40
38.0
 40
38.0
 40
38.0
 40
39.0
 40
39.0
 40
39.0
 40
39.0
 10
556.449390287742
 20
-239.2497784404595
 30
0.0
 10
556.449390287742
 20
-221.3696295385207
 30
0.0
 10
556.3213188302306
 20
-203.1767645383079
 30
0.0
 10
556.4911493447961
 20
-184.9866938242003
 30
0.0
 10
556.6199526392065
 20
-171.1914031141396
 30
0.0
 10
550.2154261580217
 20
-160.82281642203
 30
0.0
 10
537.6166321547262
 20
-157.0085826218437
 30
0.0
 10
519.7200708318951
 20
-151.5904840389203
 30
0.0
 10
501.277891834754
 20
-146.4738467907882
 30
0.0
 10
482.7619192835245
 20
-144.9445517463991
 30
0.0
 10
452.9582828892089
 20
-142.4829631018838
 30
0.0
 10
440.2057255178361
 20
-156.2207935317774
 30
0.0
 10
439.8957482369096
 20
-185.9924150536708
 30
0.0
 10
439.6642992730467
 20
-208.2216706879453
 30
0.0
 10
441.6981627258165
 20
-230.9879614995698
 30
0.0
 10
437.6224743218781
 20
-252.5510238431434
 30
0.0
 10
430.3627520692207
 20
-290.9598391612862
 30
0.0
 10
419.1691847099828
 20
-328.6207615854346
 30
0.0
 10
409.7626299994353
 20
-366.6295504529235
 30
0.0
 10
402.3116100164779
 20
-396.7366748109798
 30
0.0
 10
391.2833269122748
 20
-424.6417908330322
 30
0.0
 10
374.7575903549777
 20
-451.6931415652907
 30
0.0
 10
324.1874831458062
 20
-534.4723150783956
 30
0.0
 10
334.1371689484668
 20
-637.8920816900681
 30
0.0
 10
395.8508762436813
 20
-713.2074952449457
 30
0.0
 10
408.9940903699934
 20
-729.2474958616257
 30
0.0
 10
420.937657490539
 20
-746.4452623549459
 30
0.0
 10
431.9132926916909
 20
-764.0572484981912
 30
0.0
 10
489.4589033137862
 20
-856.3974932840428
 30
0.0
 10
570.4369446048421
 20
-921.4511350597495
 30
0.0
 10
669.5019356971234
 20
-963.2478892203398
 30
0.0
 10
742.6593682822531
 20
-994.1137509637083
 30
0.0
 10
800.8870619836434
 20
-976.8879972555769
 30
0.0
 10
846.3133759216761
 20
-915.0236560631711
 30
0.0
 10
890.7292670463593
 20
-854.535434247411
 30
0.0
 10
919.6253813308468
 20
-786.8128500566163
 30
0.0
 10
934.7929006764788
 20
-713.2524255913813
 30
0.0
 10
942.2860678118176
 20
-676.9114041686535
 30
0.0
 10
943.2229964589005
 20
-640.4893484488475
 30
0.0
 10
927.5523725097919
 20
-606.4401738781234
 30
0.0
 10
918.233427546933
 20
-586.1919340318563
 30
0.0
 10
915.3481273031321
 20
-568.580169657349
 30
0.0
 10
918.9033909636254
 20
-545.5695784033032
 30
0.0
 10
927.3285634796266
 20
-491.0394842257892
 30
0.0
 10
904.6356761750557
 20
-445.5168378420276
 30
0.0
 10
865.1066370389635
 20
-408.0991291934833
 30
0.0
 10
861.2169904457696
 20
-404.4172802417933
 30
0.0
 10
857.3634921600641
 20
-400.6972870670669
 30
0.0
 10
851.429758574377
 20
-395.0211162030555
 30
0.0
 10
867.2595237839342
 20
-393.8638382176378
 30
0.0
 10
879.3078212002528
 20
-393.0079883017015
 30
0.0
 10
891.3520824251845
 20
-392.0980711672992
 30
0.0
 10
938.3997477499887
 20
-388.5436948865463
 30
0.0
 10
950.6702131076654
 20
-373.5409510139643
 30
0.0
 10
944.9418817452606
 20
-326.594261029145
 30
0.0
 10
944.7661521817426
 20
-325.1538287183057
 30
0.0
 10
944.4748810955188
 20
-323.7275452529875
 30
0.0
 10
944.2388747836867
 20
-322.2943869567743
 30
0.0
 10
941.0920204671802
 20
-303.1856835968374
 30
0.0
 10
933.5499311439162
 20
-295.0759113031208
 30
0.0
 10
914.4063197433807
 20
-292.5491448263365
 30
0.0
 10
894.4293457055609
 20
-289.9123810552146
 30
0.0
 10
874.3115485066665
 20
-288.3426575697822
 30
0.0
 10
857.1314333321188
 20
-286.5984242639597
 30
0.0
 10
851.9898577485546
 20
-269.2692376161549
 30
0.0
 10
850.3491681261239
 20
-252.4453732160828
 30
0.0
 10
842.3872705447339
 20
-239.5131953481469
 30
0.0
 10
829.9932356353256
 20
-219.3819163346088
 30
0.0
 10
832.0064524167628
 20
-203.3695702796312
 30
0.0
 10
844.896672744413
 20
-184.9337354494273
 30
0.0
 10
866.3611385469211
 20
-154.2349764505807
 30
0.0
 10
862.8943162669566
 20
-143.1055123048318
 30
0.0
 10
829.4046169989197
 20
-125.2904857929779
 30
0.0
 10
826.4224481618002
 20
-123.7041074752778
 30
0.0
 10
823.3097462339628
 20
-122.3210578255475
 30
0.0
 10
820.1569928685039
 20
-121.1044456141217
 30
0.0
 10
802.5033570427403
 20
-114.2921202370426
 30
0.0
 10
793.6258649687479
 20
-117.3693388998617
 30
0.0
 10
783.6004090979458
 20
-133.3499942020962
 30
0.0
 10
777.8403648032053
 20
-142.5315637209451
 30
0.0
 10
771.8078110591322
 20
-151.5421606307827
 30
0.0
 10
765.897895438009
 20
-160.6297223813462
 30
0.0
 10
764.7703343668982
 20
-160.1042413552768
 30
0.0
 10
763.6427732957872
 20
-159.578749240768
 30
0.0
 10
762.5151678709244
 20
-159.0532682146986
 30
0.0
 10
765.9101814271799
 20
-141.6701474096698
 30
0.0
 10
768.9827432098937
 20
-124.2158055742456
 30
0.0
 10
772.802310875686
 20
-106.9264707687634
 30
0.0
 10
775.8569093890346
 20
-93.0996778093886
 30
0.0
 10
770.341653448926
 20
-85.03608331126088
 30
0.0
 10
757.0874218825629
 20
-82.76429544166239
 30
0.0
 10
742.8268480479873
 20
-80.32004356828656
 30
0.0
 10
728.3557713087048
 20
-79.09917339708044
 30
0.0
 10
713.973224657453
 20
-77.37259842706681
 30
0.0
 10
702.462139879528
 20
-75.99074078430567
 30
0.0
 10
696.084292179883
 20
-81.3911311334532
 30
0.0
 10
692.5800796873882
 20
-92.21554129084598
 30
0.0
 10
685.436020930254
 20
-114.2831275146936
 30
0.0
 10
677.702899999198
 20
-136.1616448004624
 30
0.0
 10
670.0501924196478
 20
-158.061318823894
 30
0.0
 10
668.788439073316
 20
-161.6720354526833
 30
0.0
 10
666.7018390099892
 20
-164.9945192519371
 30
0.0
 10
663.3768822042584
 20
-171.7319976797444
 30
0.0
 10
655.2428255363492
 20
-151.3419145482803
 30
0.0
 10
649.2444241809462
 20
-134.5204008968376
 30
0.0
 10
641.8846287764245
 20
-118.3172671960583
 30
0.0
 10
633.0877274689419
 20
-98.95015335770677
 30
0.0
 10
610.8713990475644
 20
-93.33550668599583
 30
0.0
 10
585.0812005669304
 20
-102.9160825193021
 30
0.0
 10
566.7006067537731
 20
-109.7441312999462
 30
0.0
 10
561.1682524424541
 20
-121.8777310286841
 30
0.0
 10
566.6956169567283
 20
-143.9140035066439
 30
0.0
 10
570.4612061069228
 20
-158.9264830268512
 30
0.0
 10
574.8675517284346
 20
-173.784023817846
 30
0.0
 10
578.3872436802093
 20
-188.8510473593069
 30
0.0
 10
583.5347404896001
 20
-210.886199905136
 30
0.0
 10
575.1507060781305
 20
-229.2280047901822
 30
0.0
 10
556.449390287742
 20
-239.2497784404595
 30
0.0
  0
SPLINE
  5
7A
330
70
100
AcDbEntity
  8
Capa 1
100
AcDbSpline
210
0.0
220
0.0
230
1.0
 70
     9
 71
     3
 72
    17
 73
    13
 74
     0
 42
0.0000000001
 43
0.0000000001
 40
0.0
 40
0.0
 40
0.0
 40
0.0
 40
1.0
 40
1.0
 40
1.0
 40
2.0
 40
2.0
 40
2.0
 40
3.0
 40
3.0
 40
3.0
 40
4.0
 40
4.0
 40
4.0
 40
4.0
 10
300.6842105263158
 20
-11.15792176490595
 30
0.0
 10
532.256547814306
 20
-11.15790825087333
 30
0.0
 10
763.8289703446625
 20
-11.15790825087333
 30
0.0
 10
995.4014594056461
 20
-11.15789473684162
 30
0.0
 10
995.4014594056461
 20
-350.2806259833997
 30
0.0
 10
995.4014594056461
 20
-689.4033710905041
 30
0.0
 10
995.4015037593981
 20
-1028.526227081977
 30
0.0
 10
763.8291921134205
 20
-1028.526227081977
 30
0.0
 10
532.2568361136909
 20
-1028.526227081977
 30
0.0
 10
300.6843817040754
 20
-1028.526315789473
 30
0.0
 10
300.684296115196
 20
-689.403592859242
 30
0.0
 10
300.684296115196
 20
-350.2807590446427
 30
0.0
 10
300.6842105263158
 20
-11.15792176490595
 30
0.0
  0
SPLINE
  5
7B
330
70
100
AcDbEntity
  8
Capa 1
100
AcDbSpline
210
0.0
220
0.0
230
1.0
 70
     9
 71
     3
 72
    20
 73
    16
 74
     0
 42
0.0000000001
 43
0.0000000001
 40
0.0
 40
0.0
 40
0.0
 40
0.0
 40
1.0
 40
1.0
 40
1.0
 40
2.0
 40
2.0
 40
2.0
 40
3.0
 40
3.0
 40
3.0
 40
4.0
 40
4.0
 40
4.0
 40
5.0
 40
5.0
 40
5.0
 40
5.0
 10
887.5651591205096
 20
-550.5976523056815
 30
0.0
 10
888.7648393915915
 20
-545.0118743795155
 30
0.0
 10
890.184425562702
 20
-540.9396237404271
 30
0.0
 10
890.4472658942031
 20
-536.7941450638572
 30
0.0
 10
893.8180623021271
 20
-483.6273076761572
 30
0.0
 10
861.1371980467884
 20
-436.5675821652812
 30
0.0
 10
817.9531436630368
 20
-411.6840652064119
 30
0.0
 10
814.536574183543
 20
-409.7153797602695
 30
0.0
 10
806.6252398788856
 20
-410.4837640857095
 30
0.0
 10
803.9098145034003
 20
-413.1474727585682
 30
0.0
 10
777.7356899496208
 20
-438.822925882915
 30
0.0
 10
772.3137099489559
 20
-496.5268411857723
 30
0.0
 10
810.8323262716986
 20
-516.4996886124681
 30
0.0
 10
835.1686531312971
 20
-529.118773375274
 30
0.0
 10
860.9737988261914
 20
-538.9052503939165
 30
0.0
 10
887.5651591205096
 20
-550.5976523056815
 30
0.0
  0
SPLINE
  5
7C
330
70
100
AcDbEntity
  8
Capa 1
100
AcDbSpline
210
0.0
220
0.0
230
1.0
 70
     9
 71
     3
 72
    23
 73
    19
 74
     0
 42
0.0000000001
 43
0.0000000001
 40
0.0
 40
0.0
 40
0.0
 40
0.0
 40
1.0
 40
1.0
 40
1.0
 40
2.0
 40
2.0
 40
2.0
 40
3.0
 40
3.0
 40
3.0
 40
4.0
 40
4.0
 40
4.0
 40
5.0
 40
5.0
 40
5.0
 40
6.0
 40
6.0
 40
6.0
 40
6.0
 10
441.949881354124
 20
-380.5391740361593
 30
0.0
 10
463.3417511538327
 20
-372.590161901041
 30
0.0
 10
483.5091802006764
 20
-365.4040120497703
 30
0.0
 10
503.3482806019001
 20
-357.403704805417
 30
0.0
 10
506.4484082411836
 20
-356.1535278954079
 30
0.0
 10
509.7038848951606
 20
-351.3878729413927
 30
0.0
 10
510.103179543209
 20
-347.9266173539709
 30
0.0
 10
515.9689188278189
 20
-297.0781060056625
 30
0.0
 10
521.638570176965
 20
-246.2009199594541
 30
0.0
 10
526.4019191444512
 20
-195.2414798881072
 30
0.0
 10
526.8349891742809
 20
-190.6085091703853
 30
0.0
 10
521.8641311803139
 20
-182.8812768622856
 30
0.0
 10
517.4468301821771
 20
-180.8551422244136
 30
0.0
 10
502.4134587580147
 20
-173.9596313934926
 30
0.0
 10
486.2941744354174
 20
-171.6180196365503
 30
0.0
 10
468.2951781234533
 20
-176.0326922964477
 30
0.0
 10
476.9774915138859
 20
-247.3032880051988
 30
0.0
 10
455.9117992028468
 20
-314.3097587622378
 30
0.0
 10
441.949881354124
 20
-380.5391740361593
 30
0.0
  0
SPLINE
  5
7D
330
70
100
AcDbEntity
  8
Capa 1
100
AcDbSpline
210
0.0
220
0.0
230
1.0
 70
     9
 71
     3
 72
    32
 73
    28
 74
     0
 42
0.0000000001
 43
0.0000000001
 40
0.0
 40
0.0
 40
0.0
 40
0.0
 40
1.0
 40
1.0
 40
1.0
 40
2.0
 40
2.0
 40
2.0
 40
3.0
 40
3.0
 40
3.0
 40
4.0
 40
4.0
 40
4.0
 40
5.0
 40
5.0
 40
5.0
 40
6.0
 40
6.0
 40
6.0
 40
7.0
 40
7.0
 40
7.0
 40
8.0
 40
8.0
 40
8.0
 40
9.0
 40
9.0
 40
9.0
 40
9.0
 10
404.4642528158155
 20
-676.5930773212931
 30
0.0
 10
411.2736846946172
 20
-652.1686660050363
 30
0.0
 10
415.8301899418948
 20
-628.3909323304869
 30
0.0
 10
424.5524217086949
 20
-606.2545534439305
 30
0.0
 10
438.177295399626
 20
-571.6756620642263
 30
0.0
 10
463.6803366044896
 20
-545.8035887762526
 30
0.0
 10
492.417076771334
 20
-522.7601757488964
 30
0.0
 10
515.3587886219265
 20
-504.363704869791
 30
0.0
 10
539.5970049831649
 20
-486.5175752923505
 30
0.0
 10
549.5074293994029
 20
-456.9520323707856
 30
0.0
 10
551.5747134039429
 20
-450.7848211658056
 30
0.0
 10
552.3710184818355
 20
-441.1205830758699
 30
0.0
 10
548.991284792979
 20
-436.7512066808276
 30
0.0
 10
536.9145344450599
 20
-421.1381995934152
 30
0.0
 10
523.4881659690509
 20
-406.3559825544789
 30
0.0
 10
509.0172222910223
 20
-392.9365344141306
 30
0.0
 10
504.6110540845165
 20
-388.8504897595012
 30
0.0
 10
492.944398523141
 20
-386.6689506780677
 30
0.0
 10
488.4216908345197
 20
-389.569508363732
 30
0.0
 10
451.8029785465232
 20
-413.0541524733725
 30
0.0
 10
414.9195852463381
 20
-436.7416706250687
 30
0.0
 10
392.9572929367832
 20
-476.4036789080655
 30
0.0
 10
368.192858123306
 20
-521.1260949755269
 30
0.0
 10
365.3949957564055
 20
-568.2177108310098
 30
0.0
 10
378.2654731204102
 20
-616.9550281417651
 30
0.0
 10
383.9280389577516
 20
-638.3977144140353
 30
0.0
 10
391.0298119570307
 20
-659.1067009915804
 30
0.0
 10
404.4642528158155
 20
-676.5930773212931
 30
0.0
  0
SPLINE
  5
7E
330
70
100
AcDbEntity
  8
Capa 1
100
AcDbSpline
210
0.0
220
0.0
230
1.0
 70
     9
 71
     3
 72
    35
 73
    31
 74
     0
 42
0.0000000001
 43
0.0000000001
 40
0.0
 40
0.0
 40
0.0
 40
0.0
 40
1.0
 40
1.0
 40
1.0
 40
2.0
 40
2.0
 40
2.0
 40
3.0
 40
3.0
 40
3.0
 40
4.0
 40
4.0
 40
4.0
 40
5.0
 40
5.0
 40
5.0
 40
6.0
 40
6.0
 40
6.0
 40
7.0
 40
7.0
 40
7.0
 40
8.0
 40
8.0
 40
8.0
 40
9.0
 40
9.0
 40
9.0
 40
10.0
 40
10.0
 40
10.0
 40
10.0
 10
616.8169529080323
 20
-445.8144958429529
 30
0.0
 10
654.3862658870175
 20
-483.5331003160072
 30
0.0
 10
700.0508925319609
 20
-494.1612340513166
 30
0.0
 10
751.0416063667853
 20
-490.5974547760479
 30
0.0
 10
751.0416063667853
 20
-484.087788284949
 30
0.0
 10
751.2878583952187
 20
-478.8469938085208
 30
0.0
 10
751.0037726167411
 20
-473.6352066831013
 30
0.0
 10
747.9471338308212
 20
-417.5590295676884
 30
0.0
 10
778.1420146672844
 20
-378.0940849857961
 30
0.0
 10
833.1293119902129
 20
-368.3326013039914
 30
0.0
 10
854.9849335273666
 20
-364.4527350456219
 30
0.0
 10
877.3377162652923
 20
-363.4245264660594
 30
0.0
 10
899.4094292798436
 20
-360.6608444458479
 30
0.0
 10
903.1823367990382
 20
-360.1884326789204
 30
0.0
 10
908.550914882875
 20
-358.4789948881808
 30
0.0
 10
909.9964923523767
 20
-355.6898759936539
 30
0.0
 10
918.760305761225
 20
-338.7799431461381
 30
0.0
 10
908.7012741005237
 20
-319.6606392404974
 30
0.0
 10
889.7656374408615
 20
-319.1161304566567
 30
0.0
 10
840.418584929821
 20
-317.697165359712
 30
0.0
 10
790.9784338943427
 20
-315.8040365228053
 30
0.0
 10
741.6821220750389
 20
-317.398952936941
 30
0.0
 10
694.3430969565087
 20
-318.9305543762111
 30
0.0
 10
667.6467513323468
 20
-346.881554350276
 30
0.0
 10
660.665648258293
 20
-394.527414637224
 30
0.0
 10
659.6380161893539
 20
-401.541028409878
 30
0.0
 10
654.9896764995556
 20
-408.9064561094174
 30
0.0
 10
650.0318363316583
 20
-414.276807882924
 30
0.0
 10
639.9525350065133
 20
-425.1948377133085
 30
0.0
 10
628.517295143687
 20
-434.8610717218917
 30
0.0
 10
616.8169529080323
 20
-445.8144958429529
 30
0.0
  0
SPLINE
  5
7F
330
70
100
AcDbEntity
  8
Capa 1
100
AcDbSpline
210
0.0
220
0.0
230
1.0
 70
     9
 71
     3
 72
    80
 73
    76
 74
     0
 42
0.0000000001
 43
0.0000000001
 40
0.0
 40
0.0
 40
0.0
 40
0.0
 40
1.0
 40
1.0
 40
1.0
 40
2.0
 40
2.0
 40
2.0
 40
3.0
 40
3.0
 40
3.0
 40
4.0
 40
4.0
 40
4.0
 40
5.0
 40
5.0
 40
5.0
 40
6.0
 40
6.0
 40
6.0
 40
7.0
 40
7.0
 40
7.0
 40
8.0
 40
8.0
 40
8.0
 40
9.0
 40
9.0
 40
9.0
 40
10.0
 40
10.0
 40
10.0
 40
11.0
 40
11.0
 40
11.0
 40
12.0
 40
12.0
 40
12.0
 40
13.0
 40
13.0
 40
13.0
 40
14.0
 40
14.0
 40
14.0
 40
15.0
 40
15.0
 40
15.0
 40
16.0
 40
16.0
 40
16.0
 40
17.0
 40
17.0
 40
17.0
 40
18.0
 40
18.0
 40
18.0
 40
19.0
 40
19.0
 40
19.0
 40
20.0
 40
20.0
 40
20.0
 40
21.0
 40
21.0
 40
21.0
 40
22.0
 40
22.0
 40
22.0
 40
23.0
 40
23.0
 40
23.0
 40
24.0
 40
24.0
 40
24.0
 40
25.0
 40
25.0
 40
25.0
 40
25.0
 10
593.6242653544704
 20
-133.4432146913596
 30
0.0
 10
597.3836671563285
 20
-145.6047240158477
 30
0.0
 10
600.889343322623
 20
-158.1193778796541
 30
0.0
 10
605.1155461823409
 20
-170.3857727290551
 30
0.0
 10
615.675974827087
 20
-201.0370732178444
 30
0.0
 10
610.7598937162456
 20
-227.9072610675557
 30
0.0
 10
588.445055612744
 20
-252.2421221671721
 30
0.0
 10
559.5627796987282
 20
-283.7388716180594
 30
0.0
 10
545.2040953657934
 20
-321.9354986071258
 30
0.0
 10
542.969730779283
 20
-364.2423873970765
 30
0.0
 10
542.4773154299209
 20
-373.5661217657926
 30
0.0
 10
545.8460050346493
 20
-384.8158954522233
 30
0.0
 10
551.3398381127753
 20
-392.3221019470148
 30
0.0
 10
559.1925589348011
 20
-403.0512291658751
 30
0.0
 10
570.2799766782163
 20
-411.5962004321854
 30
0.0
 10
580.7933459926016
 20
-420.0725564507802
 30
0.0
 10
583.6060169682905
 20
-422.3402305102781
 30
0.0
 10
590.3407349526578
 20
-422.7567565550835
 30
0.0
 10
593.5900242582975
 20
-420.9659739910311
 30
0.0
 10
610.8610868003352
 20
-411.4473492548495
 30
0.0
 10
624.9964056406206
 20
-398.7438149563923
 30
0.0
 10
632.1462525623283
 20
-379.4327476224998
 30
0.0
 10
636.8359077716668
 20
-366.7663595877548
 30
0.0
 10
641.8207815511123
 20
-354.1058484245823
 30
0.0
 10
647.9558146380704
 20
-342.0978695978147
 30
0.0
 10
664.6903742017366
 20
-309.3436026916716
 30
0.0
 10
691.216113120683
 20
-290.6992165397042
 30
0.0
 10
728.5751006099653
 20
-289.3983654729291
 30
0.0
 10
755.1668157342938
 20
-288.4724366356004
 30
0.0
 10
781.7873164433604
 20
-287.6424227777088
 30
0.0
 10
808.3836887116012
 20
-287.9068376447212
 30
0.0
 10
820.527568462443
 20
-288.0275685460055
 30
0.0
 10
823.3219435156296
 20
-281.8229671316995
 30
0.0
 10
820.6887056417109
 20
-272.6847201359333
 30
0.0
 10
817.9206323631733
 20
-263.0787628704966
 30
0.0
 10
813.7788346925955
 20
-253.4881298248965
 30
0.0
 10
808.361866665853
 20
-245.1022776285181
 30
0.0
 10
795.6089655529067
 20
-225.3599144518312
 30
0.0
 10
796.0959253908295
 20
-206.1525240032251
 30
0.0
 10
807.682455900087
 20
-186.4272370194085
 30
0.0
 10
812.7379408519537
 20
-177.8205807784607
 30
0.0
 10
817.5636290171969
 20
-169.0790004369601
 30
0.0
 10
823.0140397725863
 20
-159.4825459619715
 30
0.0
 10
816.905153222151
 20
-155.9844656755085
 30
0.0
 10
812.1067426140889
 20
-153.2367953582224
 30
0.0
 10
806.4965696457292
 20
-150.0243088533043
 30
0.0
 10
799.9565646305291
 20
-161.5080818242486
 30
0.0
 10
794.0423910492609
 20
-171.9603751267368
 30
0.0
 10
788.0643480658054
 20
-182.3760211451736
 30
0.0
 10
775.3629860121218
 20
-204.5058689423786
 30
0.0
 10
765.0548636828916
 20
-211.0385328516686
 30
0.0
 10
750.3356720576121
 20
-206.3536460722453
 30
0.0
 10
735.4264246070761
 20
-201.6082607809376
 30
0.0
 10
730.6558681549668
 20
-190.4289319343179
 30
0.0
 10
733.5794900400815
 20
-165.1086303563743
 30
0.0
 10
735.7123288893653
 20
-146.636902255831
 30
0.0
 10
738.5224051705918
 20
-128.2433919893847
 30
0.0
 10
741.0032879080445
 20
-110.0158534468946
 30
0.0
 10
717.0856161090305
 20
-104.8048536004953
 30
0.0
 10
717.1558280976841
 20
-104.8287270052042
 30
0.0
 10
710.3801716006655
 20
-124.7601923852808
 30
0.0
 10
704.000948934723
 20
-143.5254092344639
 30
0.0
 10
697.448214392838
 20
-162.231613422311
 30
0.0
 10
690.9792197338192
 20
-180.966337069939
 30
0.0
 10
686.3683367871799
 20
-194.3197646568114
 30
0.0
 10
677.0548916895095
 20
-201.9102654491389
 30
0.0
 10
662.9151818278232
 20
-202.0975491488707
 30
0.0
 10
649.4117265316754
 20
-202.2763612827894
 30
0.0
 10
641.9792131515378
 20
-193.7633912454557
 30
0.0
 10
637.5179132318954
 20
-181.955536528385
 30
0.0
 10
632.3949440470942
 20
-168.3964406133509
 30
0.0
 10
627.3813955672904
 20
-154.7920040797144
 30
0.0
 10
621.9964065953917
 20
-141.3369177030763
 30
0.0
 10
615.6455259766699
 20
-125.4684219403789
 30
0.0
 10
610.7237454087571
 20
-124.0575292255198
 30
0.0
 10
593.6242653544704
 20
-133.4432146913596
 30
0.0
  0
SPLINE
  5
80
330
70
100
AcDbEntity
  8
Capa 1
100
AcDbSpline
210
0.0
220
0.0
230
1.0
 70
     9
 71
     3
 72
   167
 73
   163
 74
     0
 42
0.0000000001
 43
0.0000000001
 40
0.0
 40
0.0
 40
0.0
 40
0.0
 40
1.0
 40
1.0
 40
1.0
 40
2.0
 40
2.0
 40
2.0
 40
3.0
 40
3.0
 40
3.0
 40
4.0
 40
4.0
 40
4.0
 40
5.0
 40
5.0
 40
5.0
 40
6.0
 40
6.0
 40
6.0
 40
7.0
 40
7.0
 40
7.0
 40
8.0
 40
8.0
 40
8.0
 40
9.0
 40
9.0
 40
9.0
 40
10.0
 40
10.0
 40
10.0
 40
11.0
 40
11.0
 40
11.0
 40
12.0
 40
12.0
 40
12.0
 40
13.0
 40
13.0
 40
13.0
 40
14.0
 40
14.0
 40
14.0
 40
15.0
 40
15.0
 40
15.0
 40
16.0
 40
16.0
 40
16.0
 40
17.0
 40
17.0
 40
17.0
 40
18.0
 40
18.0
 40
18.0
 40
19.0
 40
19.0
 40
19.0
 40
20.0
 40
20.0
 40
20.0
 40
21.0
 40
21.0
 40
21.0
 40
22.0
 40
22.0
 40
22.0
 40
23.0
 40
23.0
 40
23.0
 40
24.0
 40
24.0
 40
24.0
 40
25.0
 40
25.0
 40
25.0
 40
26.0
 40
26.0
 40
26.0
 40
27.0
 40
27.0
 40
27.0
 40
28.0
 40
28.0
 40
28.0
 40
29.0
 40
29.0
 40
29.0
 40
30.0
 40
30.0
 40
30.0
 40
31.0
 40
31.0
 40
31.0
 40
32.0
 40
32.0
 40
32.0
 40
33.0
 40
33.0
 40
33.0
 40
34.0
 40
34.0
 40
34.0
 40
35.0
 40
35.0
 40
35.0
 40
36.0
 40
36.0
 40
36.0
 40
37.0
 40
37.0
 40
37.0
 40
38.0
 40
38.0
 40
38.0
 40
39.0
 40
39.0
 40
39.0
 40
40.0
 40
40.0
 40
40.0
 40
41.0
 40
41.0
 40
41.0
 40
42.0
 40
42.0
 40
42.0
 40
43.0
 40
43.0
 40
43.0
 40
44.0
 40
44.0
 40
44.0
 40
45.0
 40
45.0
 40
45.0
 40
46.0
 40
46.0
 40
46.0
 40
47.0
 40
47.0
 40
47.0
 40
48.0
 40
48.0
 40
48.0
 40
49.0
 40
49.0
 40
49.0
 40
50.0
 40
50.0
 40
50.0
 40
51.0
 40
51.0
 40
51.0
 40
52.0
 40
52.0
 40
52.0
 40
53.0
 40
53.0
 40
53.0
 40
54.0
 40
54.0
 40
54.0
 40
54.0
 10
735.8136772115849
 20
-772.6754478019811
 30
0.0
 10
714.4651077617981
 20
-798.1920701557555
 30
0.0
 10
701.3588403104986
 20
-822.6442025643354
 30
0.0
 10
704.3615449345707
 20
-853.4143489201305
 30
0.0
 10
705.0813619679701
 20
-860.7904658728712
 30
0.0
 10
704.8078767361057
 20
-868.7628746099107
 30
0.0
 10
694.2591796586348
 20
-869.1897350779345
 30
0.0
 10
683.8721963592051
 20
-869.6098537763045
 30
0.0
 10
683.0443335871059
 20
-861.6016072111088
 30
0.0
 10
682.409498341618
 20
-854.3207621084638
 30
0.0
 10
680.2636638431359
 20
-829.7087787931141
 30
0.0
 10
684.3666963348878
 20
-806.928161720978
 30
0.0
 10
696.4598353939927
 20
-784.4665368024161
 30
0.0
 10
718.1867866979882
 20
-744.1111020276203
 30
0.0
 10
737.4346294145907
 20
-702.4185791741638
 30
0.0
 10
757.5551765460804
 20
-661.2050767960463
 30
0.0
 10
759.3155769438599
 20
-657.5992945216894
 30
0.0
 10
759.8707528516224
 20
-653.405026722632
 30
0.0
 10
761.4225132022584
 20
-647.9481407873318
 30
0.0
 10
726.6910863067023
 20
-660.129365352679
 30
0.0
 10
699.7876530166958
 20
-678.2562097994159
 30
0.0
 10
683.4513236110415
 20
-709.8319976287348
 30
0.0
 10
679.8515287840237
 20
-716.7898143867605
 30
0.0
 10
675.8745940078415
 20
-725.4420773687961
 30
0.0
 10
665.2286735070447
 20
-718.453745232342
 30
0.0
 10
669.8161820266341
 20
-687.9288751014173
 30
0.0
 10
689.8581786641825
 20
-662.0683781415992
 30
0.0
 10
722.6012712329048
 20
-643.8839625303262
 30
0.0
 10
734.0155761250135
 20
-637.5447918454483
 30
0.0
 10
745.4267762545168
 20
-631.197593132234
 30
0.0
 10
756.758494461299
 20
-624.7127203861091
 30
0.0
 10
771.479593297894
 20
-616.2883026060917
 30
0.0
 10
778.3224900822151
 20
-602.9083736549583
 30
0.0
 10
779.6712876659021
 20
-586.5456995236418
 30
0.0
 10
781.353314984748
 20
-566.1400925804773
 30
0.0
 10
778.636381581713
 20
-544.9128768146128
 30
0.0
 10
764.9972038059168
 20
-530.5595161623478
 30
0.0
 10
757.5009762617228
 20
-522.6708029472474
 30
0.0
 10
740.168772073217
 20
-522.3547381410208
 30
0.0
 10
727.139280965799
 20
-521.8154852762845
 30
0.0
 10
679.5316938818232
 20
-519.8453805102144
 30
0.0
 10
636.8909286004254
 20
-506.260492890884
 30
0.0
 10
601.1569738592879
 20
-473.5547046309957
 30
0.0
 10
595.7132826972538
 20
-468.5723150887643
 30
0.0
 10
588.4823571177712
 20
-465.5425549360025
 30
0.0
 10
580.5107017110477
 20
-460.6470987392949
 30
0.0
 10
571.5575199600889
 20
-492.6071674388267
 30
0.0
 10
552.6025894185159
 20
-514.671560192839
 30
0.0
 10
528.4152468102684
 20
-533.9909438544291
 30
0.0
 10
520.1913294417827
 20
-540.5596895374874
 30
0.0
 10
517.2687276929536
 20
-554.6808583204565
 30
0.0
 10
513.7114681136417
 20
-565.9169488757161
 30
0.0
 10
510.2231342641907
 20
-576.9353512371817
 30
0.0
 10
515.1491284384974
 20
-584.5775906762209
 30
0.0
 10
527.0849003872144
 20
-587.0396672119604
 30
0.0
 10
539.8672745680451
 20
-589.6764531599546
 30
0.0
 10
552.5761767594867
 20
-592.6679803821862
 30
0.0
 10
565.3273480761245
 20
-595.4579198210449
 30
0.0
 10
580.5420598133714
 20
-598.7868460021545
 30
0.0
 10
591.9097045588832
 20
-607.1521402364669
 30
0.0
 10
597.6600353820422
 20
-621.74447888143
 30
0.0
 10
599.1933889257979
 20
-625.6356331685928
 30
0.0
 10
597.9417925885646
 20
-630.6242765892512
 30
0.0
 10
597.9688040232404
 20
-635.1090170821044
 30
0.0
 10
593.3378731809134
 20
-633.8181456085658
 30
0.0
 10
586.8990168960535
 20
-634.0346806049165
 30
0.0
 10
584.3650427180318
 20
-630.9954731038906
 30
0.0
 10
565.8219589361861
 20
-608.7549959714433
 30
0.0
 10
539.9121162108313
 20
-608.976764710027
 30
0.0
 10
510.7905518073712
 20
-604.492999999622
 30
0.0
 10
516.1432068944122
 20
-618.762443361209
 30
0.0
 10
519.3052301939387
 20
-630.2906920526766
 30
0.0
 10
524.6744292302974
 20
-640.6780292916337
 30
0.0
 10
530.6454864978887
 20
-652.2296080543983
 30
0.0
 10
540.0396332464469
 20
-662.1069659021123
 30
0.0
 10
545.3338966196143
 20
-673.886168098159
 30
0.0
 10
550.5499199751011
 20
-685.4913261881665
 30
0.0
 10
553.3893362629568
 20
-698.4293143970517
 30
0.0
 10
555.314865677642
 20
-711.0803338582136
 30
0.0
 10
555.8607051207082
 20
-714.6666004835751
 30
0.0
 10
549.5589684586684
 20
-719.295047119027
 30
0.0
 10
546.3975882885379
 20
-723.4455377690901
 30
0.0
 10
543.4744764715669
 20
-719.6928115285482
 30
0.0
 10
539.8058002684401
 20
-716.3041408492645
 30
0.0
 10
537.7633100109988
 20
-712.1213606708643
 30
0.0
 10
530.6765563008275
 20
-697.6086370030552
 30
0.0
 10
526.0827495485218
 20
-681.4751830399363
 30
0.0
 10
516.9878132077092
 20
-668.4363787624915
 30
0.0
 10
501.468790381291
 20
-646.1876074792217
 30
0.0
 10
491.9781298694279
 20
-622.913732378729
 30
0.0
 10
492.5046532537071
 20
-595.6119160331182
 30
0.0
 10
492.6875903018462
 20
-586.1257582402632
 30
0.0
 10
491.4896841808277
 20
-576.612988198778
 30
0.0
 10
490.7196587007092
 20
-563.7159384990354
 30
0.0
 10
482.7530817985343
 20
-570.8210984069737
 30
0.0
 10
476.9682659335703
 20
-575.0881507060366
 30
0.0
 10
472.2660918778665
 20
-580.3269492638137
 30
0.0
 10
450.7809794040268
 20
-604.2642233689003
 30
0.0
 10
440.5889641078338
 20
-633.1586053800219
 30
0.0
 10
436.8824208893492
 20
-664.5532968574116
 30
0.0
 10
432.3365051002456
 20
-703.0573618487778
 30
0.0
 10
447.4736864798378
 20
-735.0544659276529
 30
0.0
 10
469.1856462158202
 20
-765.6488383812465
 30
0.0
 10
526.2650434672641
 20
-846.0794809527669
 30
0.0
 10
600.0156187714546
 20
-905.1776563150925
 30
0.0
 10
692.1862183739013
 20
-940.0195654187518
 30
0.0
 10
742.5540281223966
 20
-959.059476115981
 30
0.0
 10
785.2622554598529
 20
-945.2400015249768
 30
0.0
 10
818.3073527226643
 20
-902.3466453058482
 30
0.0
 10
848.6762776800897
 20
-862.9270746078692
 30
0.0
 10
872.5118950387914
 20
-819.5213438951178
 30
0.0
 10
887.5122450949493
 20
-772.2163865131169
 30
0.0
 10
897.3740356226445
 20
-741.1162926280594
 30
0.0
 10
904.8756299707729
 20
-708.7242184257684
 30
0.0
 10
908.5351693010853
 20
-676.3568049072073
 30
0.0
 10
912.0533532253103
 20
-645.2392356455493
 30
0.0
 10
908.1909398355492
 20
-611.7594744880079
 30
0.0
 10
882.3455209342737
 20
-590.6627918016729
 30
0.0
 10
859.7892431843792
 20
-572.2508858183628
 30
0.0
 10
831.6706058102646
 20
-560.6533565729623
 30
0.0
 10
806.0096098078046
 20
-546.0450949325696
 30
0.0
 10
809.6901728163375
 20
-581.1188410755439
 30
0.0
 10
803.2787936805434
 20
-611.9018500181773
 30
0.0
 10
797.6264402944889
 20
-642.8552660595396
 30
0.0
 10
796.7440667617738
 20
-647.6875625194952
 30
0.0
 10
799.035736395248
 20
-655.2333325572526
 30
0.0
 10
802.6200961167377
 20
-658.3855090537108
 30
0.0
 10
820.0121335160419
 20
-673.6804997699983
 30
0.0
 10
825.7920926452152
 20
-693.6463836583024
 30
0.0
 10
827.5283646021707
 20
-715.3604705128491
 30
0.0
 10
827.7957290163268
 20
-718.7046100294264
 30
0.0
 10
824.347757080759
 20
-722.3458309482084
 30
0.0
 10
822.6180494790279
 20
-725.8496883103107
 30
0.0
 10
819.1840489751866
 20
-723.7015032471608
 30
0.0
 10
814.3731749629477
 20
-722.3314159801994
 30
0.0
 10
812.621867084228
 20
-719.2322865660099
 30
0.0
 10
809.5984492581957
 20
-713.8820270402175
 30
0.0
 10
809.0666034237347
 20
-707.1807967127315
 30
0.0
 10
806.4263133033218
 20
-701.5443668066727
 30
0.0
 10
801.7084934617706
 20
-691.4730056664484
 30
0.0
 10
796.2000236456442
 20
-681.7719539659083
 30
0.0
 10
791.0221223395874
 20
-671.9161076858381
 30
0.0
 10
789.1623695384041
 20
-672.1288282598853
 30
0.0
 10
787.3026167372208
 20
-672.3415931876806
 30
0.0
 10
785.4428195822857
 20
-672.5543137617278
 30
0.0
 10
777.4895709824432
 20
-690.5531089388095
 30
0.0
 10
769.4968031899953
 20
-708.5346061542786
 30
0.0
 10
761.5942065743893
 20
-726.5556225589662
 30
0.0
 10
753.7962404586123
 20
-744.3380158009386
 30
0.0
 10
754.0969145401596
 20
-761.9800737851346
 30
0.0
 10
761.1701403561164
 20
-780.1358368753827
 30
0.0
 10
767.3019577960895
 20
-795.8752964975356
 30
0.0
 10
772.0102415810633
 20
-812.1700650410984
 30
0.0
 10
777.3199178828836
 20
-828.228605524322
 30
0.0
 10
779.8341546414794
 20
-835.8326120328293
 30
0.0
 10
782.4102648834432
 20
-844.4628755559987
 30
0.0
 10
772.4025505132486
 20
-847.8070594263245
 30
0.0
 10
761.595448479431
 20
-851.4184302728917
 30
0.0
 10
758.4683759360996
 20
-842.7094832012716
 30
0.0
 10
755.8280414619367
 20
-834.4127598609302
 30
0.0
 10
749.552650928299
 20
-814.6936158711723
 30
0.0
 10
743.0784225266015
 20
-795.0376316181627
 30
0.0
 10
735.8136772115849
 20
-772.6754478019811
 30
0.0
  0
SPLINE
  5
81
330
70
100
AcDbEntity
  8
Capa 1
100
AcDbSpline
210
0.0
220
0.0
230
1.0
 70
     9
 71
     3
 72
   122
 73
   118
 74
     0
 42
0.0000000001
 43
0.0000000001
 40
0.0
 40
0.0
 40
0.0
 40
0.0
 40
1.0
 40
1.0
 40
1.0
 40
2.0
 40
2.0
 40
2.0
 40
3.0
 40
3.0
 40
3.0
 40
4.0
 40
4.0
 40
4.0
 40
5.0
 40
5.0
 40
5.0
 40
6.0
 40
6.0
 40
6.0
 40
7.0
 40
7.0
 40
7.0
 40
8.0
 40
8.0
 40
8.0
 40
9.0
 40
9.0
 40
9.0
 40
10.0
 40
10.0
 40
10.0
 40
11.0
 40
11.0
 40
11.0
 40
12.0
 40
12.0
 40
12.0
 40
13.0
 40
13.0
 40
13.0
 40
14.0
 40
14.0
 40
14.0
 40
15.0
 40
15.0
 40
15.0
 40
16.0
 40
16.0
 40
16.0
 40
17.0
 40
17.0
 40
17.0
 40
18.0
 40
18.0
 40
18.0
 40
19.0
 40
19.0
 40
19.0
 40
20.0
 40
20.0
 40
20.0
 40
21.0
 40
21.0
 40
21.0
 40
22.0
 40
22.0
 40
22.0
 40
23.0
 40
23.0
 40
23.0
 40
24.0
 40
24.0
 40
24.0
 40
25.0
 40
25.0
 40
25.0
 40
26.0
 40
26.0
 40
26.0
 40
27.0
 40
27.0
 40
27.0
 40
28.0
 40
28.0
 40
28.0
 40
29.0
 40
29.0
 40
29.0
 40
30.0
 40
30.0
 40
30.0
 40
31.0
 40
31.0
 40
31.0
 40
32.0
 40
32.0
 40
32.0
 40
33.0
 40
33.0
 40
33.0
 40
34.0
 40
34.0
 40
34.0
 40
35.0
 40
35.0
 40
35.0
 40
36.0
 40
36.0
 40
36.0
 40
37.0
 40
37.0
 40
37.0
 40
38.0
 40
38.0
 40
38.0
 40
39.0
 40
39.0
 40
39.0
 40
39.0
 10
556.449390287742
 20
-239.2497784404595
 30
0.0
 10
575.1507060781305
 20
-229.2280047901822
 30
0.0
 10
583.5347404896001
 20
-210.886199905136
 30
0.0
 10
578.3872436802093
 20
-188.8510473593069
 30
0.0
 10
574.8675517284346
 20
-173.784023817846
 30
0.0
 10
570.4612061069228
 20
-158.9264830268512
 30
0.0
 10
566.6956169567283
 20
-143.9140035066439
 30
0.0
 10
561.1682524424541
 20
-121.8777310286841
 30
0.0
 10
566.7006067537731
 20
-109.7441312999462
 30
0.0
 10
585.0812005669304
 20
-102.9160825193021
 30
0.0
 10
610.8713990475644
 20
-93.33550668599583
 30
0.0
 10
633.0877274689419
 20
-98.95015335770677
 30
0.0
 10
641.8846287764245
 20
-118.3172671960583
 30
0.0
 10
649.2444241809462
 20
-134.5204008968376
 30
0.0
 10
655.2428255363492
 20
-151.3419145482803
 30
0.0
 10
663.3768822042584
 20
-171.7319976797444
 30
0.0
 10
666.7018390099892
 20
-164.9945192519371
 30
0.0
 10
668.788439073316
 20
-161.6720354526833
 30
0.0
 10
670.0501924196478
 20
-158.061318823894
 30
0.0
 10
677.702899999198
 20
-136.1616448004624
 30
0.0
 10
685.436020930254
 20
-114.2831275146936
 30
0.0
 10
692.5800796873882
 20
-92.21554129084598
 30
0.0
 10
696.084292179883
 20
-81.3911311334532
 30
0.0
 10
702.462139879528
 20
-75.99074078430567
 30
0.0
 10
713.973224657453
 20
-77.37259842706681
 30
0.0
 10
728.3557713087048
 20
-79.09917339708044
 30
0.0
 10
742.8268480479873
 20
-80.32004356828656
 30
0.0
 10
757.0874218825629
 20
-82.76429544166239
 30
0.0
 10
770.341653448926
 20
-85.03608331126088
 30
0.0
 10
775.8569093890346
 20
-93.0996778093886
 30
0.0
 10
772.802310875686
 20
-106.9264707687634
 30
0.0
 10
768.9827432098937
 20
-124.2158055742456
 30
0.0
 10
765.9101814271799
 20
-141.6701474096698
 30
0.0
 10
762.5151678709244
 20
-159.0532682146986
 30
0.0
 10
763.6427732957872
 20
-159.578749240768
 30
0.0
 10
764.7703343668982
 20
-160.1042413552768
 30
0.0
 10
765.897895438009
 20
-160.6297223813462
 30
0.0
 10
771.8078110591322
 20
-151.5421606307827
 30
0.0
 10
777.8403648032053
 20
-142.5315637209451
 30
0.0
 10
783.6004090979458
 20
-133.3499942020962
 30
0.0
 10
793.6258649687479
 20
-117.3693388998617
 30
0.0
 10
802.5033570427403
 20
-114.2921202370426
 30
0.0
 10
820.1569928685039
 20
-121.1044456141217
 30
0.0
 10
823.3097462339628
 20
-122.3210578255475
 30
0.0
 10
826.4224481618002
 20
-123.7041074752778
 30
0.0
 10
829.4046169989197
 20
-125.2904857929779
 30
0.0
 10
862.8943162669566
 20
-143.1055123048318
 30
0.0
 10
866.3611385469211
 20
-154.2349764505807
 30
0.0
 10
844.896672744413
 20
-184.9337354494273
 30
0.0
 10
832.0064524167628
 20
-203.3695702796312
 30
0.0
 10
829.9932356353256
 20
-219.3819163346088
 30
0.0
 10
842.3872705447339
 20
-239.5131953481469
 30
0.0
 10
850.3491681261239
 20
-252.4453732160828
 30
0.0
 10
851.9898577485546
 20
-269.2692376161549
 30
0.0
 10
857.1314333321188
 20
-286.5984242639597
 30
0.0
 10
874.3115485066665
 20
-288.3426575697822
 30
0.0
 10
894.4293457055609
 20
-289.9123810552146
 30
0.0
 10
914.4063197433807
 20
-292.5491448263365
 30
0.0
 10
933.5499311439162
 20
-295.0759113031208
 30
0.0
 10
941.0920204671802
 20
-303.1856835968374
 30
0.0
 10
944.2388747836867
 20
-322.2943869567743
 30
0.0
 10
944.4748810955188
 20
-323.7275452529875
 30
0.0
 10
944.7661521817426
 20
-325.1538287183057
 30
0.0
 10
944.9418817452606
 20
-326.594261029145
 30
0.0
 10
950.6702131076654
 20
-373.5409510139643
 30
0.0
 10
938.3997477499887
 20
-388.5436948865463
 30
0.0
 10
891.3520824251845
 20
-392.0980711672992
 30
0.0
 10
879.3078212002528
 20
-393.0079883017015
 30
0.0
 10
867.2595237839342
 20
-393.8638382176378
 30
0.0
 10
851.429758574377
 20
-395.0211162030555
 30
0.0
 10
857.3634921600641
 20
-400.6972870670669
 30
0.0
 10
861.2169904457696
 20
-404.4172802417933
 30
0.0
 10
865.1066370389635
 20
-408.0991291934833
 30
0.0
 10
904.6356761750557
 20
-445.5168378420276
 30
0.0
 10
927.3285634796266
 20
-491.0394842257892
 30
0.0
 10
918.9033909636254
 20
-545.5695784033032
 30
0.0
 10
915.3481273031321
 20
-568.580169657349
 30
0.0
 10
918.233427546933
 20
-586.1919340318563
 30
0.0
 10
927.5523725097919
 20
-606.4401738781234
 30
0.0
 10
943.2229964589005
 20
-640.4893484488475
 30
0.0
 10
942.2860678118176
 20
-676.9114041686535
 30
0.0
 10
934.7929006764788
 20
-713.2524255913813
 30
0.0
 10
919.6253813308468
 20
-786.8128500566163
 30
0.0
 10
890.7292670463593
 20
-854.535434247411
 30
0.0
 10
846.3133759216761
 20
-915.0236560631711
 30
0.0
 10
800.8870619836434
 20
-976.8879972555769
 30
0.0
 10
742.6593682822531
 20
-994.1137509637083
 30
0.0
 10
669.5019356971234
 20
-963.2478892203398
 30
0.0
 10
570.4369446048421
 20
-921.4511350597495
 30
0.0
 10
489.4589033137862
 20
-856.3974932840428
 30
0.0
 10
431.9132926916909
 20
-764.0572484981912
 30
0.0
 10
420.937657490539
 20
-746.4452623549459
 30
0.0
 10
408.9940903699934
 20
-729.2474958616257
 30
0.0
 10
395.8508762436813
 20
-713.2074952449457
 30
0.0
 10
334.1371689484668
 20
-637.8920816900681
 30
0.0
 10
324.1874831458062
 20
-534.4723150783956
 30
0.0
 10
374.7575903549777
 20
-451.6931415652907
 30
0.0
 10
391.2833269122748
 20
-424.6417908330322
 30
0.0
 10
402.3116100164779
 20
-396.7366748109798
 30
0.0
 10
409.7626299994353
 20
-366.6295504529235
 30
0.0
 10
419.1691847099828
 20
-328.6207615854346
 30
0.0
 10
430.3627520692207
 20
-290.9598391612862
 30
0.0
 10
437.6224743218781
 20
-252.5510238431434
 30
0.0
 10
441.6981627258165
 20
-230.9879614995698
 30
0.0
 10
439.6642992730467
 20
-208.2216706879453
 30
0.0
 10
439.8957482369096
 20
-185.9924150536708
 30
0.0
 10
440.2057255178361
 20
-156.2207935317774
 30
0.0
 10
452.9582828892089
 20
-142.4829631018838
 30
0.0
 10
482.7619192835245
 20
-144.9445517463991
 30
0.0
 10
501.277891834754
 20
-146.4738467907882
 30
0.0
 10
519.7200708318951
 20
-151.5904840389203
 30
0.0
 10
537.6166321547262
 20
-157.0085826218437
 30
0.0
 10
550.2154261580217
 20
-160.82281642203
 30
0.0
 10
556.6199526392065
 20
-171.1914031141396
 30
0.0
 10
556.4911493447961
 20
-184.9866938242003
 30
0.0
 10
556.3213188302306
 20
-203.1767645383079
 30
0.0
 10
556.449390287742
 20
-221.3696295385207
 30
0.0
 10
556.449390287742
 20
-239.2497784404595
 30
0.0
  0
HATCH
  5
82
330
70
100
AcDbEntity
  8
Capa 1
 62
    18
420
        0
440
 33554687
100
AcDbHatch
 10
0.0
 20
0.0
 30
0.0
210
0.0
220
0.0
230
1.0
  2
SOLID
 70
     1
 71
     1
 91
        7
 92
        1
 93
        1
 72
     4
 94
        3
 73
     0
 74
     0
 95
       20
 96
       16
 40
0.0
 40
0.0
 40
0.0
 40
0.0
 40
1.0
 40
1.0
 40
1.0
 40
2.0
 40
2.0
 40
2.0
 40
3.0
 40
3.0
 40
3.0
 40
4.0
 40
4.0
 40
4.0
 40
5.0
 40
5.0
 40
5.0
 40
5.0
 10
887.5651591205096
 20
-550.5976523056815
 10
888.7648393915915
 20
-545.0118743795155
 10
890.184425562702
 20
-540.9396237404271
 10
890.4472658942031
 20
-536.7941450638572
 10
893.8180623021271
 20
-483.6273076761572
 10
861.1371980467884
 20
-436.5675821652812
 10
817.9531436630368
 20
-411.6840652064119
 10
814.536574183543
 20
-409.7153797602695
 10
806.6252398788856
 20
-410.4837640857095
 10
803.9098145034003
 20
-413.1474727585682
 10
777.7356899496208
 20
-438.822925882915
 10
772.3137099489559
 20
-496.5268411857723
 10
810.8323262716986
 20
-516.4996886124681
 10
835.1686531312971
 20
-529.118773375274
 10
860.9737988261914
 20
-538.9052503939165
 10
887.5651591205096
 20
-550.5976523056815
 97
        0
 97
        1
330
7B
 92
        1
 93
        1
 72
     4
 94
        3
 73
     0
 74
     0
 95
       23
 96
       19
 40
0.0
 40
0.0
 40
0.0
 40
0.0
 40
1.0
 40
1.0
 40
1.0
 40
2.0
 40
2.0
 40
2.0
 40
3.0
 40
3.0
 40
3.0
 40
4.0
 40
4.0
 40
4.0
 40
5.0
 40
5.0
 40
5.0
 40
6.0
 40
6.0
 40
6.0
 40
6.0
 10
441.949881354124
 20
-380.5391740361593
 10
463.3417511538327
 20
-372.590161901041
 10
483.5091802006764
 20
-365.4040120497703
 10
503.3482806019001
 20
-357.403704805417
 10
506.4484082411836
 20
-356.1535278954079
 10
509.7038848951606
 20
-351.3878729413927
 10
510.103179543209
 20
-347.9266173539709
 10
515.9689188278189
 20
-297.0781060056625
 10
521.638570176965
 20
-246.2009199594541
 10
526.4019191444512
 20
-195.2414798881072
 10
526.8349891742809
 20
-190.6085091703853
 10
521.8641311803139
 20
-182.8812768622856
 10
517.4468301821771
 20
-180.8551422244136
 10
502.4134587580147
 20
-173.9596313934926
 10
486.2941744354174
 20
-171.6180196365503
 10
468.2951781234533
 20
-176.0326922964477
 10
476.9774915138859
 20
-247.3032880051988
 10
455.9117992028468
 20
-314.3097587622378
 10
441.949881354124
 20
-380.5391740361593
 97
        0
 97
        1
330
7C
 92
        1
 93
        1
 72
     4
 94
        3
 73
     0
 74
     0
 95
       32
 96
       28
 40
0.0
 40
0.0
 40
0.0
 40
0.0
 40
1.0
 40
1.0
 40
1.0
 40
2.0
 40
2.0
 40
2.0
 40
3.0
 40
3.0
 40
3.0
 40
4.0
 40
4.0
 40
4.0
 40
5.0
 40
5.0
 40
5.0
 40
6.0
 40
6.0
 40
6.0
 40
7.0
 40
7.0
 40
7.0
 40
8.0
 40
8.0
 40
8.0
 40
9.0
 40
9.0
 40
9.0
 40
9.0
 10
404.4642528158155
 20
-676.5930773212931
 10
411.2736846946172
 20
-652.1686660050363
 10
415.8301899418948
 20
-628.3909323304869
 10
424.5524217086949
 20
-606.2545534439305
 10
438.177295399626
 20
-571.6756620642263
 10
463.6803366044896
 20
-545.8035887762526
 10
492.417076771334
 20
-522.7601757488964
 10
515.3587886219265
 20
-504.363704869791
 10
539.5970049831649
 20
-486.5175752923505
 10
549.5074293994029
 20
-456.9520323707856
 10
551.5747134039429
 20
-450.7848211658056
 10
552.3710184818355
 20
-441.1205830758699
 10
548.991284792979
 20
-436.7512066808276
 10
536.9145344450599
 20
-421.1381995934152
 10
523.4881659690509
 20
-406.3559825544789
 10
509.0172222910223
 20
-392.9365344141306
 10
504.6110540845165
 20
-388.8504897595012
 10
492.944398523141
 20
-386.6689506780677
 10
488.4216908345197
 20
-389.569508363732
 10
451.8029785465232
 20
-413.0541524733725
 10
414.9195852463381
 20
-436.7416706250687
 10
392.9572929367832
 20
-476.4036789080655
 10
368.192858123306
 20
-521.1260949755269
 10
365.3949957564055
 20
-568.2177108310098
 10
378.2654731204102
 20
-616.9550281417651
 10
383.9280389577516
 20
-638.3977144140353
 10
391.0298119570307
 20
-659.1067009915804
 10
404.4642528158155
 20
-676.5930773212931
 97
        0
 97
        1
330
7D
 92
        1
 93
        1
 72
     4
 94
        3
 73
     0
 74
     0
 95
       35
 96
       31
 40
0.0
 40
0.0
 40
0.0
 40
0.0
 40
1.0
 40
1.0
 40
1.0
 40
2.0
 40
2.0
 40
2.0
 40
3.0
 40
3.0
 40
3.0
 40
4.0
 40
4.0
 40
4.0
 40
5.0
 40
5.0
 40
5.0
 40
6.0
 40
6.0
 40
6.0
 40
7.0
 40
7.0
 40
7.0
 40
8.0
 40
8.0
 40
8.0
 40
9.0
 40
9.0
 40
9.0
 40
10.0
 40
10.0
 40
10.0
 40
10.0
 10
616.8169529080323
 20
-445.8144958429529
 10
654.3862658870175
 20
-483.5331003160072
 10
700.0508925319609
 20
-494.1612340513166
 10
751.0416063667853
 20
-490.5974547760479
 10
751.0416063667853
 20
-484.087788284949
 10
751.2878583952187
 20
-478.8469938085208
 10
751.0037726167411
 20
-473.6352066831013
 10
747.9471338308212
 20
-417.5590295676884
 10
778.1420146672844
 20
-378.0940849857961
 10
833.1293119902129
 20
-368.3326013039914
 10
854.9849335273666
 20
-364.4527350456219
 10
877.3377162652923
 20
-363.4245264660594
 10
899.4094292798436
 20
-360.6608444458479
 10
903.1823367990382
 20
-360.1884326789204
 10
908.550914882875
 20
-358.4789948881808
 10
909.9964923523767
 20
-355.6898759936539
 10
918.760305761225
 20
-338.7799431461381
 10
908.7012741005237
 20
-319.6606392404974
 10
889.7656374408615
 20
-319.1161304566567
 10
840.418584929821
 20
-317.697165359712
 10
790.9784338943427
 20
-315.8040365228053
 10
741.6821220750389
 20
-317.398952936941
 10
694.3430969565087
 20
-318.9305543762111
 10
667.6467513323468
 20
-346.881554350276
 10
660.665648258293
 20
-394.527414637224
 10
659.6380161893539
 20
-401.541028409878
 10
654.9896764995556
 20
-408.9064561094174
 10
650.0318363316583
 20
-414.276807882924
 10
639.9525350065133
 20
-425.1948377133085
 10
628.517295143687
 20
-434.8610717218917
 10
616.8169529080323
 20
-445.8144958429529
 97
        0
 97
        1
330
7E
 92
        1
 93
        1
 72
     4
 94
        3
 73
     0
 74
     0
 95
       80
 96
       76
 40
0.0
 40
0.0
 40
0.0
 40
0.0
 40
1.0
 40
1.0
 40
1.0
 40
2.0
 40
2.0
 40
2.0
 40
3.0
 40
3.0
 40
3.0
 40
4.0
 40
4.0
 40
4.0
 40
5.0
 40
5.0
 40
5.0
 40
6.0
 40
6.0
 40
6.0
 40
7.0
 40
7.0
 40
7.0
 40
8.0
 40
8.0
 40
8.0
 40
9.0
 40
9.0
 40
9.0
 40
10.0
 40
10.0
 40
10.0
 40
11.0
 40
11.0
 40
11.0
 40
12.0
 40
12.0
 40
12.0
 40
13.0
 40
13.0
 40
13.0
 40
14.0
 40
14.0
 40
14.0
 40
15.0
 40
15.0
 40
15.0
 40
16.0
 40
16.0
 40
16.0
 40
17.0
 40
17.0
 40
17.0
 40
18.0
 40
18.0
 40
18.0
 40
19.0
 40
19.0
 40
19.0
 40
20.0
 40
20.0
 40
20.0
 40
21.0
 40
21.0
 40
21.0
 40
22.0
 40
22.0
 40
22.0
 40
23.0
 40
23.0
 40
23.0
 40
24.0
 40
24.0
 40
24.0
 40
25.0
 40
25.0
 40
25.0
 40
25.0
 10
593.6242653544704
 20
-133.4432146913596
 10
597.3836671563285
 20
-145.6047240158477
 10
600.889343322623
 20
-158.1193778796541
 10
605.1155461823409
 20
-170.3857727290551
 10
615.675974827087
 20
-201.0370732178444
 10
610.7598937162456
 20
-227.9072610675557
 10
588.445055612744
 20
-252.2421221671721
 10
559.5627796987282
 20
-283.7388716180594
 10
545.2040953657934
 20
-321.9354986071258
 10
542.969730779283
 20
-364.2423873970765
 10
542.4773154299209
 20
-373.5661217657926
 10
545.8460050346493
 20
-384.8158954522233
 10
551.3398381127753
 20
-392.3221019470148
 10
559.1925589348011
 20
-403.0512291658751
 10
570.2799766782163
 20
-411.5962004321854
 10
580.7933459926016
 20
-420.0725564507802
 10
583.6060169682905
 20
-422.3402305102781
 10
590.3407349526578
 20
-422.7567565550835
 10
593.5900242582975
 20
-420.9659739910311
 10
610.8610868003352
 20
-411.4473492548495
 10
624.9964056406206
 20
-398.7438149563923
 10
632.1462525623283
 20
-379.4327476224998
 10
636.8359077716668
 20
-366.7663595877548
 10
641.8207815511123
 20
-354.1058484245823
 10
647.9558146380704
 20
-342.0978695978147
 10
664.6903742017366
 20
-309.3436026916716
 10
691.216113120683
 20
-290.6992165397042
 10
728.5751006099653
 20
-289.3983654729291
 10
755.1668157342938
 20
-288.4724366356004
 10
781.7873164433604
 20
-287.6424227777088
 10
808.3836887116012
 20
-287.9068376447212
 10
820.527568462443
 20
-288.0275685460055
 10
823.3219435156296
 20
-281.8229671316995
 10
820.6887056417109
 20
-272.6847201359333
 10
817.9206323631733
 20
-263.0787628704966
 10
813.7788346925955
 20
-253.4881298248965
 10
808.361866665853
 20
-245.1022776285181
 10
795.6089655529067
 20
-225.3599144518312
 10
796.0959253908295
 20
-206.1525240032251
 10
807.682455900087
 20
-186.4272370194085
 10
812.7379408519537
 20
-177.8205807784607
 10
817.5636290171969
 20
-169.0790004369601
 10
823.0140397725863
 20
-159.4825459619715
 10
816.905153222151
 20
-155.9844656755085
 10
812.1067426140889
 20
-153.2367953582224
 10
806.4965696457292
 20
-150.0243088533043
 10
799.9565646305291
 20
-161.5080818242486
 10
794.0423910492609
 20
-171.9603751267368
 10
788.0643480658054
 20
-182.3760211451736
 10
775.3629860121218
 20
-204.5058689423786
 10
765.0548636828916
 20
-211.0385328516686
 10
750.3356720576121
 20
-206.3536460722453
 10
735.4264246070761
 20
-201.6082607809376
 10
730.6558681549668
 20
-190.4289319343179
 10
733.5794900400815
 20
-165.1086303563743
 10
735.7123288893653
 20
-146.636902255831
 10
738.5224051705918
 20
-128.2433919893847
 10
741.0032879080445
 20
-110.0158534468946
 10
717.0856161090305
 20
-104.8048536004953
 10
717.1558280976841
 20
-104.8287270052042
 10
710.3801716006655
 20
-124.7601923852808
 10
704.000948934723
 20
-143.5254092344639
 10
697.448214392838
 20
-162.231613422311
 10
690.9792197338192
 20
-180.966337069939
 10
686.3683367871799
 20
-194.3197646568114
 10
677.0548916895095
 20
-201.9102654491389
 10
662.9151818278232
 20
-202.0975491488707
 10
649.4117265316754
 20
-202.2763612827894
 10
641.9792131515378
 20
-193.7633912454557
 10
637.5179132318954
 20
-181.955536528385
 10
632.3949440470942
 20
-168.3964406133509
 10
627.3813955672904
 20
-154.7920040797144
 10
621.9964065953917
 20
-141.3369177030763
 10
615.6455259766699
 20
-125.4684219403789
 10
610.7237454087571
 20
-124.0575292255198
 10
593.6242653544704
 20
-133.4432146913596
 97
        0
 97
        1
330
7F
 92
        1
 93
        1
 72
     4
 94
        3
 73
     0
 74
     0
 95
      167
 96
      163
 40
0.0
 40
0.0
 40
0.0
 40
0.0
 40
1.0
 40
1.0
 40
1.0
 40
2.0
 40
2.0
 40
2.0
 40
3.0
 40
3.0
 40
3.0
 40
4.0
 40
4.0
 40
4.0
 40
5.0
 40
5.0
 40
5.0
 40
6.0
 40
6.0
 40
6.0
 40
7.0
 40
7.0
 40
7.0
 40
8.0
 40
8.0
 40
8.0
 40
9.0
 40
9.0
 40
9.0
 40
10.0
 40
10.0
 40
10.0
 40
11.0
 40
11.0
 40
11.0
 40
12.0
 40
12.0
 40
12.0
 40
13.0
 40
13.0
 40
13.0
 40
14.0
 40
14.0
 40
14.0
 40
15.0
 40
15.0
 40
15.0
 40
16.0
 40
16.0
 40
16.0
 40
17.0
 40
17.0
 40
17.0
 40
18.0
 40
18.0
 40
18.0
 40
19.0
 40
19.0
 40
19.0
 40
20.0
 40
20.0
 40
20.0
 40
21.0
 40
21.0
 40
21.0
 40
22.0
 40
22.0
 40
22.0
 40
23.0
 40
23.0
 40
23.0
 40
24.0
 40
24.0
 40
24.0
 40
25.0
 40
25.0
 40
25.0
 40
26.0
 40
26.0
 40
26.0
 40
27.0
 40
27.0
 40
27.0
 40
28.0
 40
28.0
 40
28.0
 40
29.0
 40
29.0
 40
29.0
 40
30.0
 40
30.0
 40
30.0
 40
31.0
 40
31.0
 40
31.0
 40
32.0
 40
32.0
 40
32.0
 40
33.0
 40
33.0
 40
33.0
 40
34.0
 40
34.0
 40
34.0
 40
35.0
 40
35.0
 40
35.0
 40
36.0
 40
36.0
 40
36.0
 40
37.0
 40
37.0
 40
37.0
 40
38.0
 40
38.0
 40
38.0
 40
39.0
 40
39.0
 40
39.0
 40
40.0
 40
40.0
 40
40.0
 40
41.0
 40
41.0
 40
41.0
 40
42.0
 40
42.0
 40
42.0
 40
43.0
 40
43.0
 40
43.0
 40
44.0
 40
44.0
 40
44.0
 40
45.0
 40
45.0
 40
45.0
 40
46.0
 40
46.0
 40
46.0
 40
47.0
 40
47.0
 40
47.0
 40
48.0
 40
48.0
 40
48.0
 40
49.0
 40
49.0
 40
49.0
 40
50.0
 40
50.0
 40
50.0
 40
51.0
 40
51.0
 40
51.0
 40
52.0
 40
52.0
 40
52.0
 40
53.0
 40
53.0
 40
53.0
 40
54.0
 40
54.0
 40
54.0
 40
54.0
 10
735.8136772115849
 20
-772.6754478019811
 10
714.4651077617981
 20
-798.1920701557555
 10
701.3588403104986
 20
-822.6442025643354
 10
704.3615449345707
 20
-853.4143489201305
 10
705.0813619679701
 20
-860.7904658728712
 10
704.8078767361057
 20
-868.7628746099107
 10
694.2591796586348
 20
-869.1897350779345
 10
683.8721963592051
 20
-869.6098537763045
 10
683.0443335871059
 20
-861.6016072111088
 10
682.409498341618
 20
-854.3207621084638
 10
680.2636638431359
 20
-829.7087787931141
 10
684.3666963348878
 20
-806.928161720978
 10
696.4598353939927
 20
-784.4665368024161
 10
718.1867866979882
 20
-744.1111020276203
 10
737.4346294145907
 20
-702.4185791741638
 10
757.5551765460804
 20
-661.2050767960463
 10
759.3155769438599
 20
-657.5992945216894
 10
759.8707528516224
 20
-653.405026722632
 10
761.4225132022584
 20
-647.9481407873318
 10
726.6910863067023
 20
-660.129365352679
 10
699.7876530166958
 20
-678.2562097994159
 10
683.4513236110415
 20
-709.8319976287348
 10
679.8515287840237
 20
-716.7898143867605
 10
675.8745940078415
 20
-725.4420773687961
 10
665.2286735070447
 20
-718.453745232342
 10
669.8161820266341
 20
-687.9288751014173
 10
689.8581786641825
 20
-662.0683781415992
 10
722.6012712329048
 20
-643.8839625303262
 10
734.0155761250135
 20
-637.5447918454483
 10
745.4267762545168
 20
-631.197593132234
 10
756.758494461299
 20
-624.7127203861091
 10
771.479593297894
 20
-616.2883026060917
 10
778.3224900822151
 20
-602.9083736549583
 10
779.6712876659021
 20
-586.5456995236418
 10
781.353314984748
 20
-566.1400925804773
 10
778.636381581713
 20
-544.9128768146128
 10
764.9972038059168
 20
-530.5595161623478
 10
757.5009762617228
 20
-522.6708029472474
 10
740.168772073217
 20
-522.3547381410208
 10
727.139280965799
 20
-521.8154852762845
 10
679.5316938818232
 20
-519.8453805102144
 10
636.8909286004254
 20
-506.260492890884
 10
601.1569738592879
 20
-473.5547046309957
 10
595.7132826972538
 20
-468.5723150887643
 10
588.4823571177712
 20
-465.5425549360025
 10
580.5107017110477
 20
-460.6470987392949
 10
571.5575199600889
 20
-492.6071674388267
 10
552.6025894185159
 20
-514.671560192839
 10
528.4152468102684
 20
-533.9909438544291
 10
520.1913294417827
 20
-540.5596895374874
 10
517.2687276929536
 20
-554.6808583204565
 10
513.7114681136417
 20
-565.9169488757161
 10
510.2231342641907
 20
-576.9353512371817
 10
515.1491284384974
 20
-584.5775906762209
 10
527.0849003872144
 20
-587.0396672119604
 10
539.8672745680451
 20
-589.6764531599546
 10
552.5761767594867
 20
-592.6679803821862
 10
565.3273480761245
 20
-595.4579198210449
 10
580.5420598133714
 20
-598.7868460021545
 10
591.9097045588832
 20
-607.1521402364669
 10
597.6600353820422
 20
-621.74447888143
 10
599.1933889257979
 20
-625.6356331685928
 10
597.9417925885646
 20
-630.6242765892512
 10
597.9688040232404
 20
-635.1090170821044
 10
593.3378731809134
 20
-633.8181456085658
 10
586.8990168960535
 20
-634.0346806049165
 10
584.3650427180318
 20
-630.9954731038906
 10
565.8219589361861
 20
-608.7549959714433
 10
539.9121162108313
 20
-608.976764710027
 10
510.7905518073712
 20
-604.492999999622
 10
516.1432068944122
 20
-618.762443361209
 10
519.3052301939387
 20
-630.2906920526766
 10
524.6744292302974
 20
-640.6780292916337
 10
530.6454864978887
 20
-652.2296080543983
 10
540.0396332464469
 20
-662.1069659021123
 10
545.3338966196143
 20
-673.886168098159
 10
550.5499199751011
 20
-685.4913261881665
 10
553.3893362629568
 20
-698.4293143970517
 10
555.314865677642
 20
-711.0803338582136
 10
555.8607051207082
 20
-714.6666004835751
 10
549.5589684586684
 20
-719.295047119027
 10
546.3975882885379
 20
-723.4455377690901
 10
543.4744764715669
 20
-719.6928115285482
 10
539.8058002684401
 20
-716.3041408492645
 10
537.7633100109988
 20
-712.1213606708643
 10
530.6765563008275
 20
-697.6086370030552
 10
526.0827495485218
 20
-681.4751830399363
 10
516.9878132077092
 20
-668.4363787624915
 10
501.468790381291
 20
-646.1876074792217
 10
491.9781298694279
 20
-622.913732378729
 10
492.5046532537071
 20
-595.6119160331182
 10
492.6875903018462
 20
-586.1257582402632
 10
491.4896841808277
 20
-576.612988198778
 10
490.7196587007092
 20
-563.7159384990354
 10
482.7530817985343
 20
-570.8210984069737
 10
476.9682659335703
 20
-575.0881507060366
 10
472.2660918778665
 20
-580.3269492638137
 10
450.7809794040268
 20
-604.2642233689003
 10
440.5889641078338
 20
-633.1586053800219
 10
436.8824208893492
 20
-664.5532968574116
 10
432.3365051002456
 20
-703.0573618487778
 10
447.4736864798378
 20
-735.0544659276529
 10
469.1856462158202
 20
-765.6488383812465
 10
526.2650434672641
 20
-846.0794809527669
 10
600.0156187714546
 20
-905.1776563150925
 10
692.1862183739013
 20
-940.0195654187518
 10
742.5540281223966
 20
-959.059476115981
 10
785.2622554598529
 20
-945.2400015249768
 10
818.3073527226643
 20
-902.3466453058482
 10
848.6762776800897
 20
-862.9270746078692
 10
872.5118950387914
 20
-819.5213438951178
 10
887.5122450949493
 20
-772.2163865131169
 10
897.3740356226445
 20
-741.1162926280594
 10
904.8756299707729
 20
-708.7242184257684
 10
908.5351693010853
 20
-676.3568049072073
 10
912.0533532253103
 20
-645.2392356455493
 10
908.1909398355492
 20
-611.7594744880079
 10
882.3455209342737
 20
-590.6627918016729
 10
859.7892431843792
 20
-572.2508858183628
 10
831.6706058102646
 20
-560.6533565729623
 10
806.0096098078046
 20
-546.0450949325696
 10
809.6901728163375
 20
-581.1188410755439
 10
803.2787936805434
 20
-611.9018500181773
 10
797.6264402944889
 20
-642.8552660595396
 10
796.7440667617738
 20
-647.6875625194952
 10
799.035736395248
 20
-655.2333325572526
 10
802.6200961167377
 20
-658.3855090537108
 10
820.0121335160419
 20
-673.6804997699983
 10
825.7920926452152
 20
-693.6463836583024
 10
827.5283646021707
 20
-715.3604705128491
 10
827.7957290163268
 20
-718.7046100294264
 10
824.347757080759
 20
-722.3458309482084
 10
822.6180494790279
 20
-725.8496883103107
 10
819.1840489751866
 20
-723.7015032471608
 10
814.3731749629477
 20
-722.3314159801994
 10
812.621867084228
 20
-719.2322865660099
 10
809.5984492581957
 20
-713.8820270402175
 10
809.0666034237347
 20
-707.1807967127315
 10
806.4263133033218
 20
-701.5443668066727
 10
801.7084934617706
 20
-691.4730056664484
 10
796.2000236456442
 20
-681.7719539659083
 10
791.0221223395874
 20
-671.9161076858381
 10
789.1623695384041
 20
-672.1288282598853
 10
787.3026167372208
 20
-672.3415931876806
 10
785.4428195822857
 20
-672.5543137617278
 10
777.4895709824432
 20
-690.5531089388095
 10
769.4968031899953
 20
-708.5346061542786
 10
761.5942065743893
 20
-726.5556225589662
 10
753.7962404586123
 20
-744.3380158009386
 10
754.0969145401596
 20
-761.9800737851346
 10
761.1701403561164
 20
-780.1358368753827
 10
767.3019577960895
 20
-795.8752964975356
 10
772.0102415810633
 20
-812.1700650410984
 10
777.3199178828836
 20
-828.228605524322
 10
779.8341546414794
 20
-835.8326120328293
 10
782.4102648834432
 20
-844.4628755559987
 10
772.4025505132486
 20
-847.8070594263245
 10
761.595448479431
 20
-851.4184302728917
 10
758.4683759360996
 20
-842.7094832012716
 10
755.8280414619367
 20
-834.4127598609302
 10
749.552650928299
 20
-814.6936158711723
 10
743.0784225266015
 20
-795.0376316181627
 10
735.8136772115849
 20
-772.6754478019811
 97
        0
 97
        1
330
80
 92
        1
 93
        1
 72
     4
 94
        3
 73
     0
 74
     0
 95
      122
 96
      118
 40
0.0
 40
0.0
 40
0.0
 40
0.0
 40
1.0
 40
1.0
 40
1.0
 40
2.0
 40
2.0
 40
2.0
 40
3.0
 40
3.0
 40
3.0
 40
4.0
 40
4.0
 40
4.0
 40
5.0
 40
5.0
 40
5.0
 40
6.0
 40
6.0
 40
6.0
 40
7.0
 40
7.0
 40
7.0
 40
8.0
 40
8.0
 40
8.0
 40
9.0
 40
9.0
 40
9.0
 40
10.0
 40
10.0
 40
10.0
 40
11.0
 40
11.0
 40
11.0
 40
12.0
 40
12.0
 40
12.0
 40
13.0
 40
13.0
 40
13.0
 40
14.0
 40
14.0
 40
14.0
 40
15.0
 40
15.0
 40
15.0
 40
16.0
 40
16.0
 40
16.0
 40
17.0
 40
17.0
 40
17.0
 40
18.0
 40
18.0
 40
18.0
 40
19.0
 40
19.0
 40
19.0
 40
20.0
 40
20.0
 40
20.0
 40
21.0
 40
21.0
 40
21.0
 40
22.0
 40
22.0
 40
22.0
 40
23.0
 40
23.0
 40
23.0
 40
24.0
 40
24.0
 40
24.0
 40
25.0
 40
25.0
 40
25.0
 40
26.0
 40
26.0
 40
26.0
 40
27.0
 40
27.0
 40
27.0
 40
28.0
 40
28.0
 40
28.0
 40
29.0
 40
29.0
 40
29.0
 40
30.0
 40
30.0
 40
30.0
 40
31.0
 40
31.0
 40
31.0
 40
32.0
 40
32.0
 40
32.0
 40
33.0
 40
33.0
 40
33.0
 40
34.0
 40
34.0
 40
34.0
 40
35.0
 40
35.0
 40
35.0
 40
36.0
 40
36.0
 40
36.0
 40
37.0
 40
37.0
 40
37.0
 40
38.0
 40
38.0
 40
38.0
 40
39.0
 40
39.0
 40
39.0
 40
39.0
 10
556.449390287742
 20
-239.2497784404595
 10
575.1507060781305
 20
-229.2280047901822
 10
583.5347404896001
 20
-210.886199905136
 10
578.3872436802093
 20
-188.8510473593069
 10
574.8675517284346
 20
-173.784023817846
 10
570.4612061069228
 20
-158.9264830268512
 10
566.6956169567283
 20
-143.9140035066439
 10
561.1682524424541
 20
-121.8777310286841
 10
566.7006067537731
 20
-109.7441312999462
 10
585.0812005669304
 20
-102.9160825193021
 10
610.8713990475644
 20
-93.33550668599583
 10
633.0877274689419
 20
-98.95015335770677
 10
641.8846287764245
 20
-118.3172671960583
 10
649.2444241809462
 20
-134.5204008968376
 10
655.2428255363492
 20
-151.3419145482803
 10
663.3768822042584
 20
-171.7319976797444
 10
666.7018390099892
 20
-164.9945192519371
 10
668.788439073316
 20
-161.6720354526833
 10
670.0501924196478
 20
-158.061318823894
 10
677.702899999198
 20
-136.1616448004624
 10
685.436020930254
 20
-114.2831275146936
 10
692.5800796873882
 20
-92.21554129084598
 10
696.084292179883
 20
-81.3911311334532
 10
702.462139879528
 20
-75.99074078430567
 10
713.973224657453
 20
-77.37259842706681
 10
728.3557713087048
 20
-79.09917339708044
 10
742.8268480479873
 20
-80.32004356828656
 10
757.0874218825629
 20
-82.76429544166239
 10
770.341653448926
 20
-85.03608331126088
 10
775.8569093890346
 20
-93.0996778093886
 10
772.802310875686
 20
-106.9264707687634
 10
768.9827432098937
 20
-124.2158055742456
 10
765.9101814271799
 20
-141.6701474096698
 10
762.5151678709244
 20
-159.0532682146986
 10
763.6427732957872
 20
-159.578749240768
 10
764.7703343668982
 20
-160.1042413552768
 10
765.897895438009
 20
-160.6297223813462
 10
771.8078110591322
 20
-151.5421606307827
 10
777.8403648032053
 20
-142.5315637209451
 10
783.6004090979458
 20
-133.3499942020962
 10
793.6258649687479
 20
-117.3693388998617
 10
802.5033570427403
 20
-114.2921202370426
 10
820.1569928685039
 20
-121.1044456141217
 10
823.3097462339628
 20
-122.3210578255475
 10
826.4224481618002
 20
-123.7041074752778
 10
829.4046169989197
 20
-125.2904857929779
 10
862.8943162669566
 20
-143.1055123048318
 10
866.3611385469211
 20
-154.2349764505807
 10
844.896672744413
 20
-184.9337354494273
 10
832.0064524167628
 20
-203.3695702796312
 10
829.9932356353256
 20
-219.3819163346088
 10
842.3872705447339
 20
-239.5131953481469
 10
850.3491681261239
 20
-252.4453732160828
 10
851.9898577485546
 20
-269.2692376161549
 10
857.1314333321188
 20
-286.5984242639597
 10
874.3115485066665
 20
-288.3426575697822
 10
894.4293457055609
 20
-289.9123810552146
 10
914.4063197433807
 20
-292.5491448263365
 10
933.5499311439162
 20
-295.0759113031208
 10
941.0920204671802
 20
-303.1856835968374
 10
944.2388747836867
 20
-322.2943869567743
 10
944.4748810955188
 20
-323.7275452529875
 10
944.7661521817426
 20
-325.1538287183057
 10
944.9418817452606
 20
-326.594261029145
 10
950.6702131076654
 20
-373.5409510139643
 10
938.3997477499887
 20
-388.5436948865463
 10
891.3520824251845
 20
-392.0980711672992
 10
879.3078212002528
 20
-393.0079883017015
 10
867.2595237839342
 20
-393.8638382176378
 10
851.429758574377
 20
-395.0211162030555
 10
857.3634921600641
 20
-400.6972870670669
 10
861.2169904457696
 20
-404.4172802417933
 10
865.1066370389635
 20
-408.0991291934833
 10
904.6356761750557
 20
-445.5168378420276
 10
927.3285634796266
 20
-491.0394842257892
 10
918.9033909636254
 20
-545.5695784033032
 10
915.3481273031321
 20
-568.580169657349
 10
918.233427546933
 20
-586.1919340318563
 10
927.5523725097919
 20
-606.4401738781234
 10
943.2229964589005
 20
-640.4893484488475
 10
942.2860678118176
 20
-676.9114041686535
 10
934.7929006764788
 20
-713.2524255913813
 10
919.6253813308468
 20
-786.8128500566163
 10
890.7292670463593
 20
-854.535434247411
 10
846.3133759216761
 20
-915.0236560631711
 10
800.8870619836434
 20
-976.8879972555769
 10
742.6593682822531
 20
-994.1137509637083
 10
669.5019356971234
 20
-963.2478892203398
 10
570.4369446048421
 20
-921.4511350597495
 10
489.4589033137862
 20
-856.3974932840428
 10
431.9132926916909
 20
-764.0572484981912
 10
420.937657490539
 20
-746.4452623549459
 10
408.9940903699934
 20
-729.2474958616257
 10
395.8508762436813
 20
-713.2074952449457
 10
334.1371689484668
 20
-637.8920816900681
 10
324.1874831458062
 20
-534.4723150783956
 10
374.7575903549777
 20
-451.6931415652907
 10
391.2833269122748
 20
-424.6417908330322
 10
402.3116100164779
 20
-396.7366748109798
 10
409.7626299994353
 20
-366.6295504529235
 10
419.1691847099828
 20
-328.6207615854346
 10
430.3627520692207
 20
-290.9598391612862
 10
437.6224743218781
 20
-252.5510238431434
 10
441.6981627258165
 20
-230.9879614995698
 10
439.6642992730467
 20
-208.2216706879453
 10
439.8957482369096
 20
-185.9924150536708
 10
440.2057255178361
 20
-156.2207935317774
 10
452.9582828892089
 20
-142.4829631018838
 10
482.7619192835245
 20
-144.9445517463991
 10
501.277891834754
 20
-146.4738467907882
 10
519.7200708318951
 20
-151.5904840389203
 10
537.6166321547262
 20
-157.0085826218437
 10
550.2154261580217
 20
-160.82281642203
 10
556.6199526392065
 20
-171.1914031141396
 10
556.4911493447961
 20
-184.9866938242003
 10
556.3213188302306
 20
-203.1767645383079
 10
556.449390287742
 20
-221.3696295385207
 10
556.449390287742
 20
-239.2497784404595
 97
        0
 97
        1
330
81
 75
     2
 76
     1
 98
        1
 10
0.0
 20
0.0
450
        0
451
        0
460
0.0
461
0.0
452
        0
462
0.0
453
        0
470

  0
SPLINE
  5
83
330
70
100
AcDbEntity
  8
Capa 1
100
AcDbSpline
210
0.0
220
0.0
230
1.0
 70
     9
 71
     3
 72
   167
 73
   163
 74
     0
 42
0.0000000001
 43
0.0000000001
 40
0.0
 40
0.0
 40
0.0
 40
0.0
 40
1.0
 40
1.0
 40
1.0
 40
2.0
 40
2.0
 40
2.0
 40
3.0
 40
3.0
 40
3.0
 40
4.0
 40
4.0
 40
4.0
 40
5.0
 40
5.0
 40
5.0
 40
6.0
 40
6.0
 40
6.0
 40
7.0
 40
7.0
 40
7.0
 40
8.0
 40
8.0
 40
8.0
 40
9.0
 40
9.0
 40
9.0
 40
10.0
 40
10.0
 40
10.0
 40
11.0
 40
11.0
 40
11.0
 40
12.0
 40
12.0
 40
12.0
 40
13.0
 40
13.0
 40
13.0
 40
14.0
 40
14.0
 40
14.0
 40
15.0
 40
15.0
 40
15.0
 40
16.0
 40
16.0
 40
16.0
 40
17.0
 40
17.0
 40
17.0
 40
18.0
 40
18.0
 40
18.0
 40
19.0
 40
19.0
 40
19.0
 40
20.0
 40
20.0
 40
20.0
 40
21.0
 40
21.0
 40
21.0
 40
22.0
 40
22.0
 40
22.0
 40
23.0
 40
23.0
 40
23.0
 40
24.0
 40
24.0
 40
24.0
 40
25.0
 40
25.0
 40
25.0
 40
26.0
 40
26.0
 40
26.0
 40
27.0
 40
27.0
 40
27.0
 40
28.0
 40
28.0
 40
28.0
 40
29.0
 40
29.0
 40
29.0
 40
30.0
 40
30.0
 40
30.0
 40
31.0
 40
31.0
 40
31.0
 40
32.0
 40
32.0
 40
32.0
 40
33.0
 40
33.0
 40
33.0
 40
34.0
 40
34.0
 40
34.0
 40
35.0
 40
35.0
 40
35.0
 40
36.0
 40
36.0
 40
36.0
 40
37.0
 40
37.0
 40
37.0
 40
38.0
 40
38.0
 40
38.0
 40
39.0
 40
39.0
 40
39.0
 40
40.0
 40
40.0
 40
40.0
 40
41.0
 40
41.0
 40
41.0
 40
42.0
 40
42.0
 40
42.0
 40
43.0
 40
43.0
 40
43.0
 40
44.0
 40
44.0
 40
44.0
 40
45.0
 40
45.0
 40
45.0
 40
46.0
 40
46.0
 40
46.0
 40
47.0
 40
47.0
 40
47.0
 40
48.0
 40
48.0
 40
48.0
 40
49.0
 40
49.0
 40
49.0
 40
50.0
 40
50.0
 40
50.0
 40
51.0
 40
51.0
 40
51.0
 40
52.0
 40
52.0
 40
52.0
 40
53.0
 40
53.0
 40
53.0
 40
54.0
 40
54.0
 40
54.0
 40
54.0
 10
735.8136772115849
 20
-772.6754478019811
 30
0.0
 10
743.0784225266015
 20
-795.0376316181627
 30
0.0
 10
749.552650928299
 20
-814.6936158711723
 30
0.0
 10
755.8280414619367
 20
-834.4127598609302
 30
0.0
 10
758.4683759360996
 20
-842.7094832012716
 30
0.0
 10
761.595448479431
 20
-851.4184302728917
 30
0.0
 10
772.4025505132486
 20
-847.8070594263245
 30
0.0
 10
782.4102648834432
 20
-844.4628755559987
 30
0.0
 10
779.8341546414794
 20
-835.8326120328293
 30
0.0
 10
777.3199178828836
 20
-828.228605524322
 30
0.0
 10
772.0102415810633
 20
-812.1700650410984
 30
0.0
 10
767.3019577960895
 20
-795.8752964975356
 30
0.0
 10
761.1701403561164
 20
-780.1358368753827
 30
0.0
 10
754.0969145401596
 20
-761.9800737851346
 30
0.0
 10
753.7962404586123
 20
-744.3380158009386
 30
0.0
 10
761.5942065743893
 20
-726.5556225589662
 30
0.0
 10
769.4968031899953
 20
-708.5346061542786
 30
0.0
 10
777.4895709824432
 20
-690.5531089388095
 30
0.0
 10
785.4428195822857
 20
-672.5543137617278
 30
0.0
 10
787.3026167372208
 20
-672.3415931876806
 30
0.0
 10
789.1623695384041
 20
-672.1288282598853
 30
0.0
 10
791.0221223395874
 20
-671.9161076858381
 30
0.0
 10
796.2000236456442
 20
-681.7719539659083
 30
0.0
 10
801.7084934617706
 20
-691.4730056664484
 30
0.0
 10
806.4263133033218
 20
-701.5443668066727
 30
0.0
 10
809.0666034237347
 20
-707.1807967127315
 30
0.0
 10
809.5984492581957
 20
-713.8820270402175
 30
0.0
 10
812.621867084228
 20
-719.2322865660099
 30
0.0
 10
814.3731749629477
 20
-722.3314159801994
 30
0.0
 10
819.1840489751866
 20
-723.7015032471608
 30
0.0
 10
822.6180494790279
 20
-725.8496883103107
 30
0.0
 10
824.347757080759
 20
-722.3458309482084
 30
0.0
 10
827.7957290163268
 20
-718.7046100294264
 30
0.0
 10
827.5283646021707
 20
-715.3604705128491
 30
0.0
 10
825.7920926452152
 20
-693.6463836583024
 30
0.0
 10
820.0121335160419
 20
-673.6804997699983
 30
0.0
 10
802.6200961167377
 20
-658.3855090537108
 30
0.0
 10
799.035736395248
 20
-655.2333325572526
 30
0.0
 10
796.7440667617738
 20
-647.6875625194952
 30
0.0
 10
797.6264402944889
 20
-642.8552660595396
 30
0.0
 10
803.2787936805434
 20
-611.9018500181773
 30
0.0
 10
809.6901728163375
 20
-581.1188410755439
 30
0.0
 10
806.0096098078046
 20
-546.0450949325696
 30
0.0
 10
831.6706058102646
 20
-560.6533565729623
 30
0.0
 10
859.7892431843792
 20
-572.2508858183628
 30
0.0
 10
882.3455209342737
 20
-590.6627918016729
 30
0.0
 10
908.1909398355492
 20
-611.7594744880079
 30
0.0
 10
912.0533532253103
 20
-645.2392356455493
 30
0.0
 10
908.5351693010853
 20
-676.3568049072073
 30
0.0
 10
904.8756299707729
 20
-708.7242184257684
 30
0.0
 10
897.3740356226445
 20
-741.1162926280594
 30
0.0
 10
887.5122450949493
 20
-772.2163865131169
 30
0.0
 10
872.5118950387914
 20
-819.5213438951178
 30
0.0
 10
848.6762776800897
 20
-862.9270746078692
 30
0.0
 10
818.3073527226643
 20
-902.3466453058482
 30
0.0
 10
785.2622554598529
 20
-945.2400015249768
 30
0.0
 10
742.5540281223966
 20
-959.059476115981
 30
0.0
 10
692.1862183739013
 20
-940.0195654187518
 30
0.0
 10
600.0156187714546
 20
-905.1776563150925
 30
0.0
 10
526.2650434672641
 20
-846.0794809527669
 30
0.0
 10
469.1856462158202
 20
-765.6488383812465
 30
0.0
 10
447.4736864798378
 20
-735.0544659276529
 30
0.0
 10
432.3365051002456
 20
-703.0573618487778
 30
0.0
 10
436.8824208893492
 20
-664.5532968574116
 30
0.0
 10
440.5889641078338
 20
-633.1586053800219
 30
0.0
 10
450.7809794040268
 20
-604.2642233689003
 30
0.0
 10
472.2660918778665
 20
-580.3269492638137
 30
0.0
 10
476.9682659335703
 20
-575.0881507060366
 30
0.0
 10
482.7530817985343
 20
-570.8210984069737
 30
0.0
 10
490.7196587007092
 20
-563.7159384990354
 30
0.0
 10
491.4896841808277
 20
-576.612988198778
 30
0.0
 10
492.6875903018462
 20
-586.1257582402632
 30
0.0
 10
492.5046532537071
 20
-595.6119160331182
 30
0.0
 10
491.9781298694279
 20
-622.913732378729
 30
0.0
 10
501.468790381291
 20
-646.1876074792217
 30
0.0
 10
516.9878132077092
 20
-668.4363787624915
 30
0.0
 10
526.0827495485218
 20
-681.4751830399363
 30
0.0
 10
530.6765563008275
 20
-697.6086370030552
 30
0.0
 10
537.7633100109988
 20
-712.1213606708643
 30
0.0
 10
539.8058002684401
 20
-716.3041408492645
 30
0.0
 10
543.4744764715669
 20
-719.6928115285482
 30
0.0
 10
546.3975882885379
 20
-723.4455377690901
 30
0.0
 10
549.5589684586684
 20
-719.295047119027
 30
0.0
 10
555.8607051207082
 20
-714.6666004835751
 30
0.0
 10
555.314865677642
 20
-711.0803338582136
 30
0.0
 10
553.3893362629568
 20
-698.4293143970517
 30
0.0
 10
550.5499199751011
 20
-685.4913261881665
 30
0.0
 10
545.3338966196143
 20
-673.886168098159
 30
0.0
 10
540.0396332464469
 20
-662.1069659021123
 30
0.0
 10
530.6454864978887
 20
-652.2296080543983
 30
0.0
 10
524.6744292302974
 20
-640.6780292916337
 30
0.0
 10
519.3052301939387
 20
-630.2906920526766
 30
0.0
 10
516.1432068944122
 20
-618.762443361209
 30
0.0
 10
510.7905518073712
 20
-604.492999999622
 30
0.0
 10
539.9121162108313
 20
-608.976764710027
 30
0.0
 10
565.8219589361861
 20
-608.7549959714433
 30
0.0
 10
584.3650427180318
 20
-630.9954731038906
 30
0.0
 10
586.8990168960535
 20
-634.0346806049165
 30
0.0
 10
593.3378731809134
 20
-633.8181456085658
 30
0.0
 10
597.9688040232404
 20
-635.1090170821044
 30
0.0
 10
597.9417925885646
 20
-630.6242765892512
 30
0.0
 10
599.1933889257979
 20
-625.6356331685928
 30
0.0
 10
597.6600353820422
 20
-621.74447888143
 30
0.0
 10
591.9097045588832
 20
-607.1521402364669
 30
0.0
 10
580.5420598133714
 20
-598.7868460021545
 30
0.0
 10
565.3273480761245
 20
-595.4579198210449
 30
0.0
 10
552.5761767594867
 20
-592.6679803821862
 30
0.0
 10
539.8672745680451
 20
-589.6764531599546
 30
0.0
 10
527.0849003872144
 20
-587.0396672119604
 30
0.0
 10
515.1491284384974
 20
-584.5775906762209
 30
0.0
 10
510.2231342641907
 20
-576.9353512371817
 30
0.0
 10
513.7114681136417
 20
-565.9169488757161
 30
0.0
 10
517.2687276929536
 20
-554.6808583204565
 30
0.0
 10
520.1913294417827
 20
-540.5596895374874
 30
0.0
 10
528.4152468102684
 20
-533.9909438544291
 30
0.0
 10
552.6025894185159
 20
-514.671560192839
 30
0.0
 10
571.5575199600889
 20
-492.6071674388267
 30
0.0
 10
580.5107017110477
 20
-460.6470987392949
 30
0.0
 10
588.4823571177712
 20
-465.5425549360025
 30
0.0
 10
595.7132826972538
 20
-468.5723150887643
 30
0.0
 10
601.1569738592879
 20
-473.5547046309957
 30
0.0
 10
636.8909286004254
 20
-506.260492890884
 30
0.0
 10
679.5316938818232
 20
-519.8453805102144
 30
0.0
 10
727.139280965799
 20
-521.8154852762845
 30
0.0
 10
740.168772073217
 20
-522.3547381410208
 30
0.0
 10
757.5009762617228
 20
-522.6708029472474
 30
0.0
 10
764.9972038059168
 20
-530.5595161623478
 30
0.0
 10
778.636381581713
 20
-544.9128768146128
 30
0.0
 10
781.353314984748
 20
-566.1400925804773
 30
0.0
 10
779.6712876659021
 20
-586.5456995236418
 30
0.0
 10
778.3224900822151
 20
-602.9083736549583
 30
0.0
 10
771.479593297894
 20
-616.2883026060917
 30
0.0
 10
756.758494461299
 20
-624.7127203861091
 30
0.0
 10
745.4267762545168
 20
-631.197593132234
 30
0.0
 10
734.0155761250135
 20
-637.5447918454483
 30
0.0
 10
722.6012712329048
 20
-643.8839625303262
 30
0.0
 10
689.8581786641825
 20
-662.0683781415992
 30
0.0
 10
669.8161820266341
 20
-687.9288751014173
 30
0.0
 10
665.2286735070447
 20
-718.453745232342
 30
0.0
 10
675.8745940078415
 20
-725.4420773687961
 30
0.0
 10
679.8515287840237
 20
-716.7898143867605
 30
0.0
 10
683.4513236110415
 20
-709.8319976287348
 30
0.0
 10
699.7876530166958
 20
-678.2562097994159
 30
0.0
 10
726.6910863067023
 20
-660.129365352679
 30
0.0
 10
761.4225132022584
 20
-647.9481407873318
 30
0.0
 10
759.8707528516224
 20
-653.405026722632
 30
0.0
 10
759.3155769438599
 20
-657.5992945216894
 30
0.0
 10
757.5551765460804
 20
-661.2050767960463
 30
0.0
 10
737.4346294145907
 20
-702.4185791741638
 30
0.0
 10
718.1867866979882
 20
-744.1111020276203
 30
0.0
 10
696.4598353939927
 20
-784.4665368024161
 30
0.0
 10
684.3666963348878
 20
-806.928161720978
 30
0.0
 10
680.2636638431359
 20
-829.7087787931141
 30
0.0
 10
682.409498341618
 20
-854.3207621084638
 30
0.0
 10
683.0443335871059
 20
-861.6016072111088
 30
0.0
 10
683.8721963592051
 20
-869.6098537763045
 30
0.0
 10
694.2591796586348
 20
-869.1897350779345
 30
0.0
 10
704.8078767361057
 20
-868.7628746099107
 30
0.0
 10
705.0813619679701
 20
-860.7904658728712
 30
0.0
 10
704.3615449345707
 20
-853.4143489201305
 30
0.0
 10
701.3588403104986
 20
-822.6442025643354
 30
0.0
 10
714.4651077617981
 20
-798.1920701557555
 30
0.0
 10
735.8136772115849
 20
-772.6754478019811
 30
0.0
  0
HATCH
  5
84
330
70
100
AcDbEntity
  8
Capa 1
 62
   250
420
  1907995
440
 33554687
100
AcDbHatch
 10
0.0
 20
0.0
 30
0.0
210
0.0
220
0.0
230
1.0
  2
SOLID
 70
     1
 71
     1
 91
        1
 92
        1
 93
        1
 72
     4
 94
        3
 73
     0
 74
     0
 95
      167
 96
      163
 40
0.0
 40
0.0
 40
0.0
 40
0.0
 40
1.0
 40
1.0
 40
1.0
 40
2.0
 40
2.0
 40
2.0
 40
3.0
 40
3.0
 40
3.0
 40
4.0
 40
4.0
 40
4.0
 40
5.0
 40
5.0
 40
5.0
 40
6.0
 40
6.0
 40
6.0
 40
7.0
 40
7.0
 40
7.0
 40
8.0
 40
8.0
 40
8.0
 40
9.0
 40
9.0
 40
9.0
 40
10.0
 40
10.0
 40
10.0
 40
11.0
 40
11.0
 40
11.0
 40
12.0
 40
12.0
 40
12.0
 40
13.0
 40
13.0
 40
13.0
 40
14.0
 40
14.0
 40
14.0
 40
15.0
 40
15.0
 40
15.0
 40
16.0
 40
16.0
 40
16.0
 40
17.0
 40
17.0
 40
17.0
 40
18.0
 40
18.0
 40
18.0
 40
19.0
 40
19.0
 40
19.0
 40
20.0
 40
20.0
 40
20.0
 40
21.0
 40
21.0
 40
21.0
 40
22.0
 40
22.0
 40
22.0
 40
23.0
 40
23.0
 40
23.0
 40
24.0
 40
24.0
 40
24.0
 40
25.0
 40
25.0
 40
25.0
 40
26.0
 40
26.0
 40
26.0
 40
27.0
 40
27.0
 40
27.0
 40
28.0
 40
28.0
 40
28.0
 40
29.0
 40
29.0
 40
29.0
 40
30.0
 40
30.0
 40
30.0
 40
31.0
 40
31.0
 40
31.0
 40
32.0
 40
32.0
 40
32.0
 40
33.0
 40
33.0
 40
33.0
 40
34.0
 40
34.0
 40
34.0
 40
35.0
 40
35.0
 40
35.0
 40
36.0
 40
36.0
 40
36.0
 40
37.0
 40
37.0
 40
37.0
 40
38.0
 40
38.0
 40
38.0
 40
39.0
 40
39.0
 40
39.0
 40
40.0
 40
40.0
 40
40.0
 40
41.0
 40
41.0
 40
41.0
 40
42.0
 40
42.0
 40
42.0
 40
43.0
 40
43.0
 40
43.0
 40
44.0
 40
44.0
 40
44.0
 40
45.0
 40
45.0
 40
45.0
 40
46.0
 40
46.0
 40
46.0
 40
47.0
 40
47.0
 40
47.0
 40
48.0
 40
48.0
 40
48.0
 40
49.0
 40
49.0
 40
49.0
 40
50.0
 40
50.0
 40
50.0
 40
51.0
 40
51.0
 40
51.0
 40
52.0
 40
52.0
 40
52.0
 40
53.0
 40
53.0
 40
53.0
 40
54.0
 40
54.0
 40
54.0
 40
54.0
 10
735.8136772115849
 20
-772.6754478019811
 10
743.0784225266015
 20
-795.0376316181627
 10
749.552650928299
 20
-814.6936158711723
 10
755.8280414619367
 20
-834.4127598609302
 10
758.4683759360996
 20
-842.7094832012716
 10
761.595448479431
 20
-851.4184302728917
 10
772.4025505132486
 20
-847.8070594263245
 10
782.4102648834432
 20
-844.4628755559987
 10
779.8341546414794
 20
-835.8326120328293
 10
777.3199178828836
 20
-828.228605524322
 10
772.0102415810633
 20
-812.1700650410984
 10
767.3019577960895
 20
-795.8752964975356
 10
761.1701403561164
 20
-780.1358368753827
 10
754.0969145401596
 20
-761.9800737851346
 10
753.7962404586123
 20
-744.3380158009386
 10
761.5942065743893
 20
-726.5556225589662
 10
769.4968031899953
 20
-708.5346061542786
 10
777.4895709824432
 20
-690.5531089388095
 10
785.4428195822857
 20
-672.5543137617278
 10
787.3026167372208
 20
-672.3415931876806
 10
789.1623695384041
 20
-672.1288282598853
 10
791.0221223395874
 20
-671.9161076858381
 10
796.2000236456442
 20
-681.7719539659083
 10
801.7084934617706
 20
-691.4730056664484
 10
806.4263133033218
 20
-701.5443668066727
 10
809.0666034237347
 20
-707.1807967127315
 10
809.5984492581957
 20
-713.8820270402175
 10
812.621867084228
 20
-719.2322865660099
 10
814.3731749629477
 20
-722.3314159801994
 10
819.1840489751866
 20
-723.7015032471608
 10
822.6180494790279
 20
-725.8496883103107
 10
824.347757080759
 20
-722.3458309482084
 10
827.7957290163268
 20
-718.7046100294264
 10
827.5283646021707
 20
-715.3604705128491
 10
825.7920926452152
 20
-693.6463836583024
 10
820.0121335160419
 20
-673.6804997699983
 10
802.6200961167377
 20
-658.3855090537108
 10
799.035736395248
 20
-655.2333325572526
 10
796.7440667617738
 20
-647.6875625194952
 10
797.6264402944889
 20
-642.8552660595396
 10
803.2787936805434
 20
-611.9018500181773
 10
809.6901728163375
 20
-581.1188410755439
 10
806.0096098078046
 20
-546.0450949325696
 10
831.6706058102646
 20
-560.6533565729623
 10
859.7892431843792
 20
-572.2508858183628
 10
882.3455209342737
 20
-590.6627918016729
 10
908.1909398355492
 20
-611.7594744880079
 10
912.0533532253103
 20
-645.2392356455493
 10
908.5351693010853
 20
-676.3568049072073
 10
904.8756299707729
 20
-708.7242184257684
 10
897.3740356226445
 20
-741.1162926280594
 10
887.5122450949493
 20
-772.2163865131169
 10
872.5118950387914
 20
-819.5213438951178
 10
848.6762776800897
 20
-862.9270746078692
 10
818.3073527226643
 20
-902.3466453058482
 10
785.2622554598529
 20
-945.2400015249768
 10
742.5540281223966
 20
-959.059476115981
 10
692.1862183739013
 20
-940.0195654187518
 10
600.0156187714546
 20
-905.1776563150925
 10
526.2650434672641
 20
-846.0794809527669
 10
469.1856462158202
 20
-765.6488383812465
 10
447.4736864798378
 20
-735.0544659276529
 10
432.3365051002456
 20
-703.0573618487778
 10
436.8824208893492
 20
-664.5532968574116
 10
440.5889641078338
 20
-633.1586053800219
 10
450.7809794040268
 20
-604.2642233689003
 10
472.2660918778665
 20
-580.3269492638137
 10
476.9682659335703
 20
-575.0881507060366
 10
482.7530817985343
 20
-570.8210984069737
 10
490.7196587007092
 20
-563.7159384990354
 10
491.4896841808277
 20
-576.612988198778
 10
492.6875903018462
 20
-586.1257582402632
 10
492.5046532537071
 20
-595.6119160331182
 10
491.9781298694279
 20
-622.913732378729
 10
501.468790381291
 20
-646.1876074792217
 10
516.9878132077092
 20
-668.4363787624915
 10
526.0827495485218
 20
-681.4751830399363
 10
530.6765563008275
 20
-697.6086370030552
 10
537.7633100109988
 20
-712.1213606708643
 10
539.8058002684401
 20
-716.3041408492645
 10
543.4744764715669
 20
-719.6928115285482
 10
546.3975882885379
 20
-723.4455377690901
 10
549.5589684586684
 20
-719.295047119027
 10
555.8607051207082
 20
-714.6666004835751
 10
555.314865677642
 20
-711.0803338582136
 10
553.3893362629568
 20
-698.4293143970517
 10
550.5499199751011
 20
-685.4913261881665
 10
545.3338966196143
 20
-673.886168098159
 10
540.0396332464469
 20
-662.1069659021123
 10
530.6454864978887
 20
-652.2296080543983
 10
524.6744292302974
 20
-640.6780292916337
 10
519.3052301939387
 20
-630.2906920526766
 10
516.1432068944122
 20
-618.762443361209
 10
510.7905518073712
 20
-604.492999999622
 10
539.9121162108313
 20
-608.976764710027
 10
565.8219589361861
 20
-608.7549959714433
 10
584.3650427180318
 20
-630.9954731038906
 10
586.8990168960535
 20
-634.0346806049165
 10
593.3378731809134
 20
-633.8181456085658
 10
597.9688040232404
 20
-635.1090170821044
 10
597.9417925885646
 20
-630.6242765892512
 10
599.1933889257979
 20
-625.6356331685928
 10
597.6600353820422
 20
-621.74447888143
 10
591.9097045588832
 20
-607.1521402364669
 10
580.5420598133714
 20
-598.7868460021545
 10
565.3273480761245
 20
-595.4579198210449
 10
552.5761767594867
 20
-592.6679803821862
 10
539.8672745680451
 20
-589.6764531599546
 10
527.0849003872144
 20
-587.0396672119604
 10
515.1491284384974
 20
-584.5775906762209
 10
510.2231342641907
 20
-576.9353512371817
 10
513.7114681136417
 20
-565.9169488757161
 10
517.2687276929536
 20
-554.6808583204565
 10
520.1913294417827
 20
-540.5596895374874
 10
528.4152468102684
 20
-533.9909438544291
 10
552.6025894185159
 20
-514.671560192839
 10
571.5575199600889
 20
-492.6071674388267
 10
580.5107017110477
 20
-460.6470987392949
 10
588.4823571177712
 20
-465.5425549360025
 10
595.7132826972538
 20
-468.5723150887643
 10
601.1569738592879
 20
-473.5547046309957
 10
636.8909286004254
 20
-506.260492890884
 10
679.5316938818232
 20
-519.8453805102144
 10
727.139280965799
 20
-521.8154852762845
 10
740.168772073217
 20
-522.3547381410208
 10
757.5009762617228
 20
-522.6708029472474
 10
764.9972038059168
 20
-530.5595161623478
 10
778.636381581713
 20
-544.9128768146128
 10
781.353314984748
 20
-566.1400925804773
 10
779.6712876659021
 20
-586.5456995236418
 10
778.3224900822151
 20
-602.9083736549583
 10
771.479593297894
 20
-616.2883026060917
 10
756.758494461299
 20
-624.7127203861091
 10
745.4267762545168
 20
-631.197593132234
 10
734.0155761250135
 20
-637.5447918454483
 10
722.6012712329048
 20
-643.8839625303262
 10
689.8581786641825
 20
-662.0683781415992
 10
669.8161820266341
 20
-687.9288751014173
 10
665.2286735070447
 20
-718.453745232342
 10
675.8745940078415
 20
-725.4420773687961
 10
679.8515287840237
 20
-716.7898143867605
 10
683.4513236110415
 20
-709.8319976287348
 10
699.7876530166958
 20
-678.2562097994159
 10
726.6910863067023
 20
-660.129365352679
 10
761.4225132022584
 20
-647.9481407873318
 10
759.8707528516224
 20
-653.405026722632
 10
759.3155769438599
 20
-657.5992945216894
 10
757.5551765460804
 20
-661.2050767960463
 10
737.4346294145907
 20
-702.4185791741638
 10
718.1867866979882
 20
-744.1111020276203
 10
696.4598353939927
 20
-784.4665368024161
 10
684.3666963348878
 20
-806.928161720978
 10
680.2636638431359
 20
-829.7087787931141
 10
682.409498341618
 20
-854.3207621084638
 10
683.0443335871059
 20
-861.6016072111088
 10
683.8721963592051
 20
-869.6098537763045
 10
694.2591796586348
 20
-869.1897350779345
 10
704.8078767361057
 20
-868.7628746099107
 10
705.0813619679701
 20
-860.7904658728712
 10
704.3615449345707
 20
-853.4143489201305
 10
701.3588403104986
 20
-822.6442025643354
 10
714.4651077617981
 20
-798.1920701557555
 10
735.8136772115849
 20
-772.6754478019811
 97
        0
 97
        1
330
83
 75
     2
 76
     1
 98
        1
 10
0.0
 20
0.0
450
        0
451
        0
460
0.0
461
0.0
452
        0
462
0.0
453
        0
470

  0
SPLINE
  5
85
330
70
100
AcDbEntity
  8
Capa 1
100
AcDbSpline
210
0.0
220
0.0
230
1.0
 70
     9
 71
     3
 72
    80
 73
    76
 74
     0
 42
0.0000000001
 43
0.0000000001
 40
0.0
 40
0.0
 40
0.0
 40
0.0
 40
1.0
 40
1.0
 40
1.0
 40
2.0
 40
2.0
 40
2.0
 40
3.0
 40
3.0
 40
3.0
 40
4.0
 40
4.0
 40
4.0
 40
5.0
 40
5.0
 40
5.0
 40
6.0
 40
6.0
 40
6.0
 40
7.0
 40
7.0
 40
7.0
 40
8.0
 40
8.0
 40
8.0
 40
9.0
 40
9.0
 40
9.0
 40
10.0
 40
10.0
 40
10.0
 40
11.0
 40
11.0
 40
11.0
 40
12.0
 40
12.0
 40
12.0
 40
13.0
 40
13.0
 40
13.0
 40
14.0
 40
14.0
 40
14.0
 40
15.0
 40
15.0
 40
15.0
 40
16.0
 40
16.0
 40
16.0
 40
17.0
 40
17.0
 40
17.0
 40
18.0
 40
18.0
 40
18.0
 40
19.0
 40
19.0
 40
19.0
 40
20.0
 40
20.0
 40
20.0
 40
21.0
 40
21.0
 40
21.0
 40
22.0
 40
22.0
 40
22.0
 40
23.0
 40
23.0
 40
23.0
 40
24.0
 40
24.0
 40
24.0
 40
25.0
 40
25.0
 40
25.0
 40
25.0
 10
593.6242653544704
 20
-133.4432146913596
 30
0.0
 10
610.7237454087571
 20
-124.0575292255198
 30
0.0
 10
615.6455259766699
 20
-125.4684219403789
 30
0.0
 10
621.9964065953917
 20
-141.3369177030763
 30
0.0
 10
627.3813955672904
 20
-154.7920040797144
 30
0.0
 10
632.3949440470942
 20
-168.3964406133509
 30
0.0
 10
637.5179132318954
 20
-181.955536528385
 30
0.0
 10
641.9792131515378
 20
-193.7633912454557
 30
0.0
 10
649.4117265316754
 20
-202.2763612827894
 30
0.0
 10
662.9151818278232
 20
-202.0975491488707
 30
0.0
 10
677.0548916895095
 20
-201.9102654491389
 30
0.0
 10
686.3683367871799
 20
-194.3197646568114
 30
0.0
 10
690.9792197338192
 20
-180.966337069939
 30
0.0
 10
697.448214392838
 20
-162.231613422311
 30
0.0
 10
704.000948934723
 20
-143.5254092344639
 30
0.0
 10
710.3801716006655
 20
-124.7601923852808
 30
0.0
 10
717.1558280976841
 20
-104.8287270052042
 30
0.0
 10
717.0856161090305
 20
-104.8048536004953
 30
0.0
 10
741.0032879080445
 20
-110.0158534468946
 30
0.0
 10
738.5224051705918
 20
-128.2433919893847
 30
0.0
 10
735.7123288893653
 20
-146.636902255831
 30
0.0
 10
733.5794900400815
 20
-165.1086303563743
 30
0.0
 10
730.6558681549668
 20
-190.4289319343179
 30
0.0
 10
735.4264246070761
 20
-201.6082607809376
 30
0.0
 10
750.3356720576121
 20
-206.3536460722453
 30
0.0
 10
765.0548636828916
 20
-211.0385328516686
 30
0.0
 10
775.3629860121218
 20
-204.5058689423786
 30
0.0
 10
788.0643480658054
 20
-182.3760211451736
 30
0.0
 10
794.0423910492609
 20
-171.9603751267368
 30
0.0
 10
799.9565646305291
 20
-161.5080818242486
 30
0.0
 10
806.4965696457292
 20
-150.0243088533043
 30
0.0
 10
812.1067426140889
 20
-153.2367953582224
 30
0.0
 10
816.905153222151
 20
-155.9844656755085
 30
0.0
 10
823.0140397725863
 20
-159.4825459619715
 30
0.0
 10
817.5636290171969
 20
-169.0790004369601
 30
0.0
 10
812.7379408519537
 20
-177.8205807784607
 30
0.0
 10
807.682455900087
 20
-186.4272370194085
 30
0.0
 10
796.0959253908295
 20
-206.1525240032251
 30
0.0
 10
795.6089655529067
 20
-225.3599144518312
 30
0.0
 10
808.361866665853
 20
-245.1022776285181
 30
0.0
 10
813.7788346925955
 20
-253.4881298248965
 30
0.0
 10
817.9206323631733
 20
-263.0787628704966
 30
0.0
 10
820.6887056417109
 20
-272.6847201359333
 30
0.0
 10
823.3219435156296
 20
-281.8229671316995
 30
0.0
 10
820.527568462443
 20
-288.0275685460055
 30
0.0
 10
808.3836887116012
 20
-287.9068376447212
 30
0.0
 10
781.7873164433604
 20
-287.6424227777088
 30
0.0
 10
755.1668157342938
 20
-288.4724366356004
 30
0.0
 10
728.5751006099653
 20
-289.3983654729291
 30
0.0
 10
691.216113120683
 20
-290.6992165397042
 30
0.0
 10
664.6903742017366
 20
-309.3436026916716
 30
0.0
 10
647.9558146380704
 20
-342.0978695978147
 30
0.0
 10
641.8207815511123
 20
-354.1058484245823
 30
0.0
 10
636.8359077716668
 20
-366.7663595877548
 30
0.0
 10
632.1462525623283
 20
-379.4327476224998
 30
0.0
 10
624.9964056406206
 20
-398.7438149563923
 30
0.0
 10
610.8610868003352
 20
-411.4473492548495
 30
0.0
 10
593.5900242582975
 20
-420.9659739910311
 30
0.0
 10
590.3407349526578
 20
-422.7567565550835
 30
0.0
 10
583.6060169682905
 20
-422.3402305102781
 30
0.0
 10
580.7933459926016
 20
-420.0725564507802
 30
0.0
 10
570.2799766782163
 20
-411.5962004321854
 30
0.0
 10
559.1925589348011
 20
-403.0512291658751
 30
0.0
 10
551.3398381127753
 20
-392.3221019470148
 30
0.0
 10
545.8460050346493
 20
-384.8158954522233
 30
0.0
 10
542.4773154299209
 20
-373.5661217657926
 30
0.0
 10
542.969730779283
 20
-364.2423873970765
 30
0.0
 10
545.2040953657934
 20
-321.9354986071258
 30
0.0
 10
559.5627796987282
 20
-283.7388716180594
 30
0.0
 10
588.445055612744
 20
-252.2421221671721
 30
0.0
 10
610.7598937162456
 20
-227.9072610675557
 30
0.0
 10
615.675974827087
 20
-201.0370732178444
 30
0.0
 10
605.1155461823409
 20
-170.3857727290551
 30
0.0
 10
600.889343322623
 20
-158.1193778796541
 30
0.0
 10
597.3836671563285
 20
-145.6047240158477
 30
0.0
 10
593.6242653544704
 20
-133.4432146913596
 30
0.0
  0
HATCH
  5
86
330
70
100
AcDbEntity
  8
Capa 1
 62
   250
420
  1907995
440
 33554687
100
AcDbHatch
 10
0.0
 20
0.0
 30
0.0
210
0.0
220
0.0
230
1.0
  2
SOLID
 70
     1
 71
     1
 91
        1
 92
        1
 93
        1
 72
     4
 94
        3
 73
     0
 74
     0
 95
       80
 96
       76
 40
0.0
 40
0.0
 40
0.0
 40
0.0
 40
1.0
 40
1.0
 40
1.0
 40
2.0
 40
2.0
 40
2.0
 40
3.0
 40
3.0
 40
3.0
 40
4.0
 40
4.0
 40
4.0
 40
5.0
 40
5.0
 40
5.0
 40
6.0
 40
6.0
 40
6.0
 40
7.0
 40
7.0
 40
7.0
 40
8.0
 40
8.0
 40
8.0
 40
9.0
 40
9.0
 40
9.0
 40
10.0
 40
10.0
 40
10.0
 40
11.0
 40
11.0
 40
11.0
 40
12.0
 40
12.0
 40
12.0
 40
13.0
 40
13.0
 40
13.0
 40
14.0
 40
14.0
 40
14.0
 40
15.0
 40
15.0
 40
15.0
 40
16.0
 40
16.0
 40
16.0
 40
17.0
 40
17.0
 40
17.0
 40
18.0
 40
18.0
 40
18.0
 40
19.0
 40
19.0
 40
19.0
 40
20.0
 40
20.0
 40
20.0
 40
21.0
 40
21.0
 40
21.0
 40
22.0
 40
22.0
 40
22.0
 40
23.0
 40
23.0
 40
23.0
 40
24.0
 40
24.0
 40
24.0
 40
25.0
 40
25.0
 40
25.0
 40
25.0
 10
593.6242653544704
 20
-133.4432146913596
 10
610.7237454087571
 20
-124.0575292255198
 10
615.6455259766699
 20
-125.4684219403789
 10
621.9964065953917
 20
-141.3369177030763
 10
627.3813955672904
 20
-154.7920040797144
 10
632.3949440470942
 20
-168.3964406133509
 10
637.5179132318954
 20
-181.955536528385
 10
641.9792131515378
 20
-193.7633912454557
 10
649.4117265316754
 20
-202.2763612827894
 10
662.9151818278232
 20
-202.0975491488707
 10
677.0548916895095
 20
-201.9102654491389
 10
686.3683367871799
 20
-194.3197646568114
 10
690.9792197338192
 20
-180.966337069939
 10
697.448214392838
 20
-162.231613422311
 10
704.000948934723
 20
-143.5254092344639
 10
710.3801716006655
 20
-124.7601923852808
 10
717.1558280976841
 20
-104.8287270052042
 10
717.0856161090305
 20
-104.8048536004953
 10
741.0032879080445
 20
-110.0158534468946
 10
738.5224051705918
 20
-128.2433919893847
 10
735.7123288893653
 20
-146.636902255831
 10
733.5794900400815
 20
-165.1086303563743
 10
730.6558681549668
 20
-190.4289319343179
 10
735.4264246070761
 20
-201.6082607809376
 10
750.3356720576121
 20
-206.3536460722453
 10
765.0548636828916
 20
-211.0385328516686
 10
775.3629860121218
 20
-204.5058689423786
 10
788.0643480658054
 20
-182.3760211451736
 10
794.0423910492609
 20
-171.9603751267368
 10
799.9565646305291
 20
-161.5080818242486
 10
806.4965696457292
 20
-150.0243088533043
 10
812.1067426140889
 20
-153.2367953582224
 10
816.905153222151
 20
-155.9844656755085
 10
823.0140397725863
 20
-159.4825459619715
 10
817.5636290171969
 20
-169.0790004369601
 10
812.7379408519537
 20
-177.8205807784607
 10
807.682455900087
 20
-186.4272370194085
 10
796.0959253908295
 20
-206.1525240032251
 10
795.6089655529067
 20
-225.3599144518312
 10
808.361866665853
 20
-245.1022776285181
 10
813.7788346925955
 20
-253.4881298248965
 10
817.9206323631733
 20
-263.0787628704966
 10
820.6887056417109
 20
-272.6847201359333
 10
823.3219435156296
 20
-281.8229671316995
 10
820.527568462443
 20
-288.0275685460055
 10
808.3836887116012
 20
-287.9068376447212
 10
781.7873164433604
 20
-287.6424227777088
 10
755.1668157342938
 20
-288.4724366356004
 10
728.5751006099653
 20
-289.3983654729291
 10
691.216113120683
 20
-290.6992165397042
 10
664.6903742017366
 20
-309.3436026916716
 10
647.9558146380704
 20
-342.0978695978147
 10
641.8207815511123
 20
-354.1058484245823
 10
636.8359077716668
 20
-366.7663595877548
 10
632.1462525623283
 20
-379.4327476224998
 10
624.9964056406206
 20
-398.7438149563923
 10
610.8610868003352
 20
-411.4473492548495
 10
593.5900242582975
 20
-420.9659739910311
 10
590.3407349526578
 20
-422.7567565550835
 10
583.6060169682905
 20
-422.3402305102781
 10
580.7933459926016
 20
-420.0725564507802
 10
570.2799766782163
 20
-411.5962004321854
 10
559.1925589348011
 20
-403.0512291658751
 10
551.3398381127753
 20
-392.3221019470148
 10
545.8460050346493
 20
-384.8158954522233
 10
542.4773154299209
 20
-373.5661217657926
 10
542.969730779283
 20
-364.2423873970765
 10
545.2040953657934
 20
-321.9354986071258
 10
559.5627796987282
 20
-283.7388716180594
 10
588.445055612744
 20
-252.2421221671721
 10
610.7598937162456
 20
-227.9072610675557
 10
615.675974827087
 20
-201.0370732178444
 10
605.1155461823409
 20
-170.3857727290551
 10
600.889343322623
 20
-158.1193778796541
 10
597.3836671563285
 20
-145.6047240158477
 10
593.6242653544704
 20
-133.4432146913596
 97
        0
 97
        1
330
85
 75
     2
 76
     1
 98
        1
 10
0.0
 20
0.0
450
        0
451
        0
460
0.0
461
0.0
452
        0
462
0.0
453
        0
470

  0
SPLINE
  5
87
330
70
100
AcDbEntity
  8
Capa 1
100
AcDbSpline
210
0.0
220
0.0
230
1.0
 70
     9
 71
     3
 72
    35
 73
    31
 74
     0
 42
0.0000000001
 43
0.0000000001
 40
0.0
 40
0.0
 40
0.0
 40
0.0
 40
1.0
 40
1.0
 40
1.0
 40
2.0
 40
2.0
 40
2.0
 40
3.0
 40
3.0
 40
3.0
 40
4.0
 40
4.0
 40
4.0
 40
5.0
 40
5.0
 40
5.0
 40
6.0
 40
6.0
 40
6.0
 40
7.0
 40
7.0
 40
7.0
 40
8.0
 40
8.0
 40
8.0
 40
9.0
 40
9.0
 40
9.0
 40
10.0
 40
10.0
 40
10.0
 40
10.0
 10
616.8169529080323
 20
-445.8144958429529
 30
0.0
 10
628.517295143687
 20
-434.8610717218917
 30
0.0
 10
639.9525350065133
 20
-425.1948377133085
 30
0.0
 10
650.0318363316583
 20
-414.276807882924
 30
0.0
 10
654.9896764995556
 20
-408.9064561094174
 30
0.0
 10
659.6380161893539
 20
-401.541028409878
 30
0.0
 10
660.665648258293
 20
-394.527414637224
 30
0.0
 10
667.6467513323468
 20
-346.881554350276
 30
0.0
 10
694.3430969565087
 20
-318.9305543762111
 30
0.0
 10
741.6821220750389
 20
-317.398952936941
 30
0.0
 10
790.9784338943427
 20
-315.8040365228053
 30
0.0
 10
840.418584929821
 20
-317.697165359712
 30
0.0
 10
889.7656374408615
 20
-319.1161304566567
 30
0.0
 10
908.7012741005237
 20
-319.6606392404974
 30
0.0
 10
918.760305761225
 20
-338.7799431461381
 30
0.0
 10
909.9964923523767
 20
-355.6898759936539
 30
0.0
 10
908.550914882875
 20
-358.4789948881808
 30
0.0
 10
903.1823367990382
 20
-360.1884326789204
 30
0.0
 10
899.4094292798436
 20
-360.6608444458479
 30
0.0
 10
877.3377162652923
 20
-363.4245264660594
 30
0.0
 10
854.9849335273666
 20
-364.4527350456219
 30
0.0
 10
833.1293119902129
 20
-368.3326013039914
 30
0.0
 10
778.1420146672844
 20
-378.0940849857961
 30
0.0
 10
747.9471338308212
 20
-417.5590295676884
 30
0.0
 10
751.0037726167411
 20
-473.6352066831013
 30
0.0
 10
751.2878583952187
 20
-478.8469938085208
 30
0.0
 10
751.0416063667853
 20
-484.087788284949
 30
0.0
 10
751.0416063667853
 20
-490.5974547760479
 30
0.0
 10
700.0508925319609
 20
-494.1612340513166
 30
0.0
 10
654.3862658870175
 20
-483.5331003160072
 30
0.0
 10
616.8169529080323
 20
-445.8144958429529
 30
0.0
  0
HATCH
  5
88
330
70
100
AcDbEntity
  8
Capa 1
 62
   250
420
  1907995
440
 33554687
100
AcDbHatch
 10
0.0
 20
0.0
 30
0.0
210
0.0
220
0.0
230
1.0
  2
SOLID
 70
     1
 71
     1
 91
        1
 92
        1
 93
        1
 72
     4
 94
        3
 73
     0
 74
     0
 95
       35
 96
       31
 40
0.0
 40
0.0
 40
0.0
 40
0.0
 40
1.0
 40
1.0
 40
1.0
 40
2.0
 40
2.0
 40
2.0
 40
3.0
 40
3.0
 40
3.0
 40
4.0
 40
4.0
 40
4.0
 40
5.0
 40
5.0
 40
5.0
 40
6.0
 40
6.0
 40
6.0
 40
7.0
 40
7.0
 40
7.0
 40
8.0
 40
8.0
 40
8.0
 40
9.0
 40
9.0
 40
9.0
 40
10.0
 40
10.0
 40
10.0
 40
10.0
 10
616.8169529080323
 20
-445.8144958429529
 10
628.517295143687
 20
-434.8610717218917
 10
639.9525350065133
 20
-425.1948377133085
 10
650.0318363316583
 20
-414.276807882924
 10
654.9896764995556
 20
-408.9064561094174
 10
659.6380161893539
 20
-401.541028409878
 10
660.665648258293
 20
-394.527414637224
 10
667.6467513323468
 20
-346.881554350276
 10
694.3430969565087
 20
-318.9305543762111
 10
741.6821220750389
 20
-317.398952936941
 10
790.9784338943427
 20
-315.8040365228053
 10
840.418584929821
 20
-317.697165359712
 10
889.7656374408615
 20
-319.1161304566567
 10
908.7012741005237
 20
-319.6606392404974
 10
918.760305761225
 20
-338.7799431461381
 10
909.9964923523767
 20
-355.6898759936539
 10
908.550914882875
 20
-358.4789948881808
 10
903.1823367990382
 20
-360.1884326789204
 10
899.4094292798436
 20
-360.6608444458479
 10
877.3377162652923
 20
-363.4245264660594
 10
854.9849335273666
 20
-364.4527350456219
 10
833.1293119902129
 20
-368.3326013039914
 10
778.1420146672844
 20
-378.0940849857961
 10
747.9471338308212
 20
-417.5590295676884
 10
751.0037726167411
 20
-473.6352066831013
 10
751.2878583952187
 20
-478.8469938085208
 10
751.0416063667853
 20
-484.087788284949
 10
751.0416063667853
 20
-490.5974547760479
 10
700.0508925319609
 20
-494.1612340513166
 10
654.3862658870175
 20
-483.5331003160072
 10
616.8169529080323
 20
-445.8144958429529
 97
        0
 97
        1
330
87
 75
     2
 76
     1
 98
        1
 10
0.0
 20
0.0
450
        0
451
        0
460
0.0
461
0.0
452
        0
462
0.0
453
        0
470

  0
SPLINE
  5
89
330
70
100
AcDbEntity
  8
Capa 1
100
AcDbSpline
210
0.0
220
0.0
230
1.0
 70
     9
 71
     3
 72
    32
 73
    28
 74
     0
 42
0.0000000001
 43
0.0000000001
 40
0.0
 40
0.0
 40
0.0
 40
0.0
 40
1.0
 40
1.0
 40
1.0
 40
2.0
 40
2.0
 40
2.0
 40
3.0
 40
3.0
 40
3.0
 40
4.0
 40
4.0
 40
4.0
 40
5.0
 40
5.0
 40
5.0
 40
6.0
 40
6.0
 40
6.0
 40
7.0
 40
7.0
 40
7.0
 40
8.0
 40
8.0
 40
8.0
 40
9.0
 40
9.0
 40
9.0
 40
9.0
 10
404.4642528158155
 20
-676.5930773212931
 30
0.0
 10
391.0298119570307
 20
-659.1067009915804
 30
0.0
 10
383.9280389577516
 20
-638.3977144140353
 30
0.0
 10
378.2654731204102
 20
-616.9550281417651
 30
0.0
 10
365.3949957564055
 20
-568.2177108310098
 30
0.0
 10
368.192858123306
 20
-521.1260949755269
 30
0.0
 10
392.9572929367832
 20
-476.4036789080655
 30
0.0
 10
414.9195852463381
 20
-436.7416706250687
 30
0.0
 10
451.8029785465232
 20
-413.0541524733725
 30
0.0
 10
488.4216908345197
 20
-389.569508363732
 30
0.0
 10
492.944398523141
 20
-386.6689506780677
 30
0.0
 10
504.6110540845165
 20
-388.8504897595012
 30
0.0
 10
509.0172222910223
 20
-392.9365344141306
 30
0.0
 10
523.4881659690509
 20
-406.3559825544789
 30
0.0
 10
536.9145344450599
 20
-421.1381995934152
 30
0.0
 10
548.991284792979
 20
-436.7512066808276
 30
0.0
 10
552.3710184818355
 20
-441.1205830758699
 30
0.0
 10
551.5747134039429
 20
-450.7848211658056
 30
0.0
 10
549.5074293994029
 20
-456.9520323707856
 30
0.0
 10
539.5970049831649
 20
-486.5175752923505
 30
0.0
 10
515.3587886219265
 20
-504.363704869791
 30
0.0
 10
492.417076771334
 20
-522.7601757488964
 30
0.0
 10
463.6803366044896
 20
-545.8035887762526
 30
0.0
 10
438.177295399626
 20
-571.6756620642263
 30
0.0
 10
424.5524217086949
 20
-606.2545534439305
 30
0.0
 10
415.8301899418948
 20
-628.3909323304869
 30
0.0
 10
411.2736846946172
 20
-652.1686660050363
 30
0.0
 10
404.4642528158155
 20
-676.5930773212931
 30
0.0
  0
HATCH
  5
8A
330
70
100
AcDbEntity
  8
Capa 1
 62
   250
420
  1907995
440
 33554687
100
AcDbHatch
 10
0.0
 20
0.0
 30
0.0
210
0.0
220
0.0
230
1.0
  2
SOLID
 70
     1
 71
     1
 91
        1
 92
        1
 93
        1
 72
     4
 94
        3
 73
     0
 74
     0
 95
       32
 96
       28
 40
0.0
 40
0.0
 40
0.0
 40
0.0
 40
1.0
 40
1.0
 40
1.0
 40
2.0
 40
2.0
 40
2.0
 40
3.0
 40
3.0
 40
3.0
 40
4.0
 40
4.0
 40
4.0
 40
5.0
 40
5.0
 40
5.0
 40
6.0
 40
6.0
 40
6.0
 40
7.0
 40
7.0
 40
7.0
 40
8.0
 40
8.0
 40
8.0
 40
9.0
 40
9.0
 40
9.0
 40
9.0
 10
404.4642528158155
 20
-676.5930773212931
 10
391.0298119570307
 20
-659.1067009915804
 10
383.9280389577516
 20
-638.3977144140353
 10
378.2654731204102
 20
-616.9550281417651
 10
365.3949957564055
 20
-568.2177108310098
 10
368.192858123306
 20
-521.1260949755269
 10
392.9572929367832
 20
-476.4036789080655
 10
414.9195852463381
 20
-436.7416706250687
 10
451.8029785465232
 20
-413.0541524733725
 10
488.4216908345197
 20
-389.569508363732
 10
492.944398523141
 20
-386.6689506780677
 10
504.6110540845165
 20
-388.8504897595012
 10
509.0172222910223
 20
-392.9365344141306
 10
523.4881659690509
 20
-406.3559825544789
 10
536.9145344450599
 20
-421.1381995934152
 10
548.991284792979
 20
-436.7512066808276
 10
552.3710184818355
 20
-441.1205830758699
 10
551.5747134039429
 20
-450.7848211658056
 10
549.5074293994029
 20
-456.9520323707856
 10
539.5970049831649
 20
-486.5175752923505
 10
515.3587886219265
 20
-504.363704869791
 10
492.417076771334
 20
-522.7601757488964
 10
463.6803366044896
 20
-545.8035887762526
 10
438.177295399626
 20
-571.6756620642263
 10
424.5524217086949
 20
-606.2545534439305
 10
415.8301899418948
 20
-628.3909323304869
 10
411.2736846946172
 20
-652.1686660050363
 10
404.4642528158155
 20
-676.5930773212931
 97
        0
 97
        1
330
89
 75
     2
 76
     1
 98
        1
 10
0.0
 20
0.0
450
        0
451
        0
460
0.0
461
0.0
452
        0
462
0.0
453
        0
470

  0
SPLINE
  5
8B
330
70
100
AcDbEntity
  8
Capa 1
100
AcDbSpline
210
0.0
220
0.0
230
1.0
 70
     9
 71
     3
 72
    23
 73
    19
 74
     0
 42
0.0000000001
 43
0.0000000001
 40
0.0
 40
0.0
 40
0.0
 40
0.0
 40
1.0
 40
1.0
 40
1.0
 40
2.0
 40
2.0
 40
2.0
 40
3.0
 40
3.0
 40
3.0
 40
4.0
 40
4.0
 40
4.0
 40
5.0
 40
5.0
 40
5.0
 40
6.0
 40
6.0
 40
6.0
 40
6.0
 10
441.949881354124
 20
-380.5391740361593
 30
0.0
 10
455.9117992028468
 20
-314.3097587622378
 30
0.0
 10
476.9774915138859
 20
-247.3032880051988
 30
0.0
 10
468.2951781234533
 20
-176.0326922964477
 30
0.0
 10
486.2941744354174
 20
-171.6180196365503
 30
0.0
 10
502.4134587580147
 20
-173.9596313934926
 30
0.0
 10
517.4468301821771
 20
-180.8551422244136
 30
0.0
 10
521.8641311803139
 20
-182.8812768622856
 30
0.0
 10
526.8349891742809
 20
-190.6085091703853
 30
0.0
 10
526.4019191444512
 20
-195.2414798881072
 30
0.0
 10
521.638570176965
 20
-246.2009199594541
 30
0.0
 10
515.9689188278189
 20
-297.0781060056625
 30
0.0
 10
510.103179543209
 20
-347.9266173539709
 30
0.0
 10
509.7038848951606
 20
-351.3878729413927
 30
0.0
 10
506.4484082411836
 20
-356.1535278954079
 30
0.0
 10
503.3482806019001
 20
-357.403704805417
 30
0.0
 10
483.5091802006764
 20
-365.4040120497703
 30
0.0
 10
463.3417511538327
 20
-372.590161901041
 30
0.0
 10
441.949881354124
 20
-380.5391740361593
 30
0.0
  0
HATCH
  5
8C
330
70
100
AcDbEntity
  8
Capa 1
 62
   250
420
  1907995
440
 33554687
100
AcDbHatch
 10
0.0
 20
0.0
 30
0.0
210
0.0
220
0.0
230
1.0
  2
SOLID
 70
     1
 71
     1
 91
        1
 92
        1
 93
        1
 72
     4
 94
        3
 73
     0
 74
     0
 95
       23
 96
       19
 40
0.0
 40
0.0
 40
0.0
 40
0.0
 40
1.0
 40
1.0
 40
1.0
 40
2.0
 40
2.0
 40
2.0
 40
3.0
 40
3.0
 40
3.0
 40
4.0
 40
4.0
 40
4.0
 40
5.0
 40
5.0
 40
5.0
 40
6.0
 40
6.0
 40
6.0
 40
6.0
 10
441.949881354124
 20
-380.5391740361593
 10
455.9117992028468
 20
-314.3097587622378
 10
476.9774915138859
 20
-247.3032880051988
 10
468.2951781234533
 20
-176.0326922964477
 10
486.2941744354174
 20
-171.6180196365503
 10
502.4134587580147
 20
-173.9596313934926
 10
517.4468301821771
 20
-180.8551422244136
 10
521.8641311803139
 20
-182.8812768622856
 10
526.8349891742809
 20
-190.6085091703853
 10
526.4019191444512
 20
-195.2414798881072
 10
521.638570176965
 20
-246.2009199594541
 10
515.9689188278189
 20
-297.0781060056625
 10
510.103179543209
 20
-347.9266173539709
 10
509.7038848951606
 20
-351.3878729413927
 10
506.4484082411836
 20
-356.1535278954079
 10
503.3482806019001
 20
-357.403704805417
 10
483.5091802006764
 20
-365.4040120497703
 10
463.3417511538327
 20
-372.590161901041
 10
441.949881354124
 20
-380.5391740361593
 97
        0
 97
        1
330
8B
 75
     2
 76
     1
 98
        1
 10
0.0
 20
0.0
450
        0
451
        0
460
0.0
461
0.0
452
        0
462
0.0
453
        0
470

  0
SPLINE
  5
8D
330
70
100
AcDbEntity
  8
Capa 1
100
AcDbSpline
210
0.0
220
0.0
230
1.0
 70
     9
 71
     3
 72
    20
 73
    16
 74
     0
 42
0.0000000001
 43
0.0000000001
 40
0.0
 40
0.0
 40
0.0
 40
0.0
 40
1.0
 40
1.0
 40
1.0
 40
2.0
 40
2.0
 40
2.0
 40
3.0
 40
3.0
 40
3.0
 40
4.0
 40
4.0
 40
4.0
 40
5.0
 40
5.0
 40
5.0
 40
5.0
 10
887.5651591205096
 20
-550.5976523056815
 30
0.0
 10
860.9737988261914
 20
-538.9052503939165
 30
0.0
 10
835.1686531312971
 20
-529.118773375274
 30
0.0
 10
810.8323262716986
 20
-516.4996886124681
 30
0.0
 10
772.3137099489559
 20
-496.5268411857723
 30
0.0
 10
777.7356899496208
 20
-438.822925882915
 30
0.0
 10
803.9098145034003
 20
-413.1474727585682
 30
0.0
 10
806.6252398788856
 20
-410.4837640857095
 30
0.0
 10
814.536574183543
 20
-409.7153797602695
 30
0.0
 10
817.9531436630368
 20
-411.6840652064119
 30
0.0
 10
861.1371980467884
 20
-436.5675821652812
 30
0.0
 10
893.8180623021271
 20
-483.6273076761572
 30
0.0
 10
890.4472658942031
 20
-536.7941450638572
 30
0.0
 10
890.184425562702
 20
-540.9396237404271
 30
0.0
 10
888.7648393915915
 20
-545.0118743795155
 30
0.0
 10
887.5651591205096
 20
-550.5976523056815
 30
0.0
  0
HATCH
  5
8E
330
70
100
AcDbEntity
  8
Capa 1
 62
   250
420
  1907995
440
 33554687
100
AcDbHatch
 10
0.0
 20
0.0
 30
0.0
210
0.0
220
0.0
230
1.0
  2
SOLID
 70
     1
 71
     1
 91
        1
 92
        1
 93
        1
 72
     4
 94
        3
 73
     0
 74
     0
 95
       20
 96
       16
 40
0.0
 40
0.0
 40
0.0
 40
0.0
 40
1.0
 40
1.0
 40
1.0
 40
2.0
 40
2.0
 40
2.0
 40
3.0
 40
3.0
 40
3.0
 40
4.0
 40
4.0
 40
4.0
 40
5.0
 40
5.0
 40
5.0
 40
5.0
 10
887.5651591205096
 20
-550.5976523056815
 10
860.9737988261914
 20
-538.9052503939165
 10
835.1686531312971
 20
-529.118773375274
 10
810.8323262716986
 20
-516.4996886124681
 10
772.3137099489559
 20
-496.5268411857723
 10
777.7356899496208
 20
-438.822925882915
 10
803.9098145034003
 20
-413.1474727585682
 10
806.6252398788856
 20
-410.4837640857095
 10
814.536574183543
 20
-409.7153797602695
 10
817.9531436630368
 20
-411.6840652064119
 10
861.1371980467884
 20
-436.5675821652812
 10
893.8180623021271
 20
-483.6273076761572
 10
890.4472658942031
 20
-536.7941450638572
 10
890.184425562702
 20
-540.9396237404271
 10
888.7648393915915
 20
-545.0118743795155
 10
887.5651591205096
 20
-550.5976523056815
 97
        0
 97
        1
330
8D
 75
     2
 76
     1
 98
        1
 10
0.0
 20
0.0
450
        0
451
        0
460
0.0
461
0.0
452
        0
462
0.0
453
        0
470

  0
ENDSEC
  0
SECTION
  2
OBJECTS
  0
DICTIONARY
  5
C
330
0
100
AcDbDictionary
281
     1
  3
ACAD_COLOR
350
63
  3
ACAD_DETAILVIEWSTYLE
350
6A
  3
ACAD_GROUP
350
D
  3
ACAD_LAYOUT
350
62
  3
ACAD_MATERIAL
350
10
  3
ACAD_MLEADERSTYLE
350
66
  3
ACAD_MLINESTYLE
350
5F
  3
ACAD_PLOTSETTINGS
350
61
  3
ACAD_PLOTSTYLENAME
350
E
  3
ACAD_SCALELIST
350
42
  3
ACAD_SECTIONVIEWSTYLE
350
68
  3
ACAD_TABLESTYLE
350
64
  3
ACAD_VISUALSTYLE
350
29
  3
ACDB_RECOMPOSE_DATA
350
97
  3
AcDbVariableDictionary
350
8F
  0
DICTIONARY
  5
63
102
{ACAD_REACTORS
330
C
102
}
330
C
100
AcDbDictionary
281
     1
  0
DICTIONARY
  5
6A
102
{ACAD_REACTORS
330
C
102
}
330
C
100
AcDbDictionary
281
     1
  3
Imperial24
350
6B
  0
DICTIONARY
  5
D
102
{ACAD_REACTORS
330
C
102
}
330
C
100
AcDbDictionary
281
     1
  0
DICTIONARY
  5
62
102
{ACAD_REACTORS
330
C
102
}
330
C
100
AcDbDictionary
281
     1
  3
Layout1
350
6F
  3
Layout2
350
77
  3
Model
350
73
  0
DICTIONARY
  5
10
102
{ACAD_REACTORS
330
C
102
}
330
C
100
AcDbDictionary
281
     1
  3
ByBlock
350
19
  3
ByLayer
350
11
  3
Global
350
21
  0
DICTIONARY
  5
66
102
{ACAD_REACTORS
330
C
102
}
330
C
100
AcDbDictionary
281
     1
  3
Standard
350
67
  0
DICTIONARY
  5
5F
102
{ACAD_REACTORS
330
C
102
}
330
C
100
AcDbDictionary
281
     1
  3
Standard
350
60
  0
DICTIONARY
  5
61
102
{ACAD_REACTORS
330
C
102
}
330
C
100
AcDbDictionary
281
     1
  0
ACDBDICTIONARYWDFLT
  5
E
102
{ACAD_REACTORS
330
C
102
}
330
C
100
AcDbDictionary
281
     1
  3
Normal
350
F
100
AcDbDictionaryWithDefault
340
F
  0
DICTIONARY
  5
42
102
{ACAD_REACTORS
330
C
102
}
330
C
100
AcDbDictionary
281
     1
  3
A0
350
43
  3
A1
350
44
  3
A2
350
45
  3
A3
350
46
  3
A4
350
47
  3
A5
350
48
  3
A6
350
49
  3
A7
350
4A
  3
A8
350
4B
  3
A9
350
4C
  3
B0
350
4D
  3
B1
350
4E
  3
B2
350
4F
  3
B3
350
50
  3
B4
350
51
  3
B5
350
52
  3
B6
350
53
  0
DICTIONARY
  5
68
102
{ACAD_REACTORS
330
C
102
}
330
C
100
AcDbDictionary
281
     1
  3
Imperial24
350
69
  0
DICTIONARY
  5
64
102
{ACAD_REACTORS
330
C
102
}
330
C
100
AcDbDictionary
281
     1
  3
Standard
350
65
  0
DICTIONARY
  5
29
102
{ACAD_REACTORS
330
C
102
}
330
C
100
AcDbDictionary
281
     1
  3
2dWireframe
350
2F
  3
Basic
350
2E
  3
Brighten
350
35
  3
ColorChange
350
39
  3
Conceptual
350
32
  3
Dim
350
34
  3
EdgeColorOff
350
41
  3
Facepattern
350
38
  3
Flat
350
2A
  3
FlatWithEdges
350
2B
  3
Gouraud
350
2C
  3
GouraudWithEdges
350
2D
  3
Hidden
350
31
  3
JitterOff
350
3F
  3
Linepattern
350
37
  3
OverhangOff
350
40
  3
Realistic
350
33
  3
Shaded
350
3E
  3
Shaded with edges
350
3D
  3
Shades of Gray
350
3A
  3
Sketchy
350
3B
  3
Thicken
350
36
  3
Wireframe
350
30
  3
X-Ray
350
3C
  0
XRECORD
  5
97
102
{ACAD_REACTORS
330
C
102
}
330
C
100
AcDbXrecord
280
     1
 90
        1
330
65
  0
DICTIONARY
  5
8F
102
{ACAD_REACTORS
330
C
102
}
330
C
100
AcDbDictionary
281
     1
  3
CANNOSCALE
350
94
  3
CMLEADERSTYLE
350
91
  3
CTABLESTYLE
350
90
  3
CVIEWDETAILSTYLE
350
92
  3
CVIEWSECTIONSTYLE
350
93
  0
ACDBDETAILVIEWSTYLE
  5
6B
102
{ACAD_REACTORS
330
6A
102
}
330
6A
100
AcDbModelDocViewStyle
 70
     0
  3
Imperial24
290
     1
300
Imperial24
 90
        0
100
AcDbDetailViewStyle
 70
     0
 71
     0
 90
        3
 71
     1
340
55
 62
   256
 40
0.24
340
0
 62
   256
 40
0.24
300

 40
0.36
280
     3
 71
     2
340
5D
 90
       25
 62
   256
 71
     3
340
55
 62
   256
 40
0.24
 90
        1
 40
0.75
 90
        1
300
%<\AcVar ViewType \f "%tc1">% %<\AcVar ViewDetailId>%\PSCALE %<\AcVar ViewScale \f "%sn">%
 71
     4
340
5D
 90
       25
 62
   256
340
5D
 90
       25
 62
   256
280
     0
  0
LAYOUT
  5
6F
102
{ACAD_REACTORS
330
62
102
}
330
62
100
AcDbPlotSettings
  1

  2

  4

  6

 40
0.0
 41
0.0
 42
0.0
 43
0.0
 44
0.0
 45
0.0
 46
0.0
 47
0.0
 48
0.0
 49
0.0
140
0.0
141
0.0
142
1.0
143
1.0
 70
   688
 72
     0
 73
     0
 74
     5
  7

 75
    16
147
1.0
 76
     0
 77
     2
 78
   300
148
0.0
149
0.0
100
AcDbLayout
  1
Layout1
 70
     1
 71
     1
 10
0.0
 20
0.0
 11
12.0
 21
9.0
 12
0.0
 22
0.0
 32
0.0
 14
0.0
 24
0.0
 34
0.0
 15
0.0
 25
0.0
 35
0.0
146
0.0
 13
0.0
 23
0.0
 33
0.0
 16
1.0
 26
0.0
 36
0.0
 17
0.0
 27
1.0
 37
0.0
 76
     0
330
6C
  0
LAYOUT
  5
77
102
{ACAD_REACTORS
330
62
102
}
330
62
100
AcDbPlotSettings
  1

  2

  4

  6

 40
0.0
 41
0.0
 42
0.0
 43
0.0
 44
0.0
 45
0.0
 46
0.0
 47
0.0
 48
0.0
 49
0.0
140
0.0
141
0.0
142
1.0
143
1.0
 70
   688
 72
     0
 73
     0
 74
     5
  7

 75
    16
147
1.0
 76
     0
 77
     2
 78
   300
148
0.0
149
0.0
100
AcDbLayout
  1
Layout2
 70
     1
 71
     2
 10
0.0
 20
0.0
 11
12.0
 21
9.0
 12
0.0
 22
0.0
 32
0.0
 14
0.0
 24
0.0
 34
0.0
 15
0.0
 25
0.0
 35
0.0
146
0.0
 13
0.0
 23
0.0
 33
0.0
 16
1.0
 26
0.0
 36
0.0
 17
0.0
 27
1.0
 37
0.0
 76
     0
330
74
  0
LAYOUT
  5
73
102
{ACAD_REACTORS
330
62
102
}
330
62
100
AcDbPlotSettings
  1

  2

  4

  6

 40
0.0
 41
0.0
 42
0.0
 43
0.0
 44
0.0
 45
0.0
 46
0.0
 47
0.0
 48
0.0
 49
0.0
140
0.0
141
0.0
142
1.0
143
1.0
 70
  1712
 72
     0
 73
     0
 74
     0
  7

 75
     0
147
1.0
 76
     0
 77
     2
 78
   300
148
0.0
149
0.0
100
AcDbLayout
  1
Model
 70
     1
 71
     0
 10
0.0
 20
0.0
 11
12.0
 21
9.0
 12
0.0
 22
0.0
 32
0.0
 14
0.0
 24
0.0
 34
0.0
 15
0.0
 25
0.0
 35
0.0
146
0.0
 13
0.0
 23
0.0
 33
0.0
 16
1.0
 26
0.0
 36
0.0
 17
0.0
 27
1.0
 37
0.0
 76
     0
330
70
  0
MATERIAL
  5
19
102
{ACAD_XDICTIONARY
360
1A
102
}
102
{ACAD_REACTORS
330
10
102
}
330
10
100
AcDbMaterial
  1
ByBlock
 72
     0
 43
0.0208333333333333
 43
0.0
 43
0.0
 43
0.0
 43
0.0
 43
0.0208333333333333
 43
0.0
 43
0.0
 43
0.0
 43
0.0
 43
1.0
 43
0.0
 43
0.0
 43
0.0
 43
0.0
 43
1.0
 77
     0
 47
0.0208333333333333
 47
0.0
 47
0.0
 47
0.0
 47
0.0
 47
0.0208333333333333
 47
0.0
 47
0.0
 47
0.0
 47
0.0
 47
1.0
 47
0.0
 47
0.0
 47
0.0
 47
0.0
 47
1.0
171
     0
 49
0.0208333333333333
 49
0.0
 49
0.0
 49
0.0
 49
0.0
 49
0.0208333333333333
 49
0.0
 49
0.0
 49
0.0
 49
0.0
 49
1.0
 49
0.0
 49
0.0
 49
0.0
 49
0.0
 49
1.0
175
     0
142
0.0208333333333333
142
0.0
142
0.0
142
0.0
142
0.0
142
0.0208333333333333
142
0.0
142
0.0
142
0.0
142
0.0
142
1.0
142
0.0
142
0.0
142
0.0
142
0.0
142
1.0
179
     0
144
0.0208333333333333
144
0.0
144
0.0
144
0.0
144
0.0
144
0.0208333333333333
144
0.0
144
0.0
144
0.0
144
0.0
144
1.0
144
0.0
144
0.0
144
0.0
144
0.0
144
1.0
147
0.0208333333333333
147
0.0
147
0.0
147
0.0
147
0.0
147
0.0208333333333333
147
0.0
147
0.0
147
0.0
147
0.0
147
1.0
147
0.0
147
0.0
147
0.0
147
0.0
147
1.0
  0
MATERIAL
  5
11
102
{ACAD_XDICTIONARY
360
12
102
}
102
{ACAD_REACTORS
330
10
102
}
330
10
100
AcDbMaterial
  1
ByLayer
 72
     0
 43
0.0208333333333333
 43
0.0
 43
0.0
 43
0.0
 43
0.0
 43
0.0208333333333333
 43
0.0
 43
0.0
 43
0.0
 43
0.0
 43
1.0
 43
0.0
 43
0.0
 43
0.0
 43
0.0
 43
1.0
 77
     0
 47
0.0208333333333333
 47
0.0
 47
0.0
 47
0.0
 47
0.0
 47
0.0208333333333333
 47
0.0
 47
0.0
 47
0.0
 47
0.0
 47
1.0
 47
0.0
 47
0.0
 47
0.0
 47
0.0
 47
1.0
171
     0
 49
0.0208333333333333
 49
0.0
 49
0.0
 49
0.0
 49
0.0
 49
0.0208333333333333
 49
0.0
 49
0.0
 49
0.0
 49
0.0
 49
1.0
 49
0.0
 49
0.0
 49
0.0
 49
0.0
 49
1.0
175
     0
142
0.0208333333333333
142
0.0
142
0.0
142
0.0
142
0.0
142
0.0208333333333333
142
0.0
142
0.0
142
0.0
142
0.0
142
1.0
142
0.0
142
0.0
142
0.0
142
0.0
142
1.0
179
     0
144
0.0208333333333333
144
0.0
144
0.0
144
0.0
144
0.0
144
0.0208333333333333
144
0.0
144
0.0
144
0.0
144
0.0
144
1.0
144
0.0
144
0.0
144
0.0
144
0.0
144
1.0
147
0.0208333333333333
147
0.0
147
0.0
147
0.0
147
0.0
147
0.0208333333333333
147
0.0
147
0.0
147
0.0
147
0.0
147
1.0
147
0.0
147
0.0
147
0.0
147
0.0
147
1.0
  0
MATERIAL
  5
21
102
{ACAD_XDICTIONARY
360
22
102
}
102
{ACAD_REACTORS
330
10
102
}
330
10
100
AcDbMaterial
  1
Global
 72
     0
 43
0.0208333333333333
 43
0.0
 43
0.0
 43
0.0
 43
0.0
 43
0.0208333333333333
 43
0.0
 43
0.0
 43
0.0
 43
0.0
 43
1.0
 43
0.0
 43
0.0
 43
0.0
 43
0.0
 43
1.0
 77
     0
 47
0.0208333333333333
 47
0.0
 47
0.0
 47
0.0
 47
0.0
 47
0.0208333333333333
 47
0.0
 47
0.0
 47
0.0
 47
0.0
 47
1.0
 47
0.0
 47
0.0
 47
0.0
 47
0.0
 47
1.0
171
     0
 49
0.0208333333333333
 49
0.0
 49
0.0
 49
0.0
 49
0.0
 49
0.0208333333333333
 49
0.0
 49
0.0
 49
0.0
 49
0.0
 49
1.0
 49
0.0
 49
0.0
 49
0.0
 49
0.0
 49
1.0
175
     0
142
0.0208333333333333
142
0.0
142
0.0
142
0.0
142
0.0
142
0.0208333333333333
142
0.0
142
0.0
142
0.0
142
0.0
142
1.0
142
0.0
142
0.0
142
0.0
142
0.0
142
1.0
179
     0
144
0.0208333333333333
144
0.0
144
0.0
144
0.0
144
0.0
144
0.0208333333333333
144
0.0
144
0.0
144
0.0
144
0.0
144
1.0
144
0.0
144
0.0
144
0.0
144
0.0
144
1.0
147
0.0208333333333333
147
0.0
147
0.0
147
0.0
147
0.0
147
0.0208333333333333
147
0.0
147
0.0
147
0.0
147
0.0
147
1.0
147
0.0
147
0.0
147
0.0
147
0.0
147
1.0
  0
MLEADERSTYLE
  5
67
102
{ACAD_REACTORS
330
66
102
}
330
66
100
AcDbMLeaderStyle
179
     2
170
     2
171
     1
172
     0
 90
        2
 40
0.0
 41
0.0
173
     1
 91
-1056964608
340
5B
 92
       -2
290
     1
 42
0.09
291
     1
 43
0.36
  3
Standard
 44
0.18
300

342
55
174
     1
178
     6
175
     1
176
     0
 93
-1056964608
 45
0.18
292
     0
297
     0
 46
0.18
 94
-1056964608
 47
1.0
 49
1.0
140
1.0
293
     1
141
0.0
294
     1
177
     0
142
1.0
295
     1
296
     0
143
0.125
271
     0
272
     9
273
     9
298
     1
  0
MLINESTYLE
  5
60
102
{ACAD_REACTORS
330
5F
102
}
330
5F
100
AcDbMlineStyle
  2
STANDARD
 70
     0
  3

 62
   256
 51
90.0
 52
90.0
 71
     2
 49
0.5
 62
   256
  6
BYLAYER
 49
-0.5
 62
   256
  6
BYLAYER
  0
ACDBPLACEHOLDER
  5
F
102
{ACAD_REACTORS
330
E
102
}
330
E
  0
SCALE
  5
43
102
{ACAD_REACTORS
330
42
102
}
330
42
100
AcDbScale
 70
     0
300
1:1
140
1.0
141
1.0
290
     1
  0
SCALE
  5
44
102
{ACAD_REACTORS
330
42
102
}
330
42
100
AcDbScale
 70
     0
300
1/128" = 1'-0"
140
0.0078125
141
12.0
290
     0
  0
SCALE
  5
45
102
{ACAD_REACTORS
330
42
102
}
330
42
100
AcDbScale
 70
     0
300
1/64" = 1'-0"
140
0.015625
141
12.0
290
     0
  0
SCALE
  5
46
102
{ACAD_REACTORS
330
42
102
}
330
42
100
AcDbScale
 70
     0
300
1/32" = 1'-0"
140
0.03125
141
12.0
290
     0
  0
SCALE
  5
47
102
{ACAD_REACTORS
330
42
102
}
330
42
100
AcDbScale
 70
     0
300
1/16" = 1'-0"
140
0.0625
141
12.0
290
     0
  0
SCALE
  5
48
102
{ACAD_REACTORS
330
42
102
}
330
42
100
AcDbScale
 70
     0
300
3/32" = 1'-0"
140
0.09375
141
12.0
290
     0
  0
SCALE
  5
49
102
{ACAD_REACTORS
330
42
102
}
330
42
100
AcDbScale
 70
     0
300
1/8" = 1'-0"
140
0.125
141
12.0
290
     0
  0
SCALE
  5
4A
102
{ACAD_REACTORS
330
42
102
}
330
42
100
AcDbScale
 70
     0
300
3/16" = 1'-0"
140
0.1875
141
12.0
290
     0
  0
SCALE
  5
4B
102
{ACAD_REACTORS
330
42
102
}
330
42
100
AcDbScale
 70
     0
300
1/4" = 1'-0"
140
0.25
141
12.0
290
     0
  0
SCALE
  5
4C
102
{ACAD_REACTORS
330
42
102
}
330
42
100
AcDbScale
 70
     0
300
3/8" = 1'-0"
140
0.375
141
12.0
290
     0
  0
SCALE
  5
4D
102
{ACAD_REACTORS
330
42
102
}
330
42
100
AcDbScale
 70
     0
300
1/2" = 1'-0"
140
0.5
141
12.0
290
     0
  0
SCALE
  5
4E
102
{ACAD_REACTORS
330
42
102
}
330
42
100
AcDbScale
 70
     0
300
3/4" = 1'-0"
140
0.75
141
12.0
290
     0
  0
SCALE
  5
4F
102
{ACAD_REACTORS
330
42
102
}
330
42
100
AcDbScale
 70
     0
300
1" = 1'-0"
140
1.0
141
12.0
290
     0
  0
SCALE
  5
50
102
{ACAD_REACTORS
330
42
102
}
330
42
100
AcDbScale
 70
     0
300
1-1/2" = 1'-0"
140
1.5
141
12.0
290
     0
  0
SCALE
  5
51
102
{ACAD_REACTORS
330
42
102
}
330
42
100
AcDbScale
 70
     0
300
3" = 1'-0"
140
3.0
141
12.0
290
     0
  0
SCALE
  5
52
102
{ACAD_REACTORS
330
42
102
}
330
42
100
AcDbScale
 70
     0
300
6" = 1'-0"
140
6.0
141
12.0
290
     0
  0
SCALE
  5
53
102
{ACAD_REACTORS
330
42
102
}
330
42
100
AcDbScale
 70
     0
300
1'-0" = 1'-0"
140
12.0
141
12.0
290
     0
  0
ACDBSECTIONVIEWSTYLE
  5
69
102
{ACAD_REACTORS
330
68
102
}
330
68
100
AcDbModelDocViewStyle
 70
     0
  3
Imperial24
290
     1
300
Imperial24
 90
        0
100
AcDbSectionViewStyle
 70
     0
 71
     0
 90
       78
 71
     1
340
55
 62
   256
 40
0.24
340
0
340
0
 62
   256
 40
0.24
300
I, O, Q, S, X, Z
 40
0.48
 90
        3
 40
0.18
 90
        1
 71
     2
340
5D
 90
       25
 62
   256
340
5D
 90
       50
 62
   256
 40
0.24
 40
0.0
 40
0.24
 71
     3
340
55
 62
   256
 40
0.24
 90
        1
 40
0.75
 90
        1
300
%<\AcVar ViewType \f "%tc1">% %<\AcVar ViewSectionStartId>%-%<\AcVar ViewSectionEndId>%\PSCALE %<\AcVar ViewScale \f "%sn">%
 71
     4
 62
   256
 62
   257
300
ANSI31
 40
1.0
 90
        0
290
     0
290
     0
 90
        6
 40
0.0
 40
1.570796326794896
 40
0.2617993877991494
 40
1.308996938995747
 40
-0.2617993877991494
 40
1.832595714594046
  0
TABLESTYLE
  5
65
102
{ACAD_XDICTIONARY
360
95
102
}
102
{ACAD_REACTORS
330
64
102
}
330
64
100
AcDbTableStyle
280
     0
  3
Standard
 70
     0
 71
     0
 40
0.06
 41
0.06
280
     0
281
     0
  7
Standard
140
0.18
170
     2
 62
     0
 63
     7
283
     0
 90
      512
 91
        0
  1

274
    -2
284
     1
 64
     0
275
    -2
285
     1
 65
     0
276
    -2
286
     1
 66
     0
277
    -2
287
     1
 67
     0
278
    -2
288
     1
 68
     0
279
    -2
289
     1
 69
     0
  7
Standard
140
0.25
170
     5
 62
     0
 63
     7
283
     0
 90
      512
 91
        0
  1

274
    -2
284
     1
 64
     0
275
    -2
285
     1
 65
     0
276
    -2
286
     1
 66
     0
277
    -2
287
     1
 67
     0
278
    -2
288
     1
 68
     0
279
    -2
289
     1
 69
     0
  7
Standard
140
0.18
170
     5
 62
     0
 63
     7
283
     0
 90
      512
 91
        0
  1

274
    -2
284
     1
 64
     0
275
    -2
285
     1
 65
     0
276
    -2
286
     1
 66
     0
277
    -2
287
     1
 67
     0
278
    -2
288
     1
 68
     0
279
    -2
289
     1
 69
     0
  0
VISUALSTYLE
  5
2F
102
{ACAD_REACTORS
330
29
102
}
330
29
100
AcDbVisualStyle
  2
2dWireframe
 70
     4
177
     3
291
     0
 70
    58
 90
        0
176
     1
 90
        2
176
     1
 90
        0
176
     1
 90
        0
176
     1
 40
0.6
176
     1
 40
30.0
176
     1
 62
     7
420
 16777215
176
     1
 90
        1
176
     1
 90
        4
176
     1
 62
     7
176
     1
 62
   257
176
     1
 90
        1
176
     1
 90
        1
176
     1
 40
1.0
176
     1
 90
        0
176
     1
 62
   257
176
     1
 40
1.0
176
     1
 90
        1
176
     1
 90
        6
176
     1
 90
        2
176
     1
 62
     7
176
     1
 90
        5
176
     1
 90
        0
176
     1
 90
        0
176
     1
290
     0
176
     1
 90
        1
176
     1
 40
0.0
176
     1
 90
        0
176
     1
290
     1
176
     1
290
     1
176
     1
290
     0
176
     1
290
     0
176
     1
290
     0
176
     1
290
     0
176
     1
290
     0
176
     1
290
     0
176
     1
290
     0
176
     1
 90
       50
176
     1
 40
0.0
176
     1
 40
1.0
176
     1
 90
        0
176
     1
 62
    18
420
        0
176
     1
 90
       50
176
     1
 90
        3
176
     1
 62
     5
420
      255
176
     1
290
     0
176
     1
 90
       50
176
     1
 90
       50
176
     1
 90
       50
176
     1
290
     0
176
     1
 90
       50
176
     1
 62
   256
176
     0
 40
1.0
176
     0
 90
        2
176
     1
  1
strokes_ogs.tif
176
     1
290
     0
176
     1
 40
1.0
176
     1
 40
1.0
176
     1
  0
VISUALSTYLE
  5
2E
102
{ACAD_REACTORS
330
29
102
}
330
29
100
AcDbVisualStyle
  2
Basic
 70
     7
177
     3
291
     1
 70
    58
 90
        1
176
     1
 90
        0
176
     1
 90
        1
176
     1
 90
        0
176
     1
 40
0.6
176
     1
 40
30.0
176
     1
 62
     7
420
 16777215
176
     1
 90
        0
176
     1
 90
        4
176
     1
 62
     7
176
     1
 62
   257
176
     1
 90
        1
176
     1
 90
        1
176
     1
 40
1.0
176
     1
 90
        8
176
     1
 62
     7
176
     1
 40
1.0
176
     1
 90
        1
176
     1
 90
        6
176
     1
 90
        2
176
     1
 62
     7
176
     1
 90
        5
176
     1
 90
        0
176
     1
 90
        0
176
     1
290
     0
176
     1
 90
        1
176
     1
 40
0.0
176
     1
 90
        0
176
     1
290
     0
176
     1
290
     1
176
     1
290
     1
176
     1
290
     0
176
     1
290
     0
176
     1
290
     0
176
     1
290
     0
176
     1
290
     0
176
     1
290
     0
176
     1
 90
       50
176
     1
 40
0.0
176
     1
 40
1.0
176
     1
 90
        0
176
     1
 62
    18
420
        0
176
     1
 90
       50
176
     1
 90
        3
176
     1
 62
     5
420
      255
176
     1
290
     0
176
     1
 90
       50
176
     1
 90
       50
176
     1
 90
       50
176
     1
290
     0
176
     1
 90
       50
176
     1
 62
   256
176
     0
 40
1.0
176
     0
 90
        2
176
     1
  1
strokes_ogs.tif
176
     1
290
     0
176
     1
 40
1.0
176
     1
 40
1.0
176
     1
  0
VISUALSTYLE
  5
35
102
{ACAD_REACTORS
330
29
102
}
330
29
100
AcDbVisualStyle
  2
Brighten
 70
    12
177
     3
291
     1
 70
    58
 90
        2
176
     1
 90
        2
176
     1
 90
        0
176
     1
 90
        0
176
     1
 40
0.6
176
     1
 40
30.0
176
     1
 62
     7
420
 16777215
176
     1
 90
        1
176
     1
 90
        4
176
     1
 62
     7
176
     1
 62
   257
176
     1
 90
        1
176
     1
 90
        1
176
     1
 40
1.0
176
     1
 90
        8
176
     1
 62
     7
176
     1
 40
1.0
176
     1
 90
        1
176
     1
 90
        6
176
     1
 90
        2
176
     1
 62
     7
176
     1
 90
        5
176
     1
 90
        0
176
     1
 90
        0
176
     1
290
     0
176
     1
 90
        1
176
     1
 40
50.0
176
     1
 90
        0
176
     1
290
     0
176
     1
290
     1
176
     1
290
     1
176
     1
290
     0
176
     1
290
     0
176
     1
290
     0
176
     1
290
     0
176
     1
290
     0
176
     1
290
     0
176
     1
 90
       50
176
     1
 40
0.0
176
     1
 40
1.0
176
     1
 90
        0
176
     1
 62
    18
420
        0
176
     1
 90
       50
176
     1
 90
        3
176
     1
 62
     5
420
      255
176
     1
290
     0
176
     1
 90
       50
176
     1
 90
       50
176
     1
 90
       50
176
     1
290
     0
176
     1
 90
       50
176
     1
 62
   256
176
     0
 40
1.0
176
     0
 90
        2
176
     1
  1
strokes_ogs.tif
176
     1
290
     0
176
     1
 40
1.0
176
     1
 40
1.0
176
     1
  0
VISUALSTYLE
  5
39
102
{ACAD_REACTORS
330
29
102
}
330
29
100
AcDbVisualStyle
  2
ColorChange
 70
    16
177
     3
291
     1
 70
    58
 90
        2
176
     1
 90
        2
176
     1
 90
        3
176
     1
 90
        0
176
     1
 40
0.6
176
     1
 40
30.0
176
     1
 62
     8
420
  8421504
176
     1
 90
        1
176
     1
 90
        4
176
     1
 62
     7
176
     1
 62
   257
176
     1
 90
        1
176
     1
 90
        1
176
     1
 40
1.0
176
     1
 90
        8
176
     1
 62
     8
420
  8421504
176
     1
 40
1.0
176
     1
 90
        1
176
     1
 90
        6
176
     1
 90
        2
176
     1
 62
     7
176
     1
 90
        5
176
     1
 90
        0
176
     1
 90
        0
176
     1
290
     0
176
     1
 90
        1
176
     1
 40
0.0
176
     1
 90
        0
176
     1
290
     0
176
     1
290
     1
176
     1
290
     1
176
     1
290
     0
176
     1
290
     0
176
     1
290
     0
176
     1
290
     0
176
     1
290
     0
176
     1
290
     0
176
     1
 90
       50
176
     1
 40
0.0
176
     1
 40
1.0
176
     1
 90
        0
176
     1
 62
    18
420
        0
176
     1
 90
       50
176
     1
 90
        3
176
     1
 62
     5
420
      255
176
     1
290
     0
176
     1
 90
       50
176
     1
 90
       50
176
     1
 90
       50
176
     1
290
     0
176
     1
 90
       50
176
     1
 62
   256
176
     0
 40
1.0
176
     0
 90
        2
176
     1
  1
strokes_ogs.tif
176
     1
290
     0
176
     1
 40
1.0
176
     1
 40
1.0
176
     1
  0
VISUALSTYLE
  5
32
102
{ACAD_REACTORS
330
29
102
}
330
29
100
AcDbVisualStyle
  2
Conceptual
 70
     9
177
     3
291
     0
 70
    58
 90
        3
176
     1
 90
        2
176
     1
 90
        0
176
     1
 90
        0
176
     1
 40
0.6
176
     1
 40
30.0
176
     1
 62
     7
420
 16777215
176
     1
 90
        2
176
     1
 90
        2
176
     1
 62
     7
176
     1
 62
   257
176
     1
 90
        1
176
     1
 90
        1
176
     1
 40
179.0
176
     1
 90
        8
176
     1
 62
     7
176
     1
 40
1.0
176
     1
 90
        1
176
     1
 90
        6
176
     1
 90
        2
176
     1
 62
     7
176
     1
 90
        3
176
     1
 90
        0
176
     1
 90
        0
176
     1
290
     0
176
     1
 90
        1
176
     1
 40
0.0
176
     1
 90
        0
176
     1
290
     0
176
     1
290
     1
176
     1
290
     1
176
     1
290
     0
176
     1
290
     0
176
     1
290
     0
176
     1
290
     0
176
     1
290
     0
176
     1
290
     0
176
     1
 90
       50
176
     1
 40
0.0
176
     1
 40
1.0
176
     1
 90
        0
176
     1
 62
    18
420
        0
176
     1
 90
       50
176
     1
 90
        3
176
     1
 62
     5
420
      255
176
     1
290
     0
176
     1
 90
       50
176
     1
 90
       50
176
     1
 90
       50
176
     1
290
     0
176
     1
 90
       50
176
     1
 62
   256
176
     0
 40
1.0
176
     0
 90
        2
176
     1
  1
strokes_ogs.tif
176
     1
290
     0
176
     1
 40
1.0
176
     1
 40
1.0
176
     1
  0
VISUALSTYLE
  5
34
102
{ACAD_REACTORS
330
29
102
}
330
29
100
AcDbVisualStyle
  2
Dim
 70
    11
177
     3
291
     1
 70
    58
 90
        2
176
     1
 90
        2
176
     1
 90
        0
176
     1
 90
        0
176
     1
 40
0.6
176
     1
 40
30.0
176
     1
 62
     7
420
 16777215
176
     1
 90
        1
176
     1
 90
        4
176
     1
 62
     7
176
     1
 62
   257
176
     1
 90
        1
176
     1
 90
        1
176
     1
 40
1.0
176
     1
 90
        8
176
     1
 62
     7
176
     1
 40
1.0
176
     1
 90
        1
176
     1
 90
        6
176
     1
 90
        2
176
     1
 62
     7
176
     1
 90
        5
176
     1
 90
        0
176
     1
 90
        0
176
     1
290
     0
176
     1
 90
        1
176
     1
 40
-50.0
176
     1
 90
        0
176
     1
290
     0
176
     1
290
     1
176
     1
290
     1
176
     1
290
     0
176
     1
290
     0
176
     1
290
     0
176
     1
290
     0
176
     1
290
     0
176
     1
290
     0
176
     1
 90
       50
176
     1
 40
0.0
176
     1
 40
1.0
176
     1
 90
        0
176
     1
 62
    18
420
        0
176
     1
 90
       50
176
     1
 90
        3
176
     1
 62
     5
420
      255
176
     1
290
     0
176
     1
 90
       50
176
     1
 90
       50
176
     1
 90
       50
176
     1
290
     0
176
     1
 90
       50
176
     1
 62
   256
176
     0
 40
1.0
176
     0
 90
        2
176
     1
  1
strokes_ogs.tif
176
     1
290
     0
176
     1
 40
1.0
176
     1
 40
1.0
176
     1
  0
VISUALSTYLE
  5
41
102
{ACAD_REACTORS
330
29
102
}
330
29
100
AcDbVisualStyle
  2
EdgeColorOff
 70
    22
177
     3
291
     1
 70
    58
 90
        2
176
     0
 90
        2
176
     0
 90
        0
176
     0
 90
        0
176
     0
 40
0.6
176
     0
 40
30.0
176
     0
 62
     7
420
 16777215
176
     0
 90
        1
176
     0
 90
        4
176
     0
 62
     7
176
     0
 62
   257
176
     0
 90
        1
176
     0
 90
        1
176
     0
 40
1.0
176
     0
 90
        8
176
     2
 62
     7
176
     0
 40
1.0
176
     0
 90
        1
176
     0
 90
        6
176
     0
 90
        2
176
     0
 62
     7
176
     0
 90
        5
176
     0
 90
        0
176
     0
 90
        0
176
     0
290
     0
176
     0
 90
        1
176
     0
 40
0.0
176
     0
 90
        0
176
     0
290
     0
176
     0
290
     1
176
     0
290
     1
176
     0
290
     0
176
     0
290
     0
176
     0
290
     0
176
     0
290
     0
176
     0
290
     0
176
     0
290
     0
176
     0
 90
       50
176
     0
 40
0.0
176
     0
 40
1.0
176
     0
 90
        0
176
     0
 62
    18
420
        0
176
     0
 90
       50
176
     0
 90
        3
176
     0
 62
     5
420
      255
176
     0
290
     0
176
     0
 90
       50
176
     0
 90
       50
176
     0
 90
       50
176
     0
290
     0
176
     0
 90
       50
176
     0
 62
   256
176
     0
 40
1.0
176
     0
 90
        2
176
     0
  1
strokes_ogs.tif
176
     0
290
     0
176
     0
 40
1.0
176
     0
 40
1.0
176
     0
  0
VISUALSTYLE
  5
38
102
{ACAD_REACTORS
330
29
102
}
330
29
100
AcDbVisualStyle
  2
Facepattern
 70
    15
177
     3
291
     1
 70
    58
 90
        2
176
     1
 90
        2
176
     1
 90
        0
176
     1
 90
        0
176
     1
 40
0.6
176
     1
 40
30.0
176
     1
 62
     7
420
 16777215
176
     1
 90
        1
176
     1
 90
        4
176
     1
 62
     7
176
     1
 62
   257
176
     1
 90
        1
176
     1
 90
        1
176
     1
 40
1.0
176
     1
 90
        8
176
     1
 62
     7
176
     1
 40
1.0
176
     1
 90
        1
176
     1
 90
        6
176
     1
 90
        2
176
     1
 62
     7
176
     1
 90
        5
176
     1
 90
        0
176
     1
 90
        0
176
     1
290
     0
176
     1
 90
        1
176
     1
 40
0.0
176
     1
 90
        0
176
     1
290
     0
176
     1
290
     1
176
     1
290
     1
176
     1
290
     0
176
     1
290
     0
176
     1
290
     0
176
     1
290
     0
176
     1
290
     0
176
     1
290
     0
176
     1
 90
       50
176
     1
 40
0.0
176
     1
 40
1.0
176
     1
 90
        0
176
     1
 62
    18
420
        0
176
     1
 90
       50
176
     1
 90
        3
176
     1
 62
     5
420
      255
176
     1
290
     0
176
     1
 90
       50
176
     1
 90
       50
176
     1
 90
       50
176
     1
290
     0
176
     1
 90
       50
176
     1
 62
   256
176
     0
 40
1.0
176
     0
 90
        2
176
     1
  1
strokes_ogs.tif
176
     1
290
     0
176
     1
 40
1.0
176
     1
 40
1.0
176
     1
  0
VISUALSTYLE
  5
2A
102
{ACAD_REACTORS
330
29
102
}
330
29
100
AcDbVisualStyle
  2
Flat
 70
     0
177
     3
291
     1
 70
    58
 90
        2
176
     1
 90
        1
176
     1
 90
        1
176
     1
 90
        2
176
     1
 40
0.6
176
     1
 40
30.0
176
     1
 62
     7
420
 16777215
176
     1
 90
        0
176
     1
 90
        0
176
     1
 62
     7
176
     1
 62
   257
176
     1
 90
        1
176
     1
 90
        1
176
     1
 40
1.0
176
     1
 90
        8
176
     1
 62
     7
176
     1
 40
1.0
176
     1
 90
        1
176
     1
 90
        6
176
     1
 90
        2
176
     1
 62
     7
176
     1
 90
        5
176
     1
 90
        0
176
     1
 90
        0
176
     1
290
     0
176
     1
 90
       13
176
     1
 40
0.0
176
     1
 90
        0
176
     1
290
     0
176
     1
290
     1
176
     1
290
     1
176
     1
290
     0
176
     1
290
     0
176
     1
290
     0
176
     1
290
     0
176
     1
290
     0
176
     1
290
     0
176
     1
 90
       50
176
     1
 40
0.0
176
     1
 40
1.0
176
     1
 90
        0
176
     1
 62
    18
420
        0
176
     1
 90
       50
176
     1
 90
        3
176
     1
 62
     5
420
      255
176
     1
290
     0
176
     1
 90
       50
176
     1
 90
       50
176
     1
 90
       50
176
     1
290
     0
176
     1
 90
       50
176
     1
 62
   256
176
     0
 40
1.0
176
     0
 90
        2
176
     1
  1
strokes_ogs.tif
176
     1
290
     0
176
     1
 40
1.0
176
     1
 40
1.0
176
     1
  0
VISUALSTYLE
  5
2B
102
{ACAD_REACTORS
330
29
102
}
330
29
100
AcDbVisualStyle
  2
FlatWithEdges
 70
     1
177
     3
291
     1
 70
    58
 90
        2
176
     1
 90
        1
176
     1
 90
        1
176
     1
 90
        2
176
     1
 40
0.6
176
     1
 40
30.0
176
     1
 62
     7
420
 16777215
176
     1
 90
        1
176
     1
 90
        0
176
     1
 62
     7
176
     1
 62
   257
176
     1
 90
        1
176
     1
 90
        1
176
     1
 40
1.0
176
     1
 90
        0
176
     1
 62
   257
176
     1
 40
1.0
176
     1
 90
        1
176
     1
 90
        6
176
     1
 90
        2
176
     1
 62
     7
176
     1
 90
        5
176
     1
 90
        0
176
     1
 90
        0
176
     1
290
     0
176
     1
 90
       13
176
     1
 40
0.0
176
     1
 90
        0
176
     1
290
     0
176
     1
290
     1
176
     1
290
     1
176
     1
290
     0
176
     1
290
     0
176
     1
290
     0
176
     1
290
     0
176
     1
290
     0
176
     1
290
     0
176
     1
 90
       50
176
     1
 40
0.0
176
     1
 40
1.0
176
     1
 90
        0
176
     1
 62
    18
420
        0
176
     1
 90
       50
176
     1
 90
        3
176
     1
 62
     5
420
      255
176
     1
290
     0
176
     1
 90
       50
176
     1
 90
       50
176
     1
 90
       50
176
     1
290
     0
176
     1
 90
       50
176
     1
 62
   256
176
     0
 40
1.0
176
     0
 90
        2
176
     1
  1
strokes_ogs.tif
176
     1
290
     0
176
     1
 40
1.0
176
     1
 40
1.0
176
     1
  0
VISUALSTYLE
  5
2C
102
{ACAD_REACTORS
330
29
102
}
330
29
100
AcDbVisualStyle
  2
Gouraud
 70
     2
177
     3
291
     1
 70
    58
 90
        2
176
     1
 90
        2
176
     1
 90
        1
176
     1
 90
        2
176
     1
 40
0.6
176
     1
 40
30.0
176
     1
 62
     7
420
 16777215
176
     1
 90
        0
176
     1
 90
        0
176
     1
 62
     7
176
     1
 62
   257
176
     1
 90
        1
176
     1
 90
        1
176
     1
 40
1.0
176
     1
 90
        0
176
     1
 62
     7
176
     1
 40
1.0
176
     1
 90
        1
176
     1
 90
        6
176
     1
 90
        2
176
     1
 62
     7
176
     1
 90
        5
176
     1
 90
        0
176
     1
 90
        0
176
     1
290
     0
176
     1
 90
       13
176
     1
 40
0.0
176
     1
 90
        0
176
     1
290
     0
176
     1
290
     1
176
     1
290
     1
176
     1
290
     0
176
     1
290
     0
176
     1
290
     0
176
     1
290
     0
176
     1
290
     0
176
     1
290
     0
176
     1
 90
       50
176
     1
 40
0.0
176
     1
 40
1.0
176
     1
 90
        0
176
     1
 62
    18
420
        0
176
     1
 90
       50
176
     1
 90
        3
176
     1
 62
     5
420
      255
176
     1
290
     0
176
     1
 90
       50
176
     1
 90
       50
176
     1
 90
       50
176
     1
290
     0
176
     1
 90
       50
176
     1
 62
   256
176
     0
 40
1.0
176
     0
 90
        2
176
     1
  1
strokes_ogs.tif
176
     1
290
     0
176
     1
 40
1.0
176
     1
 40
1.0
176
     1
  0
VISUALSTYLE
  5
2D
102
{ACAD_REACTORS
330
29
102
}
330
29
100
AcDbVisualStyle
  2
GouraudWithEdges
 70
     3
177
     3
291
     1
 70
    58
 90
        2
176
     1
 90
        2
176
     1
 90
        1
176
     1
 90
        2
176
     1
 40
0.6
176
     1
 40
30.0
176
     1
 62
     7
420
 16777215
176
     1
 90
        1
176
     1
 90
        0
176
     1
 62
     7
176
     1
 62
   257
176
     1
 90
        1
176
     1
 90
        1
176
     1
 40
1.0
176
     1
 90
        0
176
     1
 62
   257
176
     1
 40
1.0
176
     1
 90
        1
176
     1
 90
        6
176
     1
 90
        2
176
     1
 62
     7
176
     1
 90
        5
176
     1
 90
        0
176
     1
 90
        0
176
     1
290
     0
176
     1
 90
       13
176
     1
 40
0.0
176
     1
 90
        0
176
     1
290
     0
176
     1
290
     1
176
     1
290
     1
176
     1
290
     0
176
     1
290
     0
176
     1
290
     0
176
     1
290
     0
176
     1
290
     0
176
     1
290
     0
176
     1
 90
       50
176
     1
 40
0.0
176
     1
 40
1.0
176
     1
 90
        0
176
     1
 62
    18
420
        0
176
     1
 90
       50
176
     1
 90
        3
176
     1
 62
     5
420
      255
176
     1
290
     0
176
     1
 90
       50
176
     1
 90
       50
176
     1
 90
       50
176
     1
290
     0
176
     1
 90
       50
176
     1
 62
   256
176
     0
 40
1.0
176
     0
 90
        2
176
     1
  1
strokes_ogs.tif
176
     1
290
     0
176
     1
 40
1.0
176
     1
 40
1.0
176
     1
  0
VISUALSTYLE
  5
31
102
{ACAD_REACTORS
330
29
102
}
330
29
100
AcDbVisualStyle
  2
Hidden
 70
     6
177
     3
291
     0
 70
    58
 90
        1
176
     1
 90
        2
176
     1
 90
        2
176
     1
 90
        0
176
     1
 40
0.6
176
     1
 40
30.0
176
     1
 62
     7
420
 16777215
176
     1
 90
        2
176
     1
 90
        2
176
     1
 62
     7
176
     1
 62
   257
176
     1
 90
        2
176
     1
 90
        1
176
     1
 40
40.0
176
     1
 90
        0
176
     1
 62
   257
176
     1
 40
1.0
176
     1
 90
        1
176
     1
 90
        6
176
     1
 90
        2
176
     1
 62
     7
176
     1
 90
        3
176
     1
 90
        0
176
     1
 90
        0
176
     1
290
     0
176
     1
 90
        1
176
     1
 40
0.0
176
     1
 90
        0
176
     1
290
     0
176
     1
290
     1
176
     1
290
     1
176
     1
290
     0
176
     1
290
     0
176
     1
290
     0
176
     1
290
     0
176
     1
290
     0
176
     1
290
     0
176
     1
 90
       50
176
     1
 40
0.0
176
     1
 40
1.0
176
     1
 90
        0
176
     1
 62
    18
420
        0
176
     1
 90
       50
176
     1
 90
        3
176
     1
 62
     5
420
      255
176
     1
290
     0
176
     1
 90
       50
176
     1
 90
       50
176
     1
 90
       50
176
     1
290
     0
176
     1
 90
       50
176
     1
 62
   256
176
     0
 40
1.0
176
     0
 90
        2
176
     1
  1
strokes_ogs.tif
176
     1
290
     0
176
     1
 40
1.0
176
     1
 40
1.0
176
     1
  0
VISUALSTYLE
  5
3F
102
{ACAD_REACTORS
330
29
102
}
330
29
100
AcDbVisualStyle
  2
JitterOff
 70
    20
177
     3
291
     1
 70
    58
 90
        2
176
     0
 90
        2
176
     0
 90
        0
176
     0
 90
        0
176
     0
 40
0.6
176
     0
 40
30.0
176
     0
 62
     7
420
 16777215
176
     0
 90
        1
176
     0
 90
        4
176
     0
 62
     7
176
     0
 62
   257
176
     0
 90
        1
176
     0
 90
        1
176
     0
 40
1.0
176
     0
 90
       10
176
     2
 62
     7
176
     0
 40
1.0
176
     0
 90
        1
176
     0
 90
        6
176
     0
 90
        2
176
     0
 62
     7
176
     0
 90
        5
176
     0
 90
        0
176
     0
 90
        0
176
     0
290
     0
176
     0
 90
        1
176
     0
 40
0.0
176
     0
 90
        0
176
     0
290
     0
176
     0
290
     1
176
     0
290
     1
176
     0
290
     0
176
     0
290
     0
176
     0
290
     0
176
     0
290
     0
176
     0
290
     0
176
     0
290
     0
176
     0
 90
       50
176
     0
 40
0.0
176
     0
 40
1.0
176
     0
 90
        0
176
     0
 62
    18
420
        0
176
     0
 90
       50
176
     0
 90
        3
176
     0
 62
     5
420
      255
176
     0
290
     0
176
     0
 90
       50
176
     0
 90
       50
176
     0
 90
       50
176
     0
290
     0
176
     0
 90
       50
176
     0
 62
   256
176
     0
 40
1.0
176
     0
 90
        2
176
     0
  1
strokes_ogs.tif
176
     0
290
     0
176
     0
 40
1.0
176
     0
 40
1.0
176
     0
  0
VISUALSTYLE
  5
37
102
{ACAD_REACTORS
330
29
102
}
330
29
100
AcDbVisualStyle
  2
Linepattern
 70
    14
177
     3
291
     1
 70
    58
 90
        2
176
     1
 90
        2
176
     1
 90
        0
176
     1
 90
        0
176
     1
 40
0.6
176
     1
 40
30.0
176
     1
 62
     7
420
 16777215
176
     1
 90
        1
176
     1
 90
        4
176
     1
 62
     7
176
     1
 62
   257
176
     1
 90
        7
176
     1
 90
        7
176
     1
 40
1.0
176
     1
 90
        8
176
     1
 62
     7
176
     1
 40
1.0
176
     1
 90
        1
176
     1
 90
        6
176
     1
 90
        2
176
     1
 62
     7
176
     1
 90
        5
176
     1
 90
        0
176
     1
 90
        0
176
     1
290
     0
176
     1
 90
        1
176
     1
 40
0.0
176
     1
 90
        0
176
     1
290
     0
176
     1
290
     1
176
     1
290
     1
176
     1
290
     0
176
     1
290
     0
176
     1
290
     0
176
     1
290
     0
176
     1
290
     0
176
     1
290
     0
176
     1
 90
       50
176
     1
 40
0.0
176
     1
 40
1.0
176
     1
 90
        0
176
     1
 62
    18
420
        0
176
     1
 90
       50
176
     1
 90
        3
176
     1
 62
     5
420
      255
176
     1
290
     0
176
     1
 90
       50
176
     1
 90
       50
176
     1
 90
       50
176
     1
290
     0
176
     1
 90
       50
176
     1
 62
   256
176
     0
 40
1.0
176
     0
 90
        2
176
     1
  1
strokes_ogs.tif
176
     1
290
     0
176
     1
 40
1.0
176
     1
 40
1.0
176
     1
  0
VISUALSTYLE
  5
40
102
{ACAD_REACTORS
330
29
102
}
330
29
100
AcDbVisualStyle
  2
OverhangOff
 70
    21
177
     3
291
     1
 70
    58
 90
        2
176
     0
 90
        2
176
     0
 90
        0
176
     0
 90
        0
176
     0
 40
0.6
176
     0
 40
30.0
176
     0
 62
     7
420
 16777215
176
     0
 90
        1
176
     0
 90
        4
176
     0
 62
     7
176
     0
 62
   257
176
     0
 90
        1
176
     0
 90
        1
176
     0
 40
1.0
176
     0
 90
        9
176
     2
 62
     7
176
     0
 40
1.0
176
     0
 90
        1
176
     0
 90
        6
176
     0
 90
        2
176
     0
 62
     7
176
     0
 90
        5
176
     0
 90
        0
176
     0
 90
        0
176
     0
290
     0
176
     0
 90
        1
176
     0
 40
0.0
176
     0
 90
        0
176
     0
290
     0
176
     0
290
     1
176
     0
290
     1
176
     0
290
     0
176
     0
290
     0
176
     0
290
     0
176
     0
290
     0
176
     0
290
     0
176
     0
290
     0
176
     0
 90
       50
176
     0
 40
0.0
176
     0
 40
1.0
176
     0
 90
        0
176
     0
 62
    18
420
        0
176
     0
 90
       50
176
     0
 90
        3
176
     0
 62
     5
420
      255
176
     0
290
     0
176
     0
 90
       50
176
     0
 90
       50
176
     0
 90
       50
176
     0
290
     0
176
     0
 90
       50
176
     0
 62
   256
176
     0
 40
1.0
176
     0
 90
        2
176
     0
  1
strokes_ogs.tif
176
     0
290
     0
176
     0
 40
1.0
176
     0
 40
1.0
176
     0
  0
VISUALSTYLE
  5
33
102
{ACAD_REACTORS
330
29
102
}
330
29
100
AcDbVisualStyle
  2
Realistic
 70
     8
177
     3
291
     0
 70
    58
 90
        2
176
     1
 90
        3
176
     1
 90
        0
176
     1
 90
        2
176
     1
 40
0.6
176
     1
 40
30.0
176
     1
 62
     7
420
 16777215
176
     1
 90
        0
176
     1
 90
        0
176
     1
 62
     7
176
     1
 62
   257
176
     1
 90
        1
176
     1
 90
        1
176
     1
 40
1.0
176
     1
 90
        8
176
     1
 62
   257
176
     1
 40
1.0
176
     1
 90
        1
176
     1
 90
        6
176
     1
 90
        2
176
     1
 62
     7
176
     1
 90
        3
176
     1
 90
        0
176
     1
 90
        0
176
     1
290
     0
176
     1
 90
       13
176
     1
 40
0.0
176
     1
 90
        0
176
     1
290
     0
176
     1
290
     1
176
     1
290
     1
176
     1
290
     0
176
     1
290
     0
176
     1
290
     0
176
     1
290
     0
176
     1
290
     0
176
     1
290
     0
176
     1
 90
       50
176
     1
 40
0.0
176
     1
 40
1.0
176
     1
 90
        0
176
     1
 62
    18
420
        0
176
     1
 90
       50
176
     1
 90
        3
176
     1
 62
     5
420
      255
176
     1
290
     0
176
     1
 90
       50
176
     1
 90
       50
176
     1
 90
       50
176
     1
290
     0
176
     1
 90
       50
176
     1
 62
   256
176
     0
 40
1.0
176
     0
 90
        2
176
     1
  1
strokes_ogs.tif
176
     1
290
     0
176
     1
 40
1.0
176
     1
 40
1.0
176
     1
  0
VISUALSTYLE
  5
3E
102
{ACAD_REACTORS
330
29
102
}
330
29
100
AcDbVisualStyle
  2
Shaded
 70
    27
177
     3
291
     0
 70
    58
 90
        2
176
     1
 90
        2
176
     1
 90
        1
176
     1
 90
        2
176
     1
 40
0.6
176
     1
 40
30.0
176
     1
 62
     7
420
 16777215
176
     1
 90
        0
176
     1
 90
        4
176
     1
 62
     7
176
     1
 62
   257
176
     1
 90
        1
176
     1
 90
        1
176
     1
 40
1.0
176
     1
 90
        8
176
     1
 62
   257
176
     1
 40
1.0
176
     1
 90
        1
176
     1
 90
        6
176
     1
 90
        2
176
     1
 62
     8
420
  7895160
176
     1
 90
        3
176
     1
 90
        0
176
     1
 90
        0
176
     1
290
     0
176
     1
 90
        5
176
     1
 40
0.0
176
     1
 90
        0
176
     1
290
     0
176
     1
290
     1
176
     1
290
     1
176
     1
290
     0
176
     1
290
     0
176
     1
290
     0
176
     1
290
     0
176
     1
290
     0
176
     1
290
     0
176
     1
 90
       50
176
     1
 40
0.0
176
     1
 40
1.0
176
     1
 90
        0
176
     1
 62
    18
420
        0
176
     1
 90
       50
176
     1
 90
        3
176
     1
 62
     5
420
      255
176
     1
290
     0
176
     1
 90
       50
176
     1
 90
       50
176
     1
 90
       50
176
     1
290
     0
176
     1
 90
       50
176
     1
 62
   256
176
     0
 40
1.0
176
     0
 90
        2
176
     1
  1
strokes_ogs.tif
176
     1
290
     0
176
     1
 40
1.0
176
     1
 40
1.0
176
     1
  0
VISUALSTYLE
  5
3D
102
{ACAD_REACTORS
330
29
102
}
330
29
100
AcDbVisualStyle
  2
Shaded with edges
 70
    26
177
     3
291
     0
 70
    58
 90
        2
176
     1
 90
        2
176
     1
 90
        1
176
     1
 90
        2
176
     1
 40
0.6
176
     1
 40
30.0
176
     1
 62
     7
420
 16777215
176
     1
 90
        1
176
     1
 90
        2
176
     1
 62
     7
176
     1
 62
   257
176
     1
 90
        2
176
     1
 90
        1
176
     1
 40
1.0
176
     1
 90
        8
176
     1
 62
   257
176
     1
 40
1.0
176
     1
 90
        1
176
     1
 90
        6
176
     1
 90
        2
176
     1
 62
     7
176
     1
 90
        3
176
     1
 90
        0
176
     1
 90
        0
176
     1
290
     0
176
     1
 90
        5
176
     1
 40
0.0
176
     1
 90
        0
176
     1
290
     0
176
     1
290
     1
176
     1
290
     1
176
     1
290
     0
176
     1
290
     0
176
     1
290
     0
176
     1
290
     0
176
     1
290
     0
176
     1
290
     0
176
     1
 90
       50
176
     1
 40
0.0
176
     1
 40
1.0
176
     1
 90
        0
176
     1
 62
    18
420
        0
176
     1
 90
       50
176
     1
 90
        3
176
     1
 62
     5
420
      255
176
     1
290
     0
176
     1
 90
       50
176
     1
 90
       50
176
     1
 90
       50
176
     1
290
     0
176
     1
 90
       50
176
     1
 62
   256
176
     0
 40
1.0
176
     0
 90
        2
176
     1
  1
strokes_ogs.tif
176
     1
290
     0
176
     1
 40
1.0
176
     1
 40
1.0
176
     1
  0
VISUALSTYLE
  5
3A
102
{ACAD_REACTORS
330
29
102
}
330
29
100
AcDbVisualStyle
  2
Shades of Gray
 70
    23
177
     3
291
     0
 70
    58
 90
        2
176
     1
 90
        2
176
     1
 90
        3
176
     1
 90
        0
176
     1
 40
0.6
176
     1
 40
30.0
176
     1
 62
     7
420
 16777215
176
     1
 90
        2
176
     1
 90
        2
176
     1
 62
     7
176
     1
 62
     7
176
     1
 90
        1
176
     1
 90
        1
176
     1
 40
40.0
176
     1
 90
        8
176
     1
 62
     7
176
     1
 40
1.0
176
     1
 90
        1
176
     1
 90
        6
176
     1
 90
        2
176
     1
 62
     7
176
     1
 90
        3
176
     1
 90
        0
176
     1
 90
        0
176
     1
290
     0
176
     1
 90
        1
176
     1
 40
0.0
176
     1
 90
        0
176
     1
290
     0
176
     1
290
     1
176
     1
290
     1
176
     1
290
     0
176
     1
290
     0
176
     1
290
     0
176
     1
290
     0
176
     1
290
     0
176
     1
290
     0
176
     1
 90
       50
176
     1
 40
0.0
176
     1
 40
1.0
176
     1
 90
        0
176
     1
 62
    18
420
        0
176
     1
 90
       50
176
     1
 90
        3
176
     1
 62
     5
420
      255
176
     1
290
     0
176
     1
 90
       50
176
     1
 90
       50
176
     1
 90
       50
176
     1
290
     0
176
     1
 90
       50
176
     1
 62
   256
176
     0
 40
1.0
176
     0
 90
        2
176
     1
  1
strokes_ogs.tif
176
     1
290
     0
176
     1
 40
1.0
176
     1
 40
1.0
176
     1
  0
VISUALSTYLE
  5
3B
102
{ACAD_REACTORS
330
29
102
}
330
29
100
AcDbVisualStyle
  2
Sketchy
 70
    24
177
     3
291
     0
 70
    58
 90
        1
176
     1
 90
        2
176
     1
 90
        2
176
     1
 90
        0
176
     1
 40
0.6
176
     1
 40
30.0
176
     1
 62
     7
420
 16777215
176
     1
 90
        2
176
     1
 90
        2
176
     1
 62
     7
176
     1
 62
     7
176
     1
 90
        1
176
     1
 90
        1
176
     1
 40
40.0
176
     1
 90
       11
176
     1
 62
     7
176
     1
 40
1.0
176
     1
 90
        1
176
     1
 90
        6
176
     1
 90
        2
176
     1
 62
     7
176
     1
 90
        6
176
     1
 90
        0
176
     1
 90
        0
176
     1
290
     0
176
     1
 90
        1
176
     1
 40
0.0
176
     1
 90
        0
176
     1
290
     0
176
     1
290
     1
176
     1
290
     1
176
     1
290
     0
176
     1
290
     0
176
     1
290
     0
176
     1
290
     0
176
     1
290
     0
176
     1
290
     0
176
     1
 90
       50
176
     1
 40
0.0
176
     1
 40
1.0
176
     1
 90
        0
176
     1
 62
    18
420
        0
176
     1
 90
       50
176
     1
 90
        3
176
     1
 62
     5
420
      255
176
     1
290
     0
176
     1
 90
       50
176
     1
 90
       50
176
     1
 90
       50
176
     1
290
     0
176
     1
 90
       50
176
     1
 62
   256
176
     0
 40
1.0
176
     0
 90
        2
176
     1
  1
strokes_ogs.tif
176
     1
290
     0
176
     1
 40
1.0
176
     1
 40
1.0
176
     1
  0
VISUALSTYLE
  5
36
102
{ACAD_REACTORS
330
29
102
}
330
29
100
AcDbVisualStyle
  2
Thicken
 70
    13
177
     3
291
     1
 70
    58
 90
        2
176
     1
 90
        2
176
     1
 90
        0
176
     1
 90
        0
176
     1
 40
0.6
176
     1
 40
30.0
176
     1
 62
     7
420
 16777215
176
     1
 90
        1
176
     1
 90
        4
176
     1
 62
     7
176
     1
 62
   257
176
     1
 90
        1
176
     1
 90
        1
176
     1
 40
1.0
176
     1
 90
       12
176
     1
 62
     7
176
     1
 40
1.0
176
     1
 90
        1
176
     1
 90
        6
176
     1
 90
        2
176
     1
 62
     7
176
     1
 90
        5
176
     1
 90
        0
176
     1
 90
        0
176
     1
290
     0
176
     1
 90
        1
176
     1
 40
0.0
176
     1
 90
        0
176
     1
290
     0
176
     1
290
     1
176
     1
290
     1
176
     1
290
     0
176
     1
290
     0
176
     1
290
     0
176
     1
290
     0
176
     1
290
     0
176
     1
290
     0
176
     1
 90
       50
176
     1
 40
0.0
176
     1
 40
1.0
176
     1
 90
        0
176
     1
 62
    18
420
        0
176
     1
 90
       50
176
     1
 90
        3
176
     1
 62
     5
420
      255
176
     1
290
     0
176
     1
 90
       50
176
     1
 90
       50
176
     1
 90
       50
176
     1
290
     0
176
     1
 90
       50
176
     1
 62
   256
176
     0
 40
1.0
176
     0
 90
        2
176
     1
  1
strokes_ogs.tif
176
     1
290
     0
176
     1
 40
1.0
176
     1
 40
1.0
176
     1
  0
VISUALSTYLE
  5
30
102
{ACAD_REACTORS
330
29
102
}
330
29
100
AcDbVisualStyle
  2
Wireframe
 70
     5
177
     3
291
     0
 70
    58
 90
        0
176
     1
 90
        2
176
     1
 90
        0
176
     1
 90
        0
176
     1
 40
0.6
176
     1
 40
30.0
176
     1
 62
     7
420
 16777215
176
     1
 90
        1
176
     1
 90
        4
176
     1
 62
     7
176
     1
 62
   257
176
     1
 90
        1
176
     1
 90
        1
176
     1
 40
1.0
176
     1
 90
        0
176
     1
 62
   257
176
     1
 40
1.0
176
     1
 90
        1
176
     1
 90
        6
176
     1
 90
        2
176
     1
 62
     7
176
     1
 90
        3
176
     1
 90
        0
176
     1
 90
        0
176
     1
290
     0
176
     1
 90
        1
176
     1
 40
0.0
176
     1
 90
        0
176
     1
290
     0
176
     1
290
     1
176
     1
290
     1
176
     1
290
     0
176
     1
290
     0
176
     1
290
     0
176
     1
290
     0
176
     1
290
     0
176
     1
290
     0
176
     1
 90
       50
176
     1
 40
0.0
176
     1
 40
1.0
176
     1
 90
        0
176
     1
 62
    18
420
        0
176
     1
 90
       50
176
     1
 90
        3
176
     1
 62
     5
420
      255
176
     1
290
     0
176
     1
 90
       50
176
     1
 90
       50
176
     1
 90
       50
176
     1
290
     0
176
     1
 90
       50
176
     1
 62
   256
176
     0
 40
1.0
176
     0
 90
        2
176
     1
  1
strokes_ogs.tif
176
     1
290
     0
176
     1
 40
1.0
176
     1
 40
1.0
176
     1
  0
VISUALSTYLE
  5
3C
102
{ACAD_REACTORS
330
29
102
}
330
29
100
AcDbVisualStyle
  2
X-Ray
 70
    25
177
     3
291
     0
 70
    58
 90
        2
176
     1
 90
        2
176
     1
 90
        1
176
     1
 90
        1
176
     1
 40
0.5
176
     1
 40
30.0
176
     1
 62
     7
420
 16777215
176
     1
 90
        1
176
     1
 90
        0
176
     1
 62
     7
176
     1
 62
   257
176
     1
 90
        1
176
     1
 90
        1
176
     1
 40
1.0
176
     1
 90
        8
176
     1
 62
     7
176
     1
 40
1.0
176
     1
 90
        1
176
     1
 90
        6
176
     1
 90
        2
176
     1
 62
     7
176
     1
 90
        3
176
     1
 90
        0
176
     1
 90
        0
176
     1
290
     0
176
     1
 90
       13
176
     1
 40
0.0
176
     1
 90
        0
176
     1
290
     0
176
     1
290
     1
176
     1
290
     1
176
     1
290
     0
176
     1
290
     0
176
     1
290
     0
176
     1
290
     0
176
     1
290
     0
176
     1
290
     0
176
     1
 90
       50
176
     1
 40
0.0
176
     1
 40
1.0
176
     1
 90
        0
176
     1
 62
    18
420
        0
176
     1
 90
       50
176
     1
 90
        3
176
     1
 62
     5
420
      255
176
     1
290
     0
176
     1
 90
       50
176
     1
 90
       50
176
     1
 90
       50
176
     1
290
     0
176
     1
 90
       50
176
     1
 62
   256
176
     0
 40
1.0
176
     0
 90
        2
176
     1
  1
strokes_ogs.tif
176
     1
290
     0
176
     1
 40
1.0
176
     1
 40
1.0
176
     1
  0
DICTIONARYVAR
  5
94
102
{ACAD_REACTORS
330
8F
102
}
330
8F
100
DictionaryVariables
280
     0
  1
1:1
  0
DICTIONARYVAR
  5
91
102
{ACAD_REACTORS
330
8F
102
}
330
8F
100
DictionaryVariables
280
     0
  1
STANDARD
  0
DICTIONARYVAR
  5
90
102
{ACAD_REACTORS
330
8F
102
}
330
8F
100
DictionaryVariables
280
     0
  1
STANDARD
  0
DICTIONARYVAR
  5
92
102
{ACAD_REACTORS
330
8F
102
}
330
8F
100
DictionaryVariables
280
     0
  1
Imperial24
  0
DICTIONARYVAR
  5
93
102
{ACAD_REACTORS
330
8F
102
}
330
8F
100
DictionaryVariables
280
     0
  1
Imperial24
  0
DICTIONARY
  5
1A
330
19
100
AcDbDictionary
280
     1
281
     1
  3
BUMPTILE
360
1C
  3
DIFFUSETILE
360
1B
  3
OPACITYTILE
360
1F
  3
REFLECTIONTILE
360
1E
  3
REFRACTIONTILE
360
20
  3
SPECULARTILE
360
1D
  0
DICTIONARY
  5
12
330
11
100
AcDbDictionary
280
     1
281
     1
  3
BUMPTILE
360
14
  3
DIFFUSETILE
360
13
  3
OPACITYTILE
360
17
  3
REFLECTIONTILE
360
16
  3
REFRACTIONTILE
360
18
  3
SPECULARTILE
360
15
  0
DICTIONARY
  5
22
330
21
100
AcDbDictionary
280
     1
281
     1
  3
BUMPTILE
360
24
  3
DIFFUSETILE
360
23
  3
OPACITYTILE
360
27
  3
REFLECTIONTILE
360
26
  3
REFRACTIONTILE
360
28
  3
SPECULARTILE
360
25
  0
DICTIONARY
  5
95
330
65
100
AcDbDictionary
280
     1
281
     1
  3
ACAD_ROUNDTRIP_2008_TABLESTYLE_CELLSTYLEMAP
360
96
  0
XRECORD
  5
1C
102
{ACAD_REACTORS
330
1A
102
}
330
1A
100
AcDbXrecord
280
     1
270
     1
271
     1
  0
XRECORD
  5
1B
102
{ACAD_REACTORS
330
1A
102
}
330
1A
100
AcDbXrecord
280
     1
270
     1
271
     1
  0
XRECORD
  5
1F
102
{ACAD_REACTORS
330
1A
102
}
330
1A
100
AcDbXrecord
280
     1
270
     1
271
     1
  0
XRECORD
  5
1E
102
{ACAD_REACTORS
330
1A
102
}
330
1A
100
AcDbXrecord
280
     1
270
     1
271
     1
  0
XRECORD
  5
20
102
{ACAD_REACTORS
330
1A
102
}
330
1A
100
AcDbXrecord
280
     1
270
     1
271
     1
  0
XRECORD
  5
1D
102
{ACAD_REACTORS
330
1A
102
}
330
1A
100
AcDbXrecord
280
     1
270
     1
271
     1
  0
XRECORD
  5
14
102
{ACAD_REACTORS
330
12
102
}
330
12
100
AcDbXrecord
280
     1
270
     1
271
     1
  0
XRECORD
  5
13
102
{ACAD_REACTORS
330
12
102
}
330
12
100
AcDbXrecord
280
     1
270
     1
271
     1
  0
XRECORD
  5
17
102
{ACAD_REACTORS
330
12
102
}
330
12
100
AcDbXrecord
280
     1
270
     1
271
     1
  0
XRECORD
  5
16
102
{ACAD_REACTORS
330
12
102
}
330
12
100
AcDbXrecord
280
     1
270
     1
271
     1
  0
XRECORD
  5
18
102
{ACAD_REACTORS
330
12
102
}
330
12
100
AcDbXrecord
280
     1
270
     1
271
     1
  0
XRECORD
  5
15
102
{ACAD_REACTORS
330
12
102
}
330
12
100
AcDbXrecord
280
     1
270
     1
271
     1
  0
XRECORD
  5
24
102
{ACAD_REACTORS
330
22
102
}
330
22
100
AcDbXrecord
280
     1
270
     1
271
     1
  0
XRECORD
  5
23
102
{ACAD_REACTORS
330
22
102
}
330
22
100
AcDbXrecord
280
     1
270
     1
271
     1
  0
XRECORD
  5
27
102
{ACAD_REACTORS
330
22
102
}
330
22
100
AcDbXrecord
280
     1
270
     1
271
     1
  0
XRECORD
  5
26
102
{ACAD_REACTORS
330
22
102
}
330
22
100
AcDbXrecord
280
     1
270
     1
271
     1
  0
XRECORD
  5
28
102
{ACAD_REACTORS
330
22
102
}
330
22
100
AcDbXrecord
280
     1
270
     1
271
     1
  0
XRECORD
  5
25
102
{ACAD_REACTORS
330
22
102
}
330
22
100
AcDbXrecord
280
     1
270
     1
271
     1
  0
CELLSTYLEMAP
  5
96
102
{ACAD_REACTORS
330
95
102
}
330
95
100
AcDbCellStyleMap
 90
        3
300
CELLSTYLE
  1
TABLEFORMAT_BEGIN
 90
        5
170
     1
 91
        0
 92
    32768
 62
   257
 93
        1
300
CONTENTFORMAT
  1
CONTENTFORMAT_BEGIN
 90
        0
 91
        0
 92
      512
 93
        0
300

 40
0.0
140
1.0
 94
        5
 62
     0
340
55
144
0.25
309
CONTENTFORMAT_END
171
     0
 94
        0
309
TABLEFORMAT_END
  1
CELLSTYLE_BEGIN
 90
        1
 91
        1
300
_TITLE
309
CELLSTYLE_END
300
CELLSTYLE
  1
TABLEFORMAT_BEGIN
 90
        5
170
     1
 91
        0
 92
        0
 62
   257
 93
        1
300
CONTENTFORMAT
  1
CONTENTFORMAT_BEGIN
 90
        0
 91
        0
 92
      512
 93
        0
300

 40
0.0
140
1.0
 94
        5
 62
     0
340
55
144
0.18
309
CONTENTFORMAT_END
171
     0
 94
        0
309
TABLEFORMAT_END
  1
CELLSTYLE_BEGIN
 90
        2
 91
        1
300
_HEADER
309
CELLSTYLE_END
300
CELLSTYLE
  1
TABLEFORMAT_BEGIN
 90
        5
170
     1
 91
        0
 92
        0
 62
   257
 93
        1
300
CONTENTFORMAT
  1
CONTENTFORMAT_BEGIN
 90
        0
 91
        0
 92
      512
 93
        0
300

 40
0.0
140
1.0
 94
        2
 62
     0
340
55
144
0.18
309
CONTENTFORMAT_END
171
     0
 94
        0
309
TABLEFORMAT_END
  1
CELLSTYLE_BEGIN
 90
        3
 91
        2
300
_DATA
309
CELLSTYLE_END
  0
ENDSEC
  0
EOF
