<?xml version="1.0" encoding="UTF-8"?>
<svg id="Capa_1" data-name="Capa 1" xmlns="http://www.w3.org/2000/svg" viewBox="0 0 229.11 140.42">
  <defs>
    <style>
      .cls-1 {
        fill: #1d1d1b;
        stroke-width: 0px;
      }
    </style>
  </defs>
  <path class="cls-1" d="m94.53,136.07c-8.66,3.64-17.92,3.43-27.16,1.68-18.7-3.53-35.92-10.25-51.3-20.57C.34,106.62-4.04,93.07,3.81,76.06c10.63-23.03,27.17-41.87,50.65-55.25,4.48-2.55,8.85-5.33,12.93-8.39C86.53-1.92,112.83-4.23,133.88,7.53c6.88,3.84,13.97,6.41,21.63,8.14,9.66,2.19,19.24,4.79,29.01,6.48,5.48.95,11.27.47,16.92.53,7.57.07,11.06,3.04,10.44,9.97-.39,4.31-1.69,8.59-3.07,12.76-.97,2.93-3.61,4.42-7.11,4.39-4.63-.04-9.25,0-13.8,0,2.55,4.35,7.21,6.3,12.81,5.1,3.83-.82,7.61-1.84,11.43-2.72,5.6-1.29,8.69,0,10.42,4.27,2.44,6,1.01,11.16-3.92,13.21-4.12,1.71-8.4,3.11-13.58,5,1.71.77,2.56,1.26,3.48,1.55,5.57,1.78,11.13,3.58,16.74,5.24,2.75.81,4.13,2.3,3.78,4.97-.44,3.35-.75,6.71-1.37,10.03-.58,3.08-2.63,4.36-6.15,3.65-4.4-.89-8.83-1.6-13.25-2.39-.13.26-.27.52-.4.79,2.31,1.37,4.6,2.78,6.94,4.12,4.06,2.33,4.85,4.39,3.11,8.5-.31.73-.66,1.46-1.07,2.15-4.53,7.79-7.36,8.59-15.16,3.6-4.69-3-8.76-3.47-13.88-.58-3.29,1.85-7.57,2.23-11.97,3.43-.44,3.99-.84,8.67-1.51,13.32-.64,4.45-2.71,6.2-7.56,6.94-.37.05-.73.12-1.09.16-11.94,1.33-15.75-1.52-16.66-12.46-.23-2.8-.45-5.6-.74-9.28-1.44,1.38-2.39,2.28-3.33,3.18-9.51,9.19-21.09,14.47-34.95,12.51-5.85-.83-10.33-.16-15.48,2.01Z"/>
</svg>