<?xml version="1.0" encoding="UTF-8"?>
<svg id="Capa_1" data-name="Capa 1" xmlns="http://www.w3.org/2000/svg" viewBox="0 0 694.72 1017.37">
  <defs>
    <style>
      .cls-1 {
        fill: none;
        stroke: #1d1d1b;
        stroke-miterlimit: 10;
      }

      .cls-2 {
        fill: #fff;
        stroke-width: 0px;
      }
    </style>
  </defs>
  <path class="cls-2" d="m0,0v1017.37h694.72V0H0Zm564.43,396.94c39.53,37.42,62.22,82.94,53.79,137.47-3.55,23.01-.67,40.62,8.65,60.87,15.67,34.05,14.74,70.47,7.24,106.81-15.16,73.56-44.06,141.29-88.48,201.77-45.42,61.87-103.65,79.09-176.81,48.23-99.06-41.8-180.04-106.85-237.59-199.19-10.97-17.61-22.92-34.81-36.06-50.85-61.71-75.32-71.66-178.74-21.09-261.52,16.52-27.05,27.55-54.95,35-85.06,9.41-38.01,20.6-75.67,27.86-114.08,4.08-21.56,2.04-44.33,2.28-66.56.31-29.77,13.06-43.51,42.86-41.05,18.52,1.53,36.96,6.65,54.86,12.07,12.6,3.81,19,14.18,18.87,27.98-.17,18.19-.04,36.38-.04,54.26,18.7-10.02,27.08-28.36,21.94-50.4-3.52-15.07-7.93-29.92-11.69-44.94-5.53-22.03,0-34.17,18.38-40.99,25.79-9.58,48.01-3.97,56.8,15.4,7.36,16.2,13.36,33.02,21.5,53.41,3.32-6.74,5.41-10.06,6.67-13.67,7.65-21.9,15.39-43.78,22.53-65.84,3.5-10.83,9.88-16.23,21.39-14.85,14.39,1.73,28.86,2.95,43.12,5.39,13.25,2.28,18.77,10.34,15.71,24.17-3.82,17.29-6.89,34.74-10.28,52.12,1.12.53,2.25,1.05,3.38,1.58,5.91-9.09,11.94-18.1,17.7-27.28,10.03-15.98,18.9-19.06,36.56-12.25,3.15,1.22,6.26,2.6,9.24,4.19,33.49,17.82,36.96,28.94,15.5,59.64-12.89,18.44-14.91,34.45-2.51,54.58,7.96,12.94,9.6,29.76,14.74,47.09,17.18,1.74,37.3,3.31,57.28,5.95,19.14,2.53,26.68,10.64,29.83,29.74.23,1.44.53,2.86.7,4.3,5.73,46.95-6.54,61.95-53.59,65.51-12.04.91-24.09,1.76-39.92,2.92,5.93,5.68,9.79,9.4,13.68,13.08Z"/>
  <path class="cls-1" d="m626.87,595.28c15.67,34.05,14.74,70.47,7.24,106.81-15.16,73.56-44.06,141.29-88.48,201.77-45.42,61.87-103.65,79.09-176.81,48.23-99.06-41.8-180.04-106.85-237.59-199.19-10.97-17.61-22.92-34.81-36.06-50.85-61.71-75.32-71.66-178.74-21.09-261.52,16.52-27.05,27.55-54.95,35-85.06,9.41-38.01,20.6-75.67,27.86-114.08,4.08-21.56,2.04-44.33,2.28-66.56.31-29.77,13.06-43.51,42.86-41.05,18.52,1.53,36.96,6.65,54.86,12.07,12.6,3.81,19,14.18,18.87,27.98-.17,18.19-.04,36.38-.04,54.26,18.7-10.02,27.08-28.36,21.94-50.4-3.52-15.07-7.93-29.92-11.69-44.94-5.53-22.03,0-34.17,18.38-40.99,25.79-9.58,48.01-3.97,56.8,15.4,7.36,16.2,13.36,33.02,21.5,53.41,3.32-6.74,5.41-10.06,6.67-13.67,7.65-21.9,15.39-43.78,22.53-65.84,3.5-10.83,9.88-16.23,21.39-14.85,14.39,1.73,28.86,2.95,43.12,5.39,13.25,2.28,18.77,10.34,15.71,24.17-3.82,17.29-6.89,34.74-10.28,52.12,1.12.53,2.25,1.05,3.38,1.58,5.91-9.09,11.94-18.1,17.7-27.28,10.03-15.98,18.9-19.06,36.56-12.25,3.15,1.22,6.26,2.6,9.24,4.19,33.49,17.82,36.96,28.94,15.5,59.64-12.89,18.44-14.91,34.45-2.51,54.58,7.96,12.94,9.6,29.76,14.74,47.09,17.18,1.74,37.3,3.31,57.28,5.95,19.14,2.53,26.68,10.64,29.83,29.74.23,1.44.53,2.86.7,4.3,5.73,46.95-6.54,61.95-53.59,65.51-12.04.91-24.09,1.76-39.92,2.92,5.93,5.68,9.79,9.4,13.68,13.08,39.53,37.42,62.22,82.94,53.79,137.47-3.55,23.01-.67,40.62,8.65,60.87Z"/>
</svg>