<?xml version="1.0" encoding="UTF-8"?>
<svg id="Capa_1" data-name="Capa 1" xmlns="http://www.w3.org/2000/svg" viewBox="0 0 694.72 1017.37">
  <defs>
    <style>
      .cls-1 {
        fill: #1d1d1b;
        stroke-width: 0px;
      }
    </style>
  </defs>
  <path class="cls-1" d="m626.87,595.28c37.19,105.24-23.62,221.63-81.23,308.58-146.77,176.56-367.11-68.83-450.46-201.8-131.42-153,25.04-298.2,41.76-460.67,9.77-37.54-18.07-114.42,45.14-107.61,25.8,5.7,73.79,3.74,73.73,40.05-.17,18.19-.04,36.38-.04,54.26,18.7-10.02,27.08-28.36,21.94-50.4-4.37-27.61-31.42-74.11,6.69-85.93,56.06-20.98,61.7,29.57,78.3,68.81,18.21-22.43,18.82-97.32,50.58-94.36,93.53,3.98,46.44,26.2,51.93,83.27,14.53-18.89,24.27-54.39,54.27-39.53,34.82,15.05,51.29,30.42,24.74,63.83-12.89,18.44-14.91,34.45-2.51,54.58,21.01,59.24,5.34,45.24,72.03,53.04,20.85,2.11,28.21,14.04,30.52,34.04,14.02,67.72-41.6,65.42-93.51,68.43,96.18,80.42,50.75,119.41,76.12,211.42Z"/>
</svg>