<?xml version="1.0" encoding="UTF-8"?>
<svg id="Capa_1" data-name="Capa 1" xmlns="http://www.w3.org/2000/svg" viewBox="0 0 236.6 139.51">
  <defs>
    <style>
      .cls-1 {
        fill: #1d1d1b;
        stroke-width: 0px;
      }
    </style>
  </defs>
  <path class="cls-1" d="m97.62,135.19c-8.94,3.62-18.5,3.41-28.05,1.67-19.31-3.5-37.1-10.18-52.98-20.44C.35,105.93-4.17,92.47,3.93,75.57c10.98-22.89,28.06-41.59,52.3-54.89,4.62-2.53,9.14-5.3,13.35-8.33C89.36-1.91,116.52-4.21,138.25,7.48c7.1,3.82,14.43,6.36,22.33,8.09,9.98,2.17,19.87,4.76,29.95,6.44,5.66.94,11.64.47,17.48.53,7.82.07,11.42,3.02,10.78,9.9-.4,4.28-1.75,8.54-3.17,12.67-1,2.91-3.72,4.39-7.35,4.36-4.78-.04-9.55,0-14.25,0,2.63,4.32,7.45,6.26,13.23,5.07,3.96-.81,7.86-1.83,11.8-2.7,5.78-1.28,8.97,0,10.76,4.25,2.52,5.96,1.04,11.09-4.04,13.12-4.25,1.7-8.67,3.09-14.02,4.97,1.77.77,2.64,1.25,3.59,1.54,5.75,1.77,11.5,3.56,17.29,5.21,2.84.81,4.26,2.28,3.9,4.94-.45,3.32-.77,6.67-1.42,9.96-.6,3.06-2.72,4.34-6.35,3.63-4.54-.88-9.12-1.59-13.69-2.37-.14.26-.28.52-.41.78,2.39,1.37,4.75,2.76,7.16,4.09,4.2,2.32,5,4.37,3.22,8.45-.32.73-.68,1.45-1.1,2.13-4.68,7.74-7.6,8.54-15.66,3.58-4.84-2.98-9.05-3.44-14.33-.58-3.4,1.84-7.81,2.22-12.36,3.41-.46,3.97-.87,8.62-1.56,13.23-.66,4.42-2.79,6.16-7.81,6.89-.38.05-.75.12-1.13.16-12.33,1.32-16.27-1.51-17.2-12.38-.24-2.78-.46-5.57-.77-9.22-1.49,1.37-2.47,2.26-3.43,3.16-9.83,9.13-21.78,14.37-36.1,12.43-6.04-.82-10.67-.15-15.98,2Z"/>
</svg>